<svg xmlns="http://www.w3.org/2000/svg" xmlns:xlink="http://www.w3.org/1999/xlink" viewBox="0 0 421 407"><defs><linearGradient id="linear-gradient" x1="21.88" x2="393.22" y1="996.4" y2="996.4" gradientTransform="translate(0 -796)" gradientUnits="userSpaceOnUse"><stop offset=".2" stop-color="#263042"/><stop offset=".7" stop-color="#233755"/><stop offset="1" stop-color="#213e67"/></linearGradient><linearGradient id="linear-gradient-2" x1="21.88" x2="393.22" y1="-267.89" y2="-267.89" gradientTransform="matrix(1 0 0 -1 0 28)" gradientUnits="userSpaceOnUse"><stop offset="0" stop-color="#0389d0"/><stop offset=".9" stop-color="#06acee"/></linearGradient><linearGradient id="linear-gradient-3" x1="16.17" x2="261.97" y1="268.84" y2="268.84" gradientUnits="userSpaceOnUse"><stop offset="0" stop-color="#2c2c2c"/><stop offset=".53"/><stop offset=".73" stop-color="#0f0f0f"/><stop offset="1" stop-color="#2c2c2c"/></linearGradient><linearGradient xlink:href="#linear-gradient-3" id="linear-gradient-4" x2="241.05" y1="261.28" y2="261.28"/><linearGradient xlink:href="#linear-gradient-3" id="linear-gradient-5" x2="281.88" y1="277.29" y2="277.29"/><linearGradient xlink:href="#linear-gradient-3" id="linear-gradient-6" x2="218.43" y1="252.74" y2="252.74"/><linearGradient xlink:href="#linear-gradient-3" id="linear-gradient-7" x1="279.1" x2="397.35" y1="296.24" y2="296.24"/><linearGradient xlink:href="#linear-gradient-3" id="linear-gradient-8" x2="362.51" y1="296.24" y2="296.24"/><linearGradient xlink:href="#linear-gradient-3" id="linear-gradient-9" x2="171.88" y1="233.04" y2="233.04"/><linearGradient xlink:href="#linear-gradient-3" id="linear-gradient-10" x2="120.46" y1="369.61" y2="369.61"/><linearGradient xlink:href="#linear-gradient-3" id="linear-gradient-11" x2="148.76" y1="224.95" y2="224.95"/><linearGradient xlink:href="#linear-gradient-3" id="linear-gradient-12" x1="324.61" x2="397.35" y1="308.63" y2="308.63"/><linearGradient xlink:href="#linear-gradient-3" id="linear-gradient-13" x2="196.8" y1="242.11" y2="242.11"/><linearGradient xlink:href="#linear-gradient-3" id="linear-gradient-14" x2="171.29" y1="362.15" y2="362.15"/><linearGradient xlink:href="#linear-gradient-3" id="linear-gradient-15" x2="315.27" y1="286.83" y2="286.83"/><linearGradient xlink:href="#linear-gradient" id="linear-gradient-16" x1="1033.28" x2="1112.67" y1="2415.2" y2="2494.59" gradientTransform="rotate(90 1718.65 938.65)"/><clipPath id="clippath"><path d="M383.52 379.29H31.58c-5.36 0-9.7-4.34-9.7-9.7V212.27h371.34v157.32c0 5.36-4.34 9.7-9.7 9.7Z" style="stroke-width:0;fill:none"/></clipPath><filter id="drop-shadow-1" filterUnits="userSpaceOnUse"><feOffset dx="3" dy="3"/><feGaussianBlur result="blur" stdDeviation="8"/><feFlood flood-color="#000" flood-opacity=".3"/><feComposite in2="blur" operator="in"/><feComposite in="SourceGraphic"/></filter><style>.cls-2{isolation:isolate}.cls-20,.cls-22{stroke-width:0}.cls-20{fill:#14b8f9}.cls-22{fill:#fff}</style></defs><g class="cls-2"><g id="Layer_1"><rect width="371.34" height="357.76" x="21.88" y="21.52" rx="9.7" ry="9.7" style="fill:url(#linear-gradient);filter:url(#drop-shadow-1);stroke-width:0"/><path d="M21.88 212.5v157.09c0 5.36 4.34 9.7 9.7 9.7h351.94c5.36 0 9.7-4.34 9.7-9.7V212.5H21.88Z" style="fill:url(#linear-gradient-2);stroke-width:0"/><g style="opacity:.5"><g style="clip-path:url(#clippath)"><g style="isolation:isolate;mix-blend-mode:overlay;opacity:.7"><path d="M241.49 233.15c-1.25 5.25-2.17 11.41-3.19 17.91-2.4 15.97-5.02 34.11-14.72 48.49-11.41 16.88-30.12 24.98-57.27 24.87-3.42 0-7.07-.23-10.72-.46-25.21-1.83-51.11-9.81-73.93-16.77-4.11-1.26-8.1-2.51-11.98-3.65l-4.34-1.26c-16-4.74-32.28-9.58-48.68-14.3v3.87c20.07 5.93 39.74 12.1 58.49 18.08 3.88 1.25 7.87 2.51 11.75 3.76 25.1 8.1 50.99 16.54 77.8 18.6 2.05.11 4.11.34 6.16.34 28.75 1.03 48.37-6.39 60.12-22.82 10.27-14.37 12.78-32.97 15.06-49.4.68-5.48 1.48-10.61 2.4-15.29 2.7-13.16 6.39-26.93 12.73-40.17H250.9c-4.28 9.65-7.18 19.25-9.42 28.19Z" style="stroke:url(#linear-gradient-3);stroke-miterlimit:10;fill:none"/><path d="M220.96 237.14c-1.94 13.35-3.99 28.41-10.15 41.07-7.07 14.72-18.6 24.07-35.02 28.63-8.9 2.51-19.28 3.19-31.71 2.28-20.08-1.6-41.75-7.3-59.09-11.98-1.6-.46-3.08-.91-4.56-1.26-15.63-4.11-31.49-8.56-46.77-12.78-5.59-1.54-11.26-3.1-16.97-4.66v4.42c12.7 3.61 25.33 7.29 37.73 10.85 9.13 2.62 18.37 5.36 27.61 7.99 1.83.57 3.76 1.03 5.59 1.6 19.96 5.82 42.55 12.32 64.11 13.92 9.35.68 17.57.46 25.1-.8 43.35-7.19 48.37-41.75 52.36-69.48 1.03-7.3 2.05-14.26 3.65-20.08 2.14-7.86 4.63-15.14 7.47-21.91h-11.87c-.99 2.57-1.92 5.19-2.79 7.88-2.28 6.84-3.42 15.29-4.68 24.3Z" style="stroke:url(#linear-gradient-4);stroke-miterlimit:10;fill:none"/><path d="M254.95 265.89c-2.05 16.66-4.45 35.48-14.83 50.08-12.21 17.11-33.08 24.87-63.89 23.84-2.28 0-4.56-.11-6.96-.34-28.52-2.17-55.44-11.18-81.57-19.96-3.31-1.14-6.62-2.17-9.93-3.31-17.26-5.7-38.49-12.64-61.12-19.44v6.09c18.08 5.56 37.07 11.85 57.35 18.94 5.48 2.05 11.18 4.11 16.66 6.05 24.64 8.9 49.06 15.74 76.78 19.74 4.79.8 9.47 1.26 13.8 1.6 70.62 5.36 76.21-37.76 80.77-72.44.23-2.05.57-3.99.8-5.93 2.95-21.54 6.19-44.85 18.2-65.83h-9.63c-7.49 14.72-11.51 30.57-14.38 46.33-.8 4.45-1.37 9.35-2.05 14.6Z" style="stroke:url(#linear-gradient-5);stroke-miterlimit:10;fill:none"/><path d="M169.39 281.52c-12.21 5.59-29.78 7.53-52.02 5.82-32.92-2.39-70.84-12.34-100.7-20.47v5.78c21.34 5.74 43.39 11.57 65.34 16.86l3.08.68c15.86 3.76 35.48 8.56 53.62 9.93 13.58 1.03 24.41.11 33.2-2.85 24.64-8.33 28.52-25.1 32.17-41.3.34-1.25.57-2.62.91-3.88.68-2.62 1.25-5.36 1.94-8.1 3.02-12.86 6.05-26.15 10.78-39.02h-10.13c-3.79 10.01-6.62 20.06-9.09 29.67-.57 2.4-1.14 5.02-1.71 7.42-3.31 14.83-6.62 30.23-27.38 39.47Z" style="stroke:url(#linear-gradient-6);stroke-miterlimit:10;fill:none"/><path d="M332.3 322.24c5.36-31.37 11.52-66.85 42.9-92.29 6.55-5.32 13.84-9.64 21.65-13.14v-11.86h-11.37c-7.34 3.18-14.23 7.01-20.55 11.65-34.57 25.33-40.61 62.29-45.98 94.92l-.68 4.11c-3.19 19.39-6.84 41.41-19.85 57.5-4.77 5.88-10.54 10.67-17.36 14.4h27.3c.46-.49.91-1 1.35-1.51 13.12-15.06 17.68-35.59 21.45-57.04.34-2.28.8-4.45 1.14-6.73Z" style="stroke:url(#linear-gradient-7);stroke-miterlimit:10;fill:none"/><path d="M288.49 367.76c11.64-13.69 14.15-30 16.54-45.86.34-2.17.68-4.45 1.03-6.62.57-2.97 1.03-6.05 1.48-9.13 5.02-32.63 10.38-66.4 40.84-92.29 3.86-3.28 7.99-6.24 12.35-8.91h-28.21c-27.77 25.18-32.47 57.65-36.96 89.11-.23 2.17-.57 4.45-.91 6.62-.34 2.4-.68 4.68-1.03 7.07-2.17 15.4-4.34 31.26-14.26 45.06-13.23 18.37-39.7 26.47-76.66 23.73-6.96-.57-14.26-1.48-21.79-2.74-42.78-7.3-85.45-22.59-130.51-38.9-11.18-4.02-22.43-8.07-33.74-12.01v7.09c15.98 5.44 31.89 11.2 47.65 16.9 44.38 16.09 86.25 31.26 125.72 38.22 5.63 1.05 11.09 1.83 16.39 2.42h41.5c17.97-2.63 31.56-9.21 40.56-19.76Z" style="stroke-miterlimit:10;fill:none;stroke:url(#linear-gradient-8)"/><path d="M61.13 252.88c-15.93-1.24-31.26-3.73-44.46-6.44v3.96c19.16 4.32 41.17 8.44 62.26 10.01 31.71 2.4 55.9-1.26 71.76-11.07 15.29-9.35 17.34-23.39 19.39-36.96.36-2.45.74-4.94 1.21-7.42h-10.97c-1.14 10.2-3.22 20.36-11.91 28.76-16.2 15.63-46.43 22.25-87.27 19.17Z" style="stroke:url(#linear-gradient-9);stroke-miterlimit:10;fill:none"/><path d="M63.98 368.68c-14.03-5.13-28.41-10.27-42.55-15.17-1.6-.55-3.18-1.07-4.76-1.61v35.63h100.72c-18.09-6.05-35.86-12.48-53.41-18.85Z" style="stroke:url(#linear-gradient-10);stroke-miterlimit:10;fill:none"/><path d="M49.03 244.21c43.58 3.31 75.98-4.68 91.15-22.47 4.38-5.1 6.62-10.84 7.95-16.78H16.67V240c10.93 2.02 21.88 3.46 32.37 4.22Z" style="stroke:url(#linear-gradient-11);stroke-miterlimit:10;fill:none"/><path d="M385.12 238.51c-29.09 24.87-34.91 57.84-40.61 89.78-.46 2.85-1.03 5.59-1.48 8.33-3.26 17.78-7.39 36.15-17.47 50.91h71.29V230.12c-4.13 2.47-8.06 5.25-11.72 8.39Z" style="stroke:url(#linear-gradient-12);stroke-miterlimit:10;fill:none"/><path d="M154.1 260.53c-16.09 7.19-38.1 9.81-65.48 7.76-23.86-1.76-49.27-6.88-71.95-12.27v5.22c26.85 6.96 61.17 15.15 91.23 17.42 24.76 1.83 43.69-.57 56.36-7.07 17.57-9.13 20.53-23.27 23.39-37.08.57-3.08 1.25-6.27 2.05-9.24 1.98-7.37 4.09-14.09 6.38-20.32h-12.79c-.22.69-.46 1.36-.66 2.06-1.25 4.34-2.05 8.78-2.85 13.46-2.62 15.29-5.36 30.92-25.67 40.04Z" style="stroke:url(#linear-gradient-13);stroke-miterlimit:10;fill:none"/><path d="M66.15 362.74c23.53 8.53 47.41 17.21 71.88 24.78h29.19c-33.35-8.32-67.5-20.83-103.01-33.8-15.76-5.77-31.63-11.47-47.54-16.76v8.22c.79.26 1.57.52 2.36.78 15.63 5.36 31.6 11.18 47.12 16.77Z" style="stroke:url(#linear-gradient-14);stroke-miterlimit:10;fill:none"/><path d="M181.94 366.51c5.02.8 10.04 1.37 14.83 1.71 36.62 2.74 62.29-6.16 74.04-25.67 8.21-13.46 10.04-28.75 11.86-43.58.34-2.62.68-5.25 1.03-7.76l.46-2.97c3.98-29.07 8.05-58.91 29.99-83.29h-21.54c-14.47 22.45-17.59 48.37-20.43 72.11-.23 1.6-.34 3.19-.57 4.79-2.05 17.8-4.34 37.88-15.52 52.93-13.01 17.57-35.71 24.87-69.36 22.36-4.34-.34-8.78-.8-13.46-1.48-29.43-4.11-54.87-10.84-80.66-20.42-4.91-1.94-9.93-3.76-14.94-5.59-21.49-7.89-41.67-14.72-61-20.72v6.14c14.75 4.98 29.53 10.45 44 15.83 39.13 14.49 79.63 29.43 121.27 35.59Z" style="stroke:url(#linear-gradient-15);stroke-miterlimit:10;fill:none"/></g></g></g><g class="cls-2"><g class="cls-2"><g class="cls-2"><g class="cls-2"><path d="m56.59 90.71 9.47-18.14c.91-1.6 1.6-3.08 2.17-4.34.57-1.25.91-2.28 1.25-3.19.34-.91.57-1.71.68-2.4s.23-1.25.23-1.83c0-.91 0-1.6-.23-2.17-.11-.57-.34-1.03-.68-1.37s-.68-.57-1.14-.8c-.46-.11-1.03-.23-1.6-.23-1.48 0-2.51.57-3.19 1.83-.68 1.25-1.03 2.97-1.03 5.25v2.4H57.5c-.23-.91-.34-1.83-.46-2.51-.11-.8-.23-1.6-.23-2.51s.23-2.17.57-3.19a8.71 8.71 0 0 1 1.71-2.97c.8-.91 1.83-1.6 3.08-2.05 1.25-.46 2.74-.8 4.45-.8s3.42.23 4.79.68 2.4 1.03 3.31 1.94c.8.8 1.48 1.83 1.83 3.08s.57 2.51.57 4.11 0 1.71-.23 2.51c-.11.8-.46 1.71-.8 2.74-.34.91-.8 2.05-1.37 3.19s-1.25 2.4-2.17 3.88l-8.44 15.97h12.43v5.13H56.58V90.7ZM80.89 83.41 93.32 51.7h7.76v30h3.99v5.13h-3.99v7.64h-6.05v-7.64H80.88v-3.42Zm14.15-1.71v-6.27l.57-16.09h-.8L87.39 81.7h7.64ZM109.64 48.96h6.27v8.1l-.34 5.93c.46-.68 1.03-1.14 1.48-1.6.57-.46 1.14-.8 1.71-1.03.57-.23 1.14-.46 1.71-.57.57 0 1.14-.11 1.71-.11 2.05 0 3.54.68 4.68 2.17 1.14 1.37 1.6 3.54 1.6 6.39v26.35h-6.27V68.47c0-1.48-.23-2.62-.68-3.19-.46-.57-1.14-.91-2.05-.91s-1.25.23-1.94.68-1.25 1.03-1.71 1.71V94.6h-6.27V49.08l.11-.11ZM135.19 60.02h4.68l.57 3.54c.68-1.25 1.48-2.28 2.4-2.97s1.83-1.03 2.74-1.03c1.83 0 3.19.57 3.99 1.71.91 1.14 1.25 2.74 1.25 5.02v1.03c0 .34 0 .8-.23 1.25 0 .46-.11.8-.23 1.25 0 .46-.23.8-.34 1.14h-4.45v-3.19c0-.68 0-1.25-.11-1.71 0-.46-.23-.8-.34-1.14-.11-.23-.34-.46-.57-.57-.23 0-.46-.11-.68-.11-.46 0-.91.11-1.37.46s-.8.8-1.03 1.37v28.41h-6.27V60.03ZM153.56 87.29c0-.8 0-1.48.23-2.17.11-.68.23-1.25.46-1.71h4.45c0 1.25 0 2.28.23 3.19.11.8.34 1.48.57 2.05s.68.91 1.14 1.03c.46.23 1.03.34 1.71.34s1.6-.23 2.05-.8c.46-.57.68-1.14.68-1.83s0-.68-.11-1.03c0-.34-.23-.68-.46-1.03s-.46-.68-.68-1.03c-.23-.34-.57-.68-.91-1.14l-4.68-5.48c-.57-.8-1.14-1.48-1.71-2.28s-1.03-1.6-1.48-2.4-.8-1.71-1.03-2.62-.34-1.83-.34-2.85.23-2.51.68-3.42c.46-1.03 1.03-1.83 1.83-2.4.8-.68 1.71-1.14 2.74-1.48s2.05-.46 3.19-.46 2.4.11 3.42.46 1.83.8 2.62 1.37c.68.57 1.25 1.37 1.6 2.28.34.91.57 1.94.57 3.08s0 1.6-.23 2.28c-.11.8-.23 1.37-.46 1.94h-4.34c0-1.14 0-2.17-.11-2.97s-.23-1.6-.46-2.17-.57-1.03-.91-1.25-.91-.46-1.48-.46-1.03 0-1.37.23-.68.46-.91.68-.34.57-.46.91c0 .34-.11.68-.11 1.03 0 .8.23 1.6.57 2.28s.91 1.37 1.48 2.28l5.02 5.93c.34.46.8 1.03 1.25 1.6.46.68.91 1.37 1.37 2.17.46.8.8 1.6 1.14 2.51s.46 1.83.46 2.85-.23 2.28-.57 3.31-.91 1.83-1.71 2.51-1.71 1.25-2.74 1.6c-1.14.34-2.4.57-3.76.57s-2.28-.11-3.31-.34-1.94-.68-2.62-1.25c-.68-.57-1.37-1.37-1.83-2.28-.46-.91-.68-2.17-.68-3.54v-.11Z" class="cls-20"/></g></g></g><g class="cls-2"><g class="cls-2"><g class="cls-2"><path d="M200.22 94.82c-1.48 0-2.85-.23-3.99-.8s-2.05-1.37-2.85-2.62c-.8-1.14-1.37-2.62-1.83-4.45-.46-1.83-.57-3.99-.57-6.62v-6.5c0-2.17.11-4.11.46-5.59.34-1.6.8-2.85 1.25-3.88.57-1.03 1.14-1.94 1.83-2.51s1.37-1.14 2.17-1.37c.68-.34 1.48-.57 2.17-.57s1.37-.11 2.05-.11c1.14 0 2.28.23 3.31.46 1.03.34 1.94.91 2.74 1.71.8.8 1.48 1.94 1.94 3.31.46 1.37.68 3.08.68 5.13v2.17c0 .68 0 1.37-.11 2.17 0 .68-.11 1.37-.23 2.05 0 .68-.23 1.25-.34 1.83h-11.41v3.54c0 1.48 0 2.74.23 3.76.11 1.03.34 1.83.57 2.51.23.57.68 1.03 1.14 1.37s1.03.46 1.83.46.8 0 1.14-.23c.34-.11.68-.46.91-.8s.46-.8.68-1.48c.11-.57.23-1.37.23-2.28v-1.03h5.25v1.37c0 3.31-.8 5.7-2.28 7.19-1.6 1.48-3.76 2.28-6.73 2.28l-.23-.46Zm3.54-20.65v-3.42c0-2.28-.23-3.88-.8-4.91-.57-1.03-1.37-1.48-2.4-1.48s-1.03.11-1.48.34-.8.68-1.03 1.25-.46 1.37-.57 2.4-.23 2.28-.23 3.76v2.05h6.5ZM219.5 77.02l-6.84-17h6.5l3.65 11.29 3.88-11.29h6.05l-6.5 16.31 7.3 18.14h-6.5l-4.22-11.86h-.23l-4.34 11.86h-6.05l7.19-17.45h.11ZM238.32 64.58h-2.62v-4.45h3.19l1.25-8.9h4.45v8.9h5.48v4.45h-5.48v21.9c0 .8 0 1.37.23 1.83.11.46.34.8.57 1.03.23.23.57.46.91.46s.68.11 1.03.11c.57 0 1.14 0 1.6-.23.46-.11.91-.34 1.37-.57v3.54c-.34.46-.8.8-1.14 1.14-.46.23-.91.57-1.37.68s-.91.34-1.37.34h-1.37c-.91 0-1.71-.11-2.51-.34-.8-.23-1.6-.68-2.17-1.37-.68-.68-1.14-1.6-1.48-2.74s-.57-2.74-.57-4.56V64.47v.11ZM254.41 60.02h4.68l.57 3.54c.68-1.25 1.48-2.28 2.4-2.97.91-.68 1.83-1.03 2.74-1.03 1.83 0 3.19.57 3.99 1.71.91 1.14 1.25 2.74 1.25 5.02v1.03c0 .46 0 .8-.23 1.25s-.11.8-.23 1.25-.23.8-.34 1.14h-4.45v-3.19c0-.68 0-1.25-.11-1.71s-.23-.8-.34-1.14-.34-.46-.57-.57c-.23 0-.46-.11-.68-.11-.46 0-.91.11-1.37.46-.46.34-.8.8-1.03 1.37v28.41h-6.27V60.03ZM278.94 94.82c-1.03 0-2.05-.23-2.85-.68s-1.48-1.03-2.05-1.71-1.03-1.6-1.25-2.62c-.34-1.03-.46-2.05-.46-3.31s.23-2.62.57-3.76.91-2.05 1.48-2.97c.68-.91 1.48-1.71 2.51-2.4 1.03-.68 2.17-1.37 3.42-2.05.68-.34 1.37-.68 2.17-.91.8-.34 1.48-.57 2.17-.8v-6.39c0-.57-.23-1.03-.34-1.48-.23-.46-.46-.8-.91-1.03s-.91-.34-1.6-.34-.91 0-1.37.23-.8.46-1.14.8-.57.91-.8 1.6-.34 1.48-.34 2.51v1.48h-4.79c-.11-.68-.23-1.25-.34-1.83v-1.6c0-1.25.23-2.4.68-3.42s1.03-1.83 1.83-2.51 1.71-1.14 2.85-1.48 2.28-.46 3.65-.46 3.19.23 4.22.57c1.14.34 2.05.91 2.74 1.71.68.8 1.14 1.71 1.37 2.85s.46 2.51.46 3.99v25.78h-4.68l-.46-2.97c-.68 1.03-1.6 1.83-2.74 2.4-1.14.57-2.4.91-3.88.91l-.11-.11Zm2.73-4.79c.57 0 1.03-.11 1.6-.46.46-.23.91-.57 1.25-1.03V77.82c-.34.11-.68.34-1.14.46s-.91.46-1.37.68c-.46.23-.91.57-1.37 1.03-.46.46-.8.91-1.14 1.37s-.57 1.14-.8 1.83-.34 1.48-.34 2.28c0 1.37.23 2.4.8 3.19.57.8 1.37 1.25 2.51 1.25v.11Z" class="cls-20"/></g></g></g><g class="cls-2"><g class="cls-2"><g class="cls-2"><path d="M322.4 94.82c-.68 0-1.48 0-2.28-.23-.8-.11-1.48-.34-2.17-.68-.68-.34-1.37-.91-2.05-1.6-.57-.68-1.14-1.6-1.6-2.74s-.8-2.51-1.14-4.11c-.23-1.6-.46-3.54-.46-5.82v-5.36c0-2.28.11-4.11.46-5.7.23-1.6.68-2.97 1.14-3.99s1.03-1.94 1.71-2.62c.68-.68 1.25-1.14 2.05-1.48.68-.34 1.48-.57 2.17-.68.8 0 1.48-.11 2.17-.11s1.37 0 2.17.11 1.48.34 2.17.68c.68.34 1.37.8 1.94 1.48.57.68 1.14 1.48 1.6 2.62s.8 2.4 1.14 3.99c.23 1.6.46 3.54.46 5.82v5.36c0 2.28-.11 4.11-.46 5.82-.23 1.6-.68 2.97-1.14 4.11s-1.03 2.05-1.71 2.74-1.25 1.25-2.05 1.6c-.68.34-1.37.68-2.17.8-.68.11-1.37.23-2.05.23l.11-.23Zm0-4.79c.57 0 1.03-.11 1.48-.46s.68-.8.91-1.48c.23-.68.46-1.6.57-2.62 0-1.14.11-2.4.11-4.11v-8.44c0-1.6 0-2.97-.11-4.11 0-1.14-.23-1.94-.57-2.62s-.57-1.14-.91-1.48-.91-.46-1.48-.46-1.14.11-1.48.46c-.46.34-.8.8-1.03 1.48-.23.68-.46 1.6-.57 2.62-.11 1.14-.23 2.51-.23 4.11v8.44c0 1.6 0 2.97.23 4.11.11 1.14.34 1.94.57 2.62.23.68.57 1.14 1.03 1.48s.91.46 1.48.46ZM337.46 60.02h4.91l.57 3.65c.46-.8 1.03-1.37 1.6-1.94s1.14-.91 1.83-1.25 1.25-.57 1.94-.68 1.25-.23 1.94-.23c2.05 0 3.54.68 4.68 2.17 1.14 1.37 1.6 3.54 1.6 6.39v26.35h-6.27V68.36c0-1.48-.23-2.62-.68-3.19s-1.14-.91-2.05-.91-1.25.23-1.94.57c-.57.46-1.14 1.03-1.71 1.71v27.84h-6.27V59.93l-.11.11Z" class="cls-22"/></g></g></g><g class="cls-2"><g class="cls-2"><g class="cls-2"><path d="M57.62 106.34h9.13c1.03 0 1.94.23 2.85.46.91.23 1.83.57 2.74.91.8.46 1.6.91 2.17 1.6.68.68 1.14 1.48 1.48 2.51.34 1.03.57 2.28.57 3.65v1.94c0 1.14-.11 2.05-.46 2.97-.34.91-.68 1.71-1.25 2.4-.46.68-1.14 1.25-1.71 1.71-.68.46-1.37.8-2.05.91v.23c2.05.34 3.54 1.37 4.56 2.85 1.03 1.6 1.6 3.54 1.6 5.93v2.05c0 1.48-.11 2.74-.46 3.88-.34 1.14-.8 2.05-1.37 2.85-.57.8-1.25 1.37-2.05 1.94-.8.46-1.71.91-2.74 1.14s-2.05.46-3.08.57c-1.14 0-2.28.11-3.42.11h-6.5v-40.96.34Zm7.18 17.57c.8 0 1.6 0 2.28-.34.68-.23 1.25-.46 1.71-.91.46-.46.91-1.03 1.14-1.6.23-.68.34-1.48.34-2.51v-1.71c0-.91 0-1.83-.34-2.51-.34-.68-.46-1.37-.91-1.83s-1.03-.91-1.71-1.14-1.6-.34-2.62-.34h-1.14v13.01h1.14l.11-.11Zm.69 19.05c.8 0 1.6 0 2.28-.34.68-.23 1.25-.57 1.71-1.03s.91-1.03 1.14-1.71.34-1.48.34-2.51v-3.19c0-.91 0-1.83-.34-2.51-.23-.8-.46-1.37-.91-1.83-.46-.46-1.03-.91-1.71-1.14s-1.6-.34-2.62-.34h-1.83v14.72h1.83l.11-.11ZM82.6 106.34h6.16v36.05h8.44v4.91H82.6v-40.96ZM105.76 106.34h7.19l7.53 40.96h-6.27l-1.14-7.3h-7.53l-1.03 7.3h-6.27l7.53-40.96Zm6.62 28.98-2.85-20.42h-.23l-2.85 20.42h6.05-.11ZM133.25 147.64c-.68 0-1.37 0-2.05-.11-.8 0-1.48-.34-2.28-.68s-1.48-.8-2.17-1.37c-.68-.57-1.25-1.37-1.83-2.4-.57-1.03-.91-2.28-1.25-3.76-.34-1.48-.46-3.19-.46-5.25v-14.49c0-2.05.11-3.76.46-5.25.34-1.48.8-2.74 1.25-3.65.46-.91 1.14-1.83 1.83-2.4s1.37-1.03 2.17-1.37c.68-.34 1.48-.57 2.17-.57s1.37-.11 2.05-.11c1.6 0 2.97.23 4.11.68s1.94 1.03 2.62 1.83c.68.8 1.14 1.71 1.37 2.74s.46 2.17.46 3.31 0 1.71-.11 2.4c0 .8-.23 1.6-.34 2.51h-5.02v-2.05c0-2.28-.23-3.99-.8-5.02-.46-1.14-1.25-1.71-2.17-1.71s-1.03 0-1.48.34c-.46.23-.8.57-1.03 1.14s-.46 1.25-.68 2.17c-.11.91-.23 1.94-.23 3.31v18.71c0 1.25 0 2.4.23 3.19.11.8.34 1.48.57 2.05.23.46.57.91 1.03 1.14s1.03.34 1.6.34.8 0 1.14-.23.68-.46 1.03-.91c.23-.34.46-.91.68-1.48.11-.57.23-1.25.23-2.17v-3.99h5.7v3.76c0 3.31-.8 5.7-2.28 7.3-1.48 1.6-3.65 2.4-6.5 2.4v-.34ZM146.83 106.34h6.16v17.91h.23l7.07-17.91h6.16l-7.87 19.17 8.78 21.68h-6.62l-7.53-19.51h-.23v19.51h-6.16v-40.96.11Z" class="cls-22"/></g></g></g><g class="cls-2"><g class="cls-2"><g class="cls-2"><path d="M187.67 106.34h15.63v4.91h-9.47v12.21h7.42v4.91h-7.42v18.94h-6.16v-40.96ZM207.41 106.34h9.24c.91 0 1.83.23 2.74.46.91.23 1.83.57 2.62 1.14.8.46 1.6 1.14 2.28 2.05.68.91 1.14 1.94 1.6 3.19.34 1.25.57 2.85.57 4.68v1.03c0 3.08-.46 5.7-1.37 7.64-.91 1.94-2.17 3.42-3.99 4.22l6.62 16.31h-6.62l-5.48-15.29h-2.28v15.29h-6.05V106.1l.11.23Zm7.07 21.22c1.14 0 2.05-.11 2.74-.34.8-.23 1.37-.68 1.83-1.25s.8-1.37 1.03-2.28c.23-.91.34-2.05.34-3.42v-3.19c0-1.03 0-1.94-.34-2.74s-.57-1.37-.91-1.94c-.46-.46-1.03-.91-1.83-1.14s-1.71-.34-2.85-.34h-.91v16.54h.91v.11ZM232.5 106.34h6.16v40.96h-6.16v-40.96ZM245.74 106.34h9.47c1.03 0 2.05.23 3.08.57 1.03.34 1.94.68 2.85 1.37.91.57 1.71 1.48 2.28 2.51.68 1.03 1.25 2.4 1.6 4.11.34 1.6.57 3.65.57 6.05v11.86c0 2.4-.23 4.34-.57 6.05-.34 1.6-.91 2.97-1.6 4.11-.68 1.03-1.48 1.94-2.28 2.51-.91.57-1.83 1.03-2.85 1.37s-2.05.46-3.08.57h-9.47v-41.07Zm7.76 36.62c1.14 0 2.05-.11 2.74-.46s1.25-.8 1.71-1.48.68-1.71.91-2.97c.11-1.25.23-2.85.23-4.79V120.6c0-1.94 0-3.54-.23-4.79-.11-1.25-.46-2.28-.91-2.97s-1.03-1.25-1.71-1.48-1.6-.46-2.74-.46h-1.6v32.06h1.6ZM275.63 106.34h7.19l7.53 40.96h-6.27l-1.14-7.3h-7.53l-1.03 7.3h-6.27l7.53-40.96Zm6.61 28.98-2.85-20.42h-.23l-2.85 20.42h6.05-.11ZM299.13 133.72l-8.21-27.27h6.27l5.02 19.62h.34l4.91-19.62h6.27l-8.33 27.27v13.58h-6.16v-13.58h-.11Z" class="cls-22"/></g></g></g><g class="cls-2"><g class="cls-2"><g class="cls-2"><path d="M331.98 137.48c0-1.37.23-2.62.68-3.88.46-1.14 1.03-2.28 1.6-3.31a28.31 28.31 0 0 1 2.05-2.74c.68-.8 1.37-1.48 1.83-2.17l.68-.68-.8-1.48c-.46-.8-.8-1.6-1.14-2.4s-.68-1.71-1.03-2.51c-.34-.91-.57-1.71-.68-2.62s-.23-1.83-.23-2.74c0-1.37.23-2.62.68-3.76.46-1.14 1.14-2.05 1.94-2.85s1.83-1.37 2.85-1.83 2.28-.68 3.54-.68 2.97.23 3.99.8c1.03.46 1.94 1.14 2.51 1.83.57.8 1.03 1.6 1.25 2.4s.34 1.6.34 2.4c0 1.48-.23 2.85-.68 4.11s-1.03 2.4-1.71 3.42c-.68 1.03-1.37 1.94-2.17 2.85-.68.8-1.37 1.48-1.83 2.05l-.57.57 6.16 11.18c.23-.91.46-1.83.68-2.74s.23-1.94.23-2.97v-2.85h5.02c0 .46.11.91.23 1.37v1.48c0 1.94-.34 3.76-.91 5.59-.57 1.83-1.37 3.42-2.4 5.02l3.76 6.73h-6.39l-1.37-2.4c-1.14.91-2.4 1.6-3.65 2.05-1.25.46-2.62.8-3.88.8s-2.97-.23-4.22-.68c-1.25-.46-2.4-1.14-3.31-1.94-.91-.91-1.6-1.94-2.17-3.19-.46-1.25-.8-2.74-.8-4.34l-.11.11Zm6.17-.79c0 .8 0 1.48.34 2.28.23.8.57 1.48 1.03 2.05s1.03 1.14 1.71 1.48 1.6.57 2.51.57 1.6-.11 2.28-.46c.68-.34 1.37-.8 1.94-1.37l-6.84-12.32c-.91 1.14-1.71 2.51-2.17 3.76-.46 1.37-.8 2.62-.8 3.99Zm5.13-16.78c.34-.34.68-.8 1.14-1.25.46-.46.8-1.03 1.14-1.71.34-.57.68-1.37.91-2.05.23-.8.34-1.6.34-2.51s0-1.14-.23-1.6c-.11-.46-.34-.8-.68-1.14s-.57-.46-.91-.68c-.34-.11-.68-.23-1.14-.23s-.8 0-1.14.23c-.46.11-.8.34-1.14.68-.34.34-.57.8-.8 1.25-.23.57-.34 1.25-.34 2.05s0 1.03.11 1.6c0 .57.23 1.03.46 1.6.23.57.46 1.25.8 1.83.34.68.68 1.37 1.14 2.28l.46-.46-.11.11Z" class="cls-20"/></g></g></g><g class="cls-2"><g class="cls-2"><g class="cls-2"><path d="M62.86 189.39h-1.48c-.57 0-1.03-.23-1.6-.46s-1.03-.57-1.48-1.03-.91-1.03-1.25-1.71-.68-1.6-.91-2.62c-.23-1.03-.34-2.28-.34-3.76v-10.27c0-1.48 0-2.74.34-3.76.34-1.03.57-1.94.91-2.62s.8-1.25 1.25-1.71 1.03-.68 1.48-.91 1.03-.34 1.6-.46 1.03 0 1.48 0c1.14 0 2.17.11 2.85.46s1.37.8 1.83 1.37.8 1.25 1.03 1.94c.23.68.34 1.6.34 2.4v1.71c0 .57-.11 1.14-.23 1.71h-3.54v-1.48c0-1.6-.23-2.85-.57-3.65s-.91-1.14-1.6-1.14-.8 0-1.03.23-.57.46-.8.8-.34.91-.46 1.48c0 .57-.11 1.37-.11 2.28v13.35c0 .91 0 1.71.11 2.28 0 .57.23 1.14.46 1.48.23.34.46.57.8.8.34.11.68.23 1.14.23s.57 0 .8-.23.46-.34.68-.57.34-.68.46-1.03c.11-.46.23-.91.23-1.48v-2.85h3.99v2.74c0 2.4-.57 4.11-1.6 5.13-1.03 1.14-2.62 1.71-4.56 1.71l-.23-.34ZM75.98 179.47l-5.82-19.39h4.45L78.15 174h.23l3.54-13.92h4.45l-5.93 19.39v9.7h-4.45v-9.7ZM88.87 160.07h6.5c.68 0 1.37.11 2.05.34.68.23 1.25.34 1.94.68.57.34 1.14.68 1.6 1.14s.8 1.14 1.03 1.83.46 1.6.46 2.62v1.37c0 .8 0 1.48-.34 2.17a6.258 6.258 0 0 1-2.16 2.96c-.46.34-.91.57-1.48.68 1.48.34 2.51 1.03 3.31 2.17.68 1.14 1.14 2.51 1.14 4.22v1.48c0 1.03-.11 1.94-.34 2.74s-.57 1.48-1.03 1.94c-.46.57-.91 1.03-1.48 1.37s-1.25.68-1.94.8c-.68.23-1.48.34-2.17.46h-7.07v-29.09.11Zm5.14 12.44c.57 0 1.14 0 1.6-.23.46-.11.91-.34 1.25-.68s.57-.68.8-1.14.23-1.03.23-1.71v-1.14c0-.68 0-1.25-.23-1.83s-.34-.91-.68-1.37c-.34-.34-.68-.68-1.25-.8-.46-.23-1.14-.23-1.83-.23h-.8v9.24h.8l.11-.11Zm.45 13.57c.57 0 1.14 0 1.6-.23.46-.11.91-.34 1.25-.68s.57-.68.8-1.25c.23-.46.23-1.14.23-1.83v-2.28c0-.68 0-1.25-.23-1.83s-.34-1.03-.68-1.37-.68-.68-1.25-.8c-.46-.23-1.14-.23-1.83-.23H93.1v10.5h1.37ZM106.67 160.07h10.84v3.42h-6.39v8.67h4.91v3.42h-4.91v9.93h6.5v3.42h-10.95v-29.09.23ZM120.82 160.07h6.62c.68 0 1.25.11 1.94.34.68.23 1.25.46 1.94.8s1.14.8 1.6 1.48c.46.57.8 1.37 1.14 2.28.23.91.46 2.05.46 3.42v.68c0 2.17-.34 3.99-.91 5.36-.68 1.37-1.6 2.4-2.85 2.97l4.68 11.64h-4.68l-3.88-10.84h-1.6v10.84h-4.34v-29.09l-.11.11Zm5.02 15.06c.8 0 1.37 0 1.94-.23s.91-.46 1.25-.91c.34-.46.57-.91.68-1.6s.23-1.48.23-2.51v-2.28c0-.8 0-1.37-.23-1.94-.11-.57-.34-1.03-.68-1.37s-.8-.57-1.25-.8-1.25-.23-2.05-.23h-.68v11.86h.8Z" class="cls-22"/></g></g></g><g class="cls-2"><g class="cls-2"><g class="cls-2"><path d="M147.06 160.07h5.7l2.85 11.29c.34 1.25.57 2.4.68 3.54.11 1.14.34 2.17.46 3.19h.11c.11-1.03.34-2.05.46-3.19s.46-2.28.68-3.54l2.85-11.29h5.59v29.09h-4.11v-17.57c0-1.14 0-2.17.11-3.08 0-.91 0-1.6.11-2.05h-.34l-4.45 19.05h-2.85l-4.45-19.05h-.34c0 .46 0 1.25.11 2.05 0 .91 0 1.94.11 3.08v17.57h-4.11v-29.09h.8ZM178.09 189.39h-1.48c-.46 0-1.14-.23-1.6-.46-.57-.23-1.03-.57-1.6-1.03-.46-.46-.91-1.03-1.37-1.71-.34-.68-.68-1.6-.91-2.62s-.34-2.28-.34-3.76v-10.27c0-1.48.11-2.74.34-3.76.23-1.03.57-1.94.91-2.62s.8-1.25 1.37-1.71c.46-.46 1.03-.68 1.6-.91s1.03-.34 1.6-.46 1.03 0 1.48 0h1.48c.57 0 1.03.23 1.6.46s1.03.57 1.6.91.91 1.03 1.37 1.71c.34.68.68 1.6.91 2.62.23 1.03.34 2.28.34 3.76v10.27c0 1.48-.11 2.74-.34 3.76-.23 1.03-.57 1.94-.91 2.62s-.8 1.25-1.37 1.71c-.46.46-1.03.8-1.6 1.03s-1.03.46-1.6.46-1.03.11-1.37.11l-.11-.11Zm0-3.31c.46 0 .8 0 1.14-.23.34-.11.57-.46.8-.8s.34-.8.46-1.48c0-.57.11-1.37.11-2.28v-13.23c0-.91 0-1.71-.11-2.28s-.23-1.14-.46-1.48-.46-.68-.8-.8c-.34-.11-.68-.23-1.14-.23s-.8 0-1.14.23c-.34.11-.57.46-.8.8s-.34.91-.46 1.48c0 .57-.11 1.37-.11 2.28v13.23c0 .91 0 1.71.11 2.28 0 .57.23 1.03.46 1.48.23.34.46.57.8.8.34.11.68.23 1.14.23ZM189.38 160.07h3.54l7.07 19.51c0-.46 0-.91-.11-1.48 0-.57 0-1.14-.11-1.94 0-.68 0-1.48-.11-2.4s0-1.94 0-3.08v-10.61h3.99v29.09H200l-7.07-18.94h-.11c0 .46 0 1.03.11 1.71 0 .57 0 1.25.11 2.05 0 .8 0 1.71.11 2.85v12.43h-3.88v-29.09l.11-.11ZM208.66 160.07h6.73c.8 0 1.48.11 2.17.34.68.23 1.37.57 2.05.91.68.46 1.14 1.03 1.71 1.83.46.8.8 1.71 1.14 2.85.23 1.14.46 2.62.46 4.22v8.44c0 1.71-.11 3.08-.46 4.34-.23 1.14-.68 2.17-1.14 2.85-.46.8-1.03 1.37-1.71 1.83-.68.46-1.25.8-2.05.91-.68.23-1.48.34-2.17.34h-6.73v-29.09.23Zm5.48 26.01c.8 0 1.48 0 1.94-.34.57-.23.91-.57 1.25-1.03s.46-1.25.57-2.17c0-.91.23-2.05.23-3.42v-9.01c0-1.37 0-2.51-.23-3.42 0-.91-.34-1.6-.57-2.17-.34-.57-.68-.91-1.25-1.03-.57-.23-1.14-.34-1.94-.34H213v22.82h1.14v.11ZM229.88 160.07h5.13l5.36 29.09h-4.45l-.8-5.25h-5.36l-.8 5.25h-4.45l5.36-29.09Zm4.68 20.54-2.05-14.49h-.23l-2.05 14.49h4.34ZM246.65 179.47l-5.82-19.39h4.45l3.54 13.92h.23l3.54-13.92h4.45l-5.93 19.39v9.7h-4.45v-9.7Z" class="cls-22"/></g></g></g><g class="cls-2"><g class="cls-2"><g class="cls-2"><path d="M274.26 189.39h-1.48c-.57 0-1.14-.23-1.6-.46-.57-.23-1.03-.57-1.6-1.03s-.91-1.03-1.37-1.71-.68-1.6-.91-2.62c-.23-1.03-.34-2.28-.34-3.76v-10.27c0-1.48.11-2.74.34-3.76s.57-1.94.91-2.62.8-1.25 1.37-1.71c.46-.46 1.03-.68 1.6-.91s1.03-.34 1.6-.46h2.97c.57 0 1.03.23 1.6.46s1.03.57 1.6.91.91 1.03 1.37 1.71c.34.68.68 1.6.91 2.62.23 1.03.34 2.28.34 3.76v10.27c0 1.48-.11 2.74-.34 3.76-.23 1.03-.57 1.94-.91 2.62s-.8 1.25-1.37 1.71c-.46.46-1.03.8-1.6 1.03s-1.03.46-1.6.46-1.03.11-1.37.11l-.11-.11Zm0-3.31c.46 0 .8 0 1.14-.23.34-.11.57-.46.8-.8s.34-.8.46-1.48c0-.57.11-1.37.11-2.28v-13.23c0-.91 0-1.71-.11-2.28s-.23-1.14-.46-1.48c-.23-.34-.46-.68-.8-.8-.34-.11-.68-.23-1.14-.23s-.8 0-1.14.23c-.34.11-.57.46-.8.8s-.34.91-.46 1.48-.11 1.37-.11 2.28v13.23c0 .91 0 1.71.11 2.28 0 .57.23 1.03.46 1.48.23.34.46.57.8.8.34.11.68.23 1.14.23ZM285.67 160.07h11.18v3.42h-6.73v8.67h5.25v3.42h-5.25v13.46h-4.45v-29.09.11ZM299.7 160.07h11.18v3.42h-6.73v8.67h5.25v3.42h-5.25v13.46h-4.45v-29.09.11ZM313.85 160.07h10.84v3.42h-6.39v8.67h4.91v3.42h-4.91v9.93h6.5v3.42h-10.95v-29.09.23ZM327.99 160.07h6.62c.68 0 1.25.11 1.94.34.68.23 1.25.46 1.94.8.57.34 1.14.8 1.6 1.48s.8 1.37 1.14 2.28c.23.91.46 2.05.46 3.42v.68c0 2.17-.34 3.99-.91 5.36-.68 1.37-1.6 2.4-2.85 2.97l4.68 11.64h-4.68l-3.88-10.84h-1.6v10.84h-4.34v-29.09l-.11.11Zm4.91 15.06c.8 0 1.37 0 1.94-.23.57-.11.91-.46 1.25-.91.34-.46.57-.91.68-1.6.11-.68.23-1.48.23-2.51v-2.28c0-.8 0-1.37-.23-1.94-.11-.57-.34-1.03-.68-1.37s-.8-.57-1.25-.8c-.57-.11-1.25-.23-2.05-.23h-.68v11.86h.8ZM344.65 183.23v-1.71c0-.57.23-1.14.34-1.71h3.42v1.37c0 .8 0 1.48.11 2.05 0 .57.23 1.14.46 1.48.23.46.57.68.91.91s.8.34 1.37.34c.8 0 1.48-.23 1.94-.68s.68-1.14.68-2.05v-1.25c0-.34-.11-.8-.34-1.14-.11-.34-.34-.8-.57-1.14-.23-.46-.57-.91-1.03-1.37l-4.56-5.48c-.8-1.03-1.48-2.05-1.94-3.19-.46-1.03-.68-2.17-.68-3.42s.11-1.83.46-2.62.68-1.48 1.25-2.05 1.25-1.03 2.05-1.37c.8-.34 1.83-.46 2.85-.46s2.4.23 3.19.57c.91.34 1.6.8 2.05 1.48s.91 1.25 1.03 1.94.34 1.48.34 2.17 0 1.25-.11 1.71c0 .57-.23 1.14-.34 1.71h-3.42v-1.37c0-1.6-.23-2.74-.68-3.54-.46-.8-1.14-1.25-2.17-1.25s-1.48.23-1.83.68c-.34.46-.57 1.03-.57 1.83v1.14c0 .34.11.68.23.91s.23.57.46.8.34.57.57.8l5.13 6.16c.91 1.25 1.6 2.4 2.17 3.54.46 1.14.8 2.28.8 3.54s-.11 1.94-.46 2.85c-.34.8-.8 1.48-1.37 2.17-.57.57-1.37 1.03-2.17 1.37-.8.34-1.83.46-2.85.46s-2.4-.23-3.31-.57-1.6-.8-2.05-1.37-.91-1.25-1.14-1.94c-.23-.68-.34-1.48-.34-2.28h.11Z" class="cls-20"/></g></g></g></g><path d="M239.32 251.17c19.74 15.17 27.72 42.1 17.8 65.94-11.86 28.75-44.83 42.44-73.24 30.57-28.75-11.86-42.44-44.61-30.57-73.36 1.6-3.76 3.54-7.3 5.7-10.5l-5.82-6.62 25.9-6.16-7.64 25.55-4.79-5.48a47.005 47.005 0 0 0-3.99 7.53c-9.7 23.39 1.48 50.2 24.87 59.89 23.39 9.7 50.2-1.48 59.89-24.87 7.87-19.39 1.71-41.18-13.92-53.62l2.62-3.88 3.19-4.68v-.34ZM197 259.38s1.83-2.4 6.84-1.83c6.16.8 5.93 7.42 5.93 7.42v28.52h21.22c12.21 0 7.64 12.32 7.64 12.32l-41.75-.46v-45.98h.11Z" style="fill:url(#linear-gradient-16);stroke-width:0"/><path d="M192.55 248.66h-15.52l.68-3.42 7.64-6.84c.91-.8 1.71-1.6 2.4-2.28.68-.68 1.14-1.25 1.6-1.83.46-.57.68-1.03.8-1.48.23-.46.23-.91.23-1.37 0-.8-.23-1.37-.68-1.83s-1.03-.68-1.83-.68-1.03 0-1.48.23-1.03.46-1.6.8-1.14.8-1.83 1.37l-2.4-3.31c1.14-.91 2.28-1.71 3.65-2.4 1.37-.68 2.74-.91 4.45-.91s2.85.23 3.76.8 1.71 1.25 2.17 2.17c.46.91.68 1.83.68 2.74s-.34 2.62-.91 3.76c-.57 1.14-1.37 2.17-2.51 3.19-1.03 1.03-2.17 2.05-3.54 3.19l-4.34 3.54c0 .11 9.13.11 9.13.11l-.91 4.22.34.23ZM213.77 225.16h-5.02l-12.43 14.83-.8 3.76h9.47l-1.03 4.91h4.68l1.03-4.91h2.74l.8-3.88h-2.74l3.08-14.83h.23v.11Zm-6.05 7.19c-.11.57-.34 1.14-.46 1.83-.11.68-.34 1.25-.46 1.83l-.91 3.99h-5.02l5.02-5.93c.34-.46.8-.91 1.14-1.48s.68-1.03.91-1.37h.23c0 .23-.23.68-.34 1.25h-.11v-.11ZM221.18 241.25c.23-1.25.68-2.4 1.03-3.54.46-1.03.91-1.94 1.48-2.51.57-.57 1.25-.91 1.94-.91s1.03.11 1.25.46c.34.34.46.8.46 1.48v.91c0 .34 0 .68-.23 1.03l-2.17 10.5h4.79l2.17-10.27c.11-.57.23-1.03.23-1.6v-1.37c0-1.03-.23-1.94-.57-2.74s-.91-1.37-1.6-1.83c-.68-.46-1.6-.68-2.62-.68s-1.37 0-1.94.34c-.57.23-1.14.57-1.71.91-.46.46-1.03.91-1.37 1.48h-.11c.11-.46.34-.91.46-1.6.23-.57.34-1.25.57-1.83.11-.57.34-1.14.34-1.71l.91-4.34h-4.79l-5.36 24.98h4.79l1.6-7.42.46.23Z" class="cls-22"/></g></g></svg>