<svg xmlns="http://www.w3.org/2000/svg" viewBox="0 0 440 420"><defs><style>.cls-1{fill:none;stroke:#fff;stroke-miterlimit:10;stroke-width:1.1px}.cls-2{fill:#fff}</style></defs><g id="Layer_1"><g id="Layer_1-2" data-name="Layer_1"><path d="M119.9 317.4h9.8v26.9h11.6v-26.9h9.8v64h-9.8v-29.7h-11.6v29.7h-9.8v-64ZM161.9 317.4h23.8v7.6h-14.1v19.2h10.8v7.6h-10.8v21.9H186v7.6h-24.2v-64ZM193 317.4h9.8v56.4h13.3v7.6h-22.9v-64h-.2ZM222.2 317.4h9.8v56.4h13.3v7.6h-22.9v-64h-.2ZM265.6 382.1c-1.1 0-2.1 0-3.4-.2-1.2 0-2.3-.5-3.6-1.1-1.2-.5-2.3-1.2-3.4-2.3-1.1-.9-2.1-2.3-2.8-3.7-.9-1.6-1.4-3.6-2-5.9-.5-2.3-.7-5.2-.7-8.4v-22.8c0-3.2.2-6 .7-8.4s1.2-4.3 2.1-5.7 1.8-2.8 2.8-3.7 2.3-1.6 3.4-2.1c1.2-.5 2.3-.9 3.6-.9s2.3-.2 3.2-.2 2 0 3.2.2 2.3.4 3.6.9 2.3 1.1 3.4 2.1c1.1.9 2.1 2.1 2.8 3.7s1.6 3.6 2.1 5.9c.5 2.3.7 5.2.7 8.4v22.8c0 3.2-.2 5.9-.7 8.2s-1.2 4.3-2.1 5.9-1.8 2.8-3 3.9c-1.1.9-2.3 1.8-3.4 2.3-1.2.5-2.3.9-3.6 1.1-1.1 0-2.1.2-3.2.2l.2-.2Zm0-7.3c.9 0 1.8 0 2.5-.5.7-.4 1.2-.9 1.8-1.6.5-.9.9-1.8 1.1-3.2.2-1.2.4-3 .4-5v-29.2c0-2.1 0-3.7-.4-5.2-.2-1.4-.5-2.5-1.1-3.4-.5-.9-1.1-1.4-1.8-1.8s-1.6-.5-2.5-.5-1.8 0-2.5.5c-.7.4-1.2.9-1.8 1.8s-.9 2-1.1 3.4-.4 3-.4 5.2v29.2c0 2 0 3.7.4 5s.5 2.3 1.1 3.2c.5.9 1.1 1.4 1.8 1.6.7.4 1.6.5 2.5.5ZM292.2 374.8c0-2.7.5-4.4 1.6-5.7 1.1-1.1 2.5-1.8 4.3-1.8s3.4.5 4.3 1.8c1.1 1.2 1.6 3 1.6 5.5s-.5 4.1-1.6 5.3-2.5 2-4.4 2-3.2-.5-4.3-1.8-1.6-3-1.6-5.3h.2Zm.6-61.3h10.3l-1.2 47.3h-7.8l-1.2-47.3Z" class="cls-2"/><g id="Account_Symbol_Wave"><path d="M315.1 129.5c-12.6 27.7-17.1 74.2-50.9 54.8-15.1-10.1-32.2-16.7-54.8-16.7h-27.7c-22.2 0-39.5 6.6-54.8 16.7-15.5 12.1-24.7 28.3-24.7 50.7l-.5 76.7c3.9-2 5.5-4.1 9.2-6.4 15.5-12.1 24.7-28.3 24.7-50.7v-16.5c0-36.5 33.1-42 46.2-42h27.7c56.2.9 37.2 21 80.4 25.1 8.5 0 15.3-.4 24.4-6.4 12.1-8 20.6-21 24.2-36.8 3-14.6-13.5-34.1-23.5-48.4Z" class="cls-2"/><path d="M195.9 157.8c35.2 0 63.8-29.3 63.8-65.4S231.1 27 195.9 27s-63.8 29.5-63.8 65.6 28.6 65.3 63.8 65.3Zm0-102.3c19.9 0 36.3 16.7 36.3 37.2s-16.4 37.2-36.3 37.2-36.3-16.7-36.3-37.2 16.4-37.2 36.3-37.2Z" class="cls-2"/></g><g id="Account_Symbol_Wave-2"><path d="M315.1 129.5c-12.6 27.7-17.1 74.2-50.9 54.8-15.1-10.1-32.2-16.7-54.8-16.7h-27.7c-22.2 0-39.5 6.6-54.8 16.7-15.5 12.1-24.7 28.3-24.7 50.7l-.5 76.7c3.9-2 5.5-4.1 9.2-6.4 15.5-12.1 24.7-28.3 24.7-50.7v-16.5c0-36.5 33.1-42 46.2-42h27.7c56.2.9 37.2 21 80.4 25.1 8.5 0 15.3-.4 24.4-6.4 12.1-8 20.6-21 24.2-36.8 3-14.6-13.5-34.1-23.5-48.4Z" class="cls-2"/><path d="M195.9 157.8c35.2 0 63.8-29.3 63.8-65.4S231.1 27 195.9 27s-63.8 29.5-63.8 65.6 28.6 65.3 63.8 65.3Zm0-102.3c19.9 0 36.3 16.7 36.3 37.2s-16.4 37.2-36.3 37.2-36.3-16.7-36.3-37.2 16.4-37.2 36.3-37.2Z" class="cls-2"/></g></g><path d="M321.1 231.3s11.2 27.6 12.2 62.7M333.3 213.6s9.5 26.3 12.9 71.4M346.1 199.7s12.3 40.2 11.7 80.4" class="cls-1"/></g></svg>