<svg xmlns="http://www.w3.org/2000/svg" xmlns:xlink="http://www.w3.org/1999/xlink" viewBox="0 0 423 442.02"><defs><linearGradient id="linear-gradient" x1="211.57" x2="211.57" y1="23.26" y2="381.01" gradientUnits="userSpaceOnUse"><stop offset=".03" stop-color="#263042"/><stop offset=".33" stop-color="#233755"/><stop offset=".56" stop-color="#213e67"/><stop offset=".8" stop-color="#1175b2"/><stop offset=".97" stop-color="#069ae5"/></linearGradient><linearGradient id="linear-gradient-2" x1="117.26" x2="304.14" y1="100.36" y2="100.36" gradientUnits="userSpaceOnUse"><stop offset=".27" stop-color="#1688c9"/><stop offset=".67" stop-color="#28a1db"/><stop offset=".77" stop-color="#2ea8e0"/></linearGradient><linearGradient id="linear-gradient-3" x1="211.32" x2="211.32" y1="438.37" y2="293.88" gradientUnits="userSpaceOnUse"><stop offset=".07" stop-color="#1688c9"/><stop offset=".86" stop-color="#229fd9"/><stop offset=".96" stop-color="#29a4dd"/><stop offset="1" stop-color="#2ea8e0"/></linearGradient><linearGradient id="linear-gradient-4" x1="117.32" x2="305.31" y1="370.23" y2="370.23" gradientUnits="userSpaceOnUse"><stop offset=".25" stop-color="#263042"/><stop offset=".69" stop-color="#223755"/><stop offset="1" stop-color="#203e67"/></linearGradient><linearGradient xlink:href="#linear-gradient-3" id="linear-gradient-5" x1="117.32" x2="201.05" y1="370.23" y2="370.23"/><linearGradient id="linear-gradient-6" x1="219.75" x2="289.4" y1="406.54" y2="336.88" gradientUnits="userSpaceOnUse"><stop offset=".27" stop-color="#1688c9"/><stop offset=".64" stop-color="#229fd9"/><stop offset=".77" stop-color="#2ea8e0"/></linearGradient><linearGradient xlink:href="#linear-gradient-4" id="linear-gradient-7" x1="125.52" x2="186.3" y1="395.75" y2="334.97"/><linearGradient xlink:href="#linear-gradient-4" id="linear-gradient-8" x1="252.19" x2="168.54" y1="332.88" y2="278.76"/><linearGradient xlink:href="#linear-gradient-4" id="linear-gradient-9" x1="175.64" x2="238.07" y1="336.46" y2="274.03"/><linearGradient id="linear-gradient-10" x1="112.66" x2="266.32" y1="408.41" y2="408.41" gradientUnits="userSpaceOnUse"><stop offset="0" stop-color="#2c2c2c"/><stop offset=".53"/><stop offset=".73" stop-color="#0f0f0f"/><stop offset="1" stop-color="#2c2c2c"/></linearGradient><linearGradient xlink:href="#linear-gradient-10" id="linear-gradient-11" x2="292.97" y1="341.66" y2="341.66"/><linearGradient xlink:href="#linear-gradient-10" id="linear-gradient-12" x2="309.96" y1="356.72" y2="356.72"/><linearGradient xlink:href="#linear-gradient-10" id="linear-gradient-13" x2="309.85" y1="369.26" y2="369.26"/><linearGradient xlink:href="#linear-gradient-10" id="linear-gradient-14" x2="231.5" y1="314.34" y2="314.34"/><linearGradient xlink:href="#linear-gradient-10" id="linear-gradient-15" x1="283.69" x2="309.41" y1="406" y2="406"/><linearGradient xlink:href="#linear-gradient-10" id="linear-gradient-16" x2="309.71" y1="384.16" y2="384.16"/><linearGradient xlink:href="#linear-gradient-10" id="linear-gradient-17" x2="305.65" y1="349.61" y2="349.61"/><linearGradient xlink:href="#linear-gradient-10" id="linear-gradient-18" x2="216.48" y1="420.07" y2="420.07"/><linearGradient xlink:href="#linear-gradient-10" id="linear-gradient-19" x1="129.81" x2="199.82" y1="427.97" y2="427.97"/><linearGradient xlink:href="#linear-gradient-10" id="linear-gradient-20" x2="134.41" y1="298.64" y2="298.64"/><linearGradient xlink:href="#linear-gradient-10" id="linear-gradient-21" x2="276.9" y1="334.21" y2="334.21"/><linearGradient xlink:href="#linear-gradient-10" id="linear-gradient-22" x2="235.2" y1="413.86" y2="413.86"/><linearGradient xlink:href="#linear-gradient-10" id="linear-gradient-23" x2="257.15" y1="327" y2="327"/><linearGradient xlink:href="#linear-gradient-10" id="linear-gradient-24" x2="197.19" y1="305.62" y2="305.62"/><linearGradient id="linear-gradient-25" x1="212.66" x2="267.84" y1="283.04" y2="283.04" gradientUnits="userSpaceOnUse"><stop offset=".61" stop-color="#263042"/><stop offset="1" stop-color="#233755"/></linearGradient><linearGradient id="linear-gradient-26" x1="3364.25" x2="3434.1" y1="272.64" y2="272.64" gradientTransform="matrix(-1 0 0 1 3587.1 0)" gradientUnits="userSpaceOnUse"><stop offset=".54" stop-color="#263042"/><stop offset=".81" stop-color="#233755"/><stop offset="1" stop-color="#213e67"/></linearGradient><linearGradient xlink:href="#linear-gradient-6" id="linear-gradient-27" x1="3361.29" x2="3437.19" y1="278.37" y2="278.37" gradientTransform="matrix(-1 0 0 1 3587.1 0)"/><linearGradient xlink:href="#linear-gradient-6" id="linear-gradient-28" x1="205.44" x2="265.21" y1="278.13" y2="278.13"/><clipPath id="clippath"><rect width="371.34" height="357.75" x="25.91" y="23.26" class="cls-2" rx="8.47" ry="8.47"/></clipPath><clipPath id="clippath-1"><path d="m117.32 302.09 94.41-8.21 93.58 14.78-.82 113.29-105.35 16.42-81.82-32.84V302.09z" class="cls-2"/></clipPath><filter id="drop-shadow-1" filterUnits="userSpaceOnUse"><feOffset dy="2.82"/><feGaussianBlur result="blur" stdDeviation="8.47"/><feFlood flood-color="#000" flood-opacity=".2"/><feComposite in2="blur" operator="in"/><feComposite in="SourceGraphic"/></filter><style>.cls-16,.cls-2{stroke-width:0}.cls-2{fill:none}.cls-16{fill:#fff}</style></defs><g style="isolation:isolate"><g id="Layer_1"><rect width="371.34" height="357.75" x="25.91" y="23.26" rx="8.47" ry="8.47" style="fill:url(#linear-gradient);filter:url(#drop-shadow-1);stroke-width:0"/><path d="M117.26 67.51h9.96v27.51h11.81V67.51h9.96v65.71h-9.96v-30.35h-11.81v30.35h-9.96V67.51Zm50.28 0H179l12.16 65.71h-10.08l-1.81-11.77h-12l-1.73 11.77h-10.12l12.12-65.71Zm10.58 46.43L173.5 81.2h-.42l-4.65 32.74h9.69Zm19.38-46.43h9.96c1.26 0 2.64.06 4.14.17 1.5.12 3 .38 4.5.81 1.5.42 2.95 1.07 4.35 1.94 1.4.87 2.63 2.06 3.71 3.56s1.94 3.38 2.6 5.64.98 5 .98 8.23v2.31c0 3.51-.3 6.52-.91 9.02-.6 2.5-1.4 4.6-2.4 6.31s-2.16 3.07-3.48 4.1c-1.32 1.02-2.69 1.8-4.12 2.33-1.42.53-2.86.87-4.31 1.04-1.45.17-2.82.25-4.1.25h-.96v20h-9.96V67.51Zm10.47 38.39c1.8 0 3.31-.26 4.54-.79s2.21-1.35 2.94-2.46 1.26-2.55 1.58-4.31c.32-1.76.48-3.87.48-6.33v-5.92c0-1.95-.14-3.64-.42-5.06-.28-1.42-.79-2.6-1.52-3.52-.73-.92-1.71-1.61-2.94-2.06-1.23-.45-2.78-.67-4.66-.67h-.5v31.12h.5Zm27.31-38.39h9.96c1.26 0 2.64.06 4.14.17 1.5.12 3 .38 4.5.81 1.5.42 2.95 1.07 4.35 1.94 1.4.87 2.63 2.06 3.71 3.56s1.94 3.38 2.6 5.64.98 5 .98 8.23v2.31c0 3.51-.3 6.52-.91 9.02-.6 2.5-1.4 4.6-2.4 6.31s-2.16 3.07-3.48 4.1c-1.32 1.02-2.69 1.8-4.12 2.33-1.42.53-2.86.87-4.31 1.04-1.45.17-2.82.25-4.1.25h-.96v20h-9.96V67.51Zm10.46 38.39c1.8 0 3.31-.26 4.54-.79a6.54 6.54 0 0 0 2.94-2.46c.73-1.12 1.26-2.55 1.58-4.31.32-1.76.48-3.87.48-6.33v-5.92c0-1.95-.14-3.64-.42-5.06-.28-1.42-.79-2.6-1.52-3.52-.73-.92-1.71-1.61-2.94-2.06-1.23-.45-2.78-.67-4.66-.67h-.5v31.12h.5Zm35.13 5.43-13.23-43.82h10.04l8.04 31.43h.46l7.96-31.43h10l-13.31 43.82v21.89h-9.96v-21.89Z" style="fill:url(#linear-gradient-2);stroke-width:0"/><path d="m130.89 173.59-3.41-8.86h-10.53l-3.48 8.86h-1.8l9.86-25.15h1.61l9.6 25.15h-1.85Zm-3.98-10.45-3.46-9.39c-.09-.24-.2-.55-.33-.93s-.27-.78-.41-1.2c-.14-.42-.28-.82-.42-1.2-.12.4-.24.8-.38 1.2-.14.4-.27.79-.39 1.16-.13.37-.25.71-.36 1l-3.6 9.36h9.36ZM152.2 149.77c-1.6 0-3.03.27-4.29.81a8.711 8.711 0 0 0-3.19 2.31c-.87.99-1.53 2.18-1.99 3.56-.46 1.38-.69 2.89-.69 4.55 0 2.29.36 4.28 1.08 5.99.72 1.71 1.8 3.03 3.25 3.97 1.45.94 3.25 1.41 5.41 1.41 1.26 0 2.4-.09 3.43-.28 1.03-.19 1.98-.43 2.86-.73v1.54c-.83.31-1.77.56-2.82.75-1.05.19-2.26.29-3.64.29-2.5 0-4.6-.54-6.3-1.61s-2.97-2.58-3.83-4.53c-.86-1.94-1.29-4.21-1.29-6.81 0-1.86.27-3.57.81-5.13s1.32-2.91 2.36-4.06 2.29-2.04 3.78-2.67c1.49-.63 3.18-.95 5.08-.95 1.2 0 2.35.12 3.44.35 1.09.23 2.12.57 3.08 1.02l-.69 1.54c-.93-.46-1.87-.79-2.85-1-.97-.21-1.97-.32-3-.32ZM179.26 149.77c-1.6 0-3.03.27-4.29.81a8.711 8.711 0 0 0-3.19 2.31c-.87.99-1.53 2.18-1.99 3.56-.46 1.38-.69 2.89-.69 4.55 0 2.29.36 4.28 1.08 5.99.72 1.71 1.8 3.03 3.25 3.97 1.45.94 3.25 1.41 5.41 1.41 1.26 0 2.4-.09 3.43-.28 1.03-.19 1.98-.43 2.86-.73v1.54c-.83.31-1.77.56-2.82.75-1.05.19-2.26.29-3.64.29-2.5 0-4.6-.54-6.3-1.61s-2.97-2.58-3.83-4.53c-.86-1.94-1.29-4.21-1.29-6.81 0-1.86.27-3.57.81-5.13s1.32-2.91 2.36-4.06 2.29-2.04 3.78-2.67c1.49-.63 3.18-.95 5.08-.95 1.2 0 2.35.12 3.44.35 1.09.23 2.12.57 3.08 1.02l-.69 1.54c-.93-.46-1.87-.79-2.85-1-.97-.21-1.97-.32-3-.32ZM216.76 161.03c0 1.91-.23 3.65-.7 5.23-.47 1.58-1.17 2.94-2.11 4.08a9.575 9.575 0 0 1-3.51 2.66c-1.4.63-3.03.94-4.89.94s-3.51-.31-4.92-.94c-1.41-.63-2.58-1.52-3.51-2.67-.93-1.15-1.63-2.51-2.1-4.1s-.7-3.33-.7-5.24c0-2.54.43-4.77 1.29-6.7.86-1.93 2.14-3.44 3.82-4.53 1.69-1.09 3.77-1.63 6.25-1.63s4.39.52 6.04 1.55c1.65 1.03 2.9 2.51 3.75 4.44s1.28 4.23 1.28 6.9Zm-20.59-.02c0 2.24.34 4.21 1.01 5.92s1.71 3.04 3.1 4c1.39.96 3.15 1.44 5.28 1.44s3.91-.47 5.3-1.42c1.38-.95 2.41-2.27 3.07-3.98.66-1.7 1-3.69 1-5.95 0-3.58-.78-6.35-2.34-8.33-1.56-1.98-3.86-2.97-6.9-2.97-2.14 0-3.91.47-5.32 1.42-1.41.95-2.46 2.27-3.15 3.96s-1.04 3.66-1.04 5.9ZM246.23 148.53v16.22c0 1.95-.38 3.61-1.13 4.98-.75 1.37-1.84 2.41-3.25 3.13-1.41.72-3.1 1.08-5.07 1.08-2.98 0-5.27-.81-6.87-2.43-1.6-1.62-2.4-3.89-2.4-6.83v-16.15h1.75v16.15c0 2.51.65 4.43 1.96 5.74 1.31 1.31 3.19 1.96 5.65 1.96 1.61 0 2.98-.29 4.11-.87a5.94 5.94 0 0 0 2.59-2.54c.59-1.11.89-2.47.89-4.05v-16.39h1.77ZM276.53 173.59h-1.8l-14.81-22.17h-.09l.06 1.88c.02.63.03 1.29.05 1.95.02.67.03 1.36.03 2.07v16.27h-1.68v-25.06h1.82l14.76 22.1h.09c-.01-.5-.03-1.09-.04-1.75-.02-.66-.03-1.34-.05-2.04-.02-.7-.03-1.35-.03-1.97v-16.34h1.7v25.06ZM295.42 173.59h-1.78v-23.47h-8.13v-1.59h18.03v1.59h-8.13v23.47Z" class="cls-16"/><g style="clip-path:url(#clippath)"><path d="m117.32 302.09 94.41-8.21 93.58 14.78-.82 113.29-105.35 16.42-81.82-32.84V302.09z" style="fill:url(#linear-gradient-3);stroke-width:0"/><path d="m201.05 320.15-83.73-18.06v103.44l81.82 32.84 105.35-16.42.82-113.29-104.26 11.49z" style="fill:url(#linear-gradient-4);stroke-width:0"/><path d="m201.05 320.15-83.73-18.06v103.44l81.82 32.84 1.91-118.22z" style="fill:url(#linear-gradient-5);opacity:.82;stroke-width:0"/><path d="m201.05 320.15-83.73-18.06v103.44l81.82 32.84 105.35-16.42.82-113.29-104.26 11.49z" class="cls-2"/><path d="m201.05 320.15-83.73-18.06 94.41-8.21 93.58 14.78-104.26 11.49z" class="cls-2"/><path d="m244.2 430.99-.01-115.55 21.04-2.72-.66 115.64-20.37 2.63z" style="fill:url(#linear-gradient-6);stroke-width:0"/><path d="M147.61 308.43v109.42l15.12 5.91 1.31-111.04-16.43-4.29z" style="fill:url(#linear-gradient-7);stroke-width:0"/><path d="m244.19 315.44-88.7-16.52s20.35-2.29 22.32-1.63 87.41 15.43 87.41 15.43l-21.04 2.72Z" style="fill:url(#linear-gradient-8);stroke-width:0"/><path d="m147.61 308.43 98.59-9.85 19.9 3.48-102.06 10.66-16.43-4.29z" style="fill:url(#linear-gradient-9);stroke-width:0"/><g style="clip-path:url(#clippath-1)"><g style="mix-blend-mode:overlay;opacity:.7"><path d="M178.79 410.62c21.26 9.13 43.18 18.52 65.92 23.92l21.57-3.36c-3.66 0-7.56-.25-11.74-.78-2.6-.33-5.34-.77-8.14-1.31-17.78-3.42-33.03-8.3-48.41-14.95-2.93-1.27-5.96-2.58-8.94-3.83-18.98-8-36.21-14.6-52.69-20.19-8.17-2.77-15.96-5.37-23.41-7.76v3.81c8.34 2.43 17.07 5.24 26.26 8.47 13.2 4.64 26.62 10.4 39.59 15.97Z" style="stroke:url(#linear-gradient-10);stroke-miterlimit:10;stroke-width:.55px;fill:none"/><path d="M270.53 314.93c-5.98 7-10.51 14.93-13.86 24.25-.91 2.54-1.52 5.22-2.16 8.07-2.07 9.16-4.22 18.63-16.84 23.52-10.02 3.89-23.51 4.79-40.09 2.68-21.49-2.73-44.78-10.03-61.79-15.36l-1.83-.57c-6.51-2.04-13.57-4.19-21.03-6.34v2.93c9.11 2.65 18.06 5.42 26.81 8.21 1.61.51 3.31 1.06 5.09 1.63 16.79 5.4 42.16 13.56 64.09 16.35 15.02 1.91 26.63 1.06 34.52-2.53 10.93-4.97 13.18-13.54 15.36-21.82.48-1.84.98-3.73 1.57-5.54 3.46-10.7 7.27-19.06 12-26.3 5.15-7.9 11.85-14.91 19.93-20.88l-7.56-1.19c-5.46 3.93-10.21 8.23-14.19 12.89Z" style="stroke:url(#linear-gradient-11);stroke-miterlimit:10;stroke-width:.55px;fill:none"/><path d="M282.75 343.89c-1.57 4.12-2.55 9.23-3.59 14.64-1.54 8.03-3.29 17.13-7.42 24.66-4.77 8.72-12.02 14.06-22.17 16.35-5.47 1.23-11.79 1.36-19.32.41-12.16-1.55-25.14-5.73-35.56-9.1-.92-.3-1.83-.59-2.72-.87-9.39-3.01-18.86-6.17-28.03-9.22-9.2-3.06-18.72-6.23-28.14-9.25-7.5-2.4-15.13-4.79-22.86-7.09v2.62c8.25 2.44 16.24 4.96 23.82 7.42 13.21 4.28 26.47 8.88 39.29 13.31 5.41 1.87 11 3.81 16.51 5.69 1.09.37 2.2.76 3.33 1.14 11.95 4.12 25.49 8.78 38.56 10.44 5.66.72 10.66.81 15.3.29 26.62-3.02 30.71-23.87 34-40.62.86-4.4 1.68-8.56 2.83-12.07 3.8-11.58 8.72-20.96 15.05-28.65 2.45-2.98 5.11-5.72 8-8.25l.06-7.69c-12.23 8.77-21.14 20.62-26.93 35.84Z" style="stroke:url(#linear-gradient-12);stroke-miterlimit:10;stroke-width:.55px;fill:none"/><path d="M289.22 367.55c-1.94 9.65-4.15 20.59-10.46 29.02-7.43 9.91-19.07 14.28-35.59 13.35-2.11-.12-4.3-.32-6.51-.6-15.31-1.95-30.79-7.57-44.45-12.52-2.47-.9-4.81-1.75-7.15-2.58l-2.62-.93c-17.24-6.12-35.07-12.45-52.96-18.15-5.16-1.64-10.71-3.37-16.54-5.1v2.31c7.21 2.13 14.03 4.28 20.26 6.31 18.88 6.15 37.53 13.03 54.88 19.55 2.32.87 4.71 1.79 7.02 2.67 15.01 5.75 30.52 11.69 46.74 13.75 1.26.16 2.52.3 3.75.4 17.43 1.53 29.61-2.4 37.25-12 6.68-8.39 8.82-19.63 10.71-29.54.63-3.31 1.23-6.43 1.95-9.23 2.76-10.64 6.65-21.89 14.01-31.95l.06-8.71c-9.73 10.55-14.61 22.6-17.84 33.16-.96 3.14-1.71 6.86-2.5 10.79Z" style="stroke:url(#linear-gradient-13);stroke-miterlimit:10;stroke-width:.55px;fill:none"/><path d="M122.81 324.65c-3.16-.4-6.47-.89-9.88-1.44v7.15c2.47.56 4.92 1.13 7.31 1.68 9.03 2.1 17.6 3.67 25.46 4.67 28.64 3.64 49.82-.05 62.96-10.96 5.25-4.37 7.65-9.8 9.97-15.05 2.13-4.82 4.33-9.8 8.72-14.08 1.08-1.05 2.25-2.08 3.49-3.09l-18.37-2.9c-2.45 2.72-4.33 5.62-6.26 8.62-2.52 3.9-5.12 7.94-9.2 11.61-8.09 7.28-18.92 12.04-32.17 14.14-11.78 1.87-25.53 1.76-42.04-.34Z" style="stroke-miterlimit:10;stroke-width:.55px;stroke:url(#linear-gradient-14);fill:none"/><path d="M305.6 425.06c.21-.29.44-.56.64-.86 1-1.48 1.87-3.01 2.64-4.58l.26-36.3-.18 1.05c-.16.96-.33 1.93-.49 2.91-1.8 10.75-3.83 22.94-11.06 31.72-3.54 4.3-8.07 7.44-13.62 9.46l21.82-3.4Z" style="stroke:url(#linear-gradient-15);stroke-miterlimit:10;stroke-width:.55px;fill:none"/><path d="M187.09 405.47c3.33 1.36 6.71 2.79 9.97 4.17 14.69 6.2 29.38 11.12 46.09 14.42 2.88.57 5.69 1.03 8.34 1.37 42.77 5.44 47.53-20.6 51.36-41.53.22-1.21.44-2.4.66-3.56 1.49-7.85 3.06-16.09 5.82-24.12l.1-13.19c-4.22 8.05-6.83 16.71-8.87 25.35-.64 2.71-1.17 5.69-1.73 8.83-1.78 10.06-3.81 21.47-10.58 30-7.94 10-20.9 14.09-39.61 12.51-1.39-.12-2.81-.27-4.23-.45-17.29-2.2-33.41-8.55-48.99-14.7-2-.79-3.99-1.57-5.96-2.34-14.7-5.72-34.13-13.13-54.03-19.74-6.88-2.29-14.45-4.72-22.49-7.11v3.48c6.61 2.06 13.48 4.28 20.66 6.65 16.5 5.45 34 11.98 53.5 19.96Z" style="stroke:url(#linear-gradient-16);stroke-miterlimit:10;stroke-width:.55px;fill:none"/><path d="M276.31 329.41c-5.05 8.88-8.29 18.22-11.04 27-.46 1.46-.87 2.98-1.28 4.44-2.45 8.92-4.99 18.15-17.88 23.15-7.66 2.97-18.37 3.61-31.84 1.89-21.9-2.78-47.25-11.17-65.76-17.3-3.77-1.25-7.33-2.43-10.48-3.43-8.21-2.62-16.59-5.22-25.1-7.71v3.42c8.33 2.47 16.4 5 24.1 7.46 5.19 1.66 10.45 3.36 15.54 5.01 13.21 4.28 26.87 8.7 40.5 12.73l1.84.54c9.49 2.81 21.3 6.32 32.29 7.71 8.21 1.04 14.84.8 20.28-.73 15.22-4.29 18.07-14.36 20.82-24.09.22-.78.44-1.55.67-2.32.48-1.63.95-3.26 1.41-4.9 2.27-7.89 4.61-16.05 7.98-23.84 5.99-13.87 14.78-24.86 26.59-33.2l-5.96-.94c-9.46 6.84-17.05 15.23-22.68 25.12Z" style="stroke:url(#linear-gradient-17);stroke-miterlimit:10;stroke-width:.55px;fill:none"/><path d="M181.01 430.09c8.3 3.5 16.68 7.04 25.18 10.45l9.24-1.44c-11.53-4.47-23.24-9.44-35.21-14.53-22.19-9.43-44.74-18.62-67.28-24.91v5.21c12.26 3.36 25.5 7.86 39.94 13.57 9.37 3.71 18.91 7.74 28.14 11.64Z" style="stroke:url(#linear-gradient-18);stroke-miterlimit:10;stroke-width:.55px;fill:none"/><path d="M179.42 433.61c-8.32-3.5-16.92-7.12-25.38-10.52-8.44-3.4-16.47-6.36-24.12-8.91l68.65 27.55.24-.04c-6.52-2.67-12.98-5.39-19.39-8.09Z" style="stroke:url(#linear-gradient-19);stroke-miterlimit:10;stroke-width:.55px;fill:none"/><path d="M112.94 300.04c6.36-.02 12.39-.56 17.66-2.15.46-.14.93-.29 1.39-.44l-19.06 1.66v.93Z" style="stroke:url(#linear-gradient-20);stroke-miterlimit:10;stroke-width:.55px;fill:none"/><path d="M246.75 321.15c-1.83 3.96-2.49 8.41-3.12 12.71-1.05 7.16-2.14 14.57-8.63 20.19-10.35 8.97-28.91 12.05-53.68 8.9-16-2.03-30.86-6.14-40.51-9.23-8.5-2.72-17.86-5.63-27.88-8.49v2.51c8.98 2.57 17.44 5.16 25.15 7.6 13.81 4.37 34.42 10.47 53.9 12.94 19.22 2.44 34.03.92 44.01-4.53 9.55-5.21 11.27-13.69 12.94-21.88.68-3.34 1.38-6.79 2.61-9.91 3.46-8.74 8.6-16.57 15.28-23.29 2.81-2.82 5.95-5.48 9.38-8l-10.66-1.68c-.48.35-.97.7-1.44 1.06-7.86 6.08-13.7 13.17-17.36 21.08Z" style="stroke:url(#linear-gradient-21);stroke-miterlimit:10;stroke-width:.55px;fill:none"/><path d="m223.79 437.81 10.17-1.58c-20.21-6.03-40.44-14.51-61.6-23.38-19.48-8.17-39.35-16.5-59.42-22.83v4.76c22.66 6.73 45.34 16.27 67.52 25.61 14.89 6.27 29.32 12.34 43.33 17.43Z" style="stroke:url(#linear-gradient-22);stroke-miterlimit:10;stroke-width:.55px;fill:none"/><path d="M233.56 304.39c-3.21 4.06-4.79 8.67-6.31 13.14-2.07 6.06-4.2 12.32-10.46 17.26-12.81 10.12-33.06 13.5-60.19 10.05-9.76-1.24-20.57-3.4-32.11-6.4-3.95-1.03-7.78-2-11.54-2.95v6.3c10.09 2.82 19.79 5.72 28.97 8.56 10.65 3.29 21.84 5.73 32.36 7.07 26.41 3.36 46.34-.48 56.13-10.81 4.92-5.19 5.97-11.73 6.99-18.06.78-4.84 1.59-9.84 4.1-14.3 3.44-6.12 8.49-11.7 15-16.66l-13.65-2.16c-3.66 2.79-6.76 5.79-9.27 8.97Z" style="stroke:url(#linear-gradient-23);stroke-miterlimit:10;stroke-width:.55px;fill:none"/><path d="M112.94 307.76v9.43c1.09.15 2.16.3 3.27.44 10.55 1.34 24.07 2.68 35.09 1.15 15.94-2.22 29.6-10.38 36.46-16.69 3.4-3.13 5.89-6.39 8.3-9.55.18-.23.36-.47.54-.7l-30.35 2.64c-8.11 5.39-17.91 9.81-27.11 12.04-7.69 1.86-16.94 1.85-26.21 1.25Z" style="stroke:url(#linear-gradient-24);stroke-miterlimit:10;stroke-width:.55px;fill:none"/></g></g><path d="M267.7 274.32c.88-4.68-2.5-9.58-2.49-9.56l-5-7.46s1.24 2.37-.66 9c-4.83 16.85-46.88 36.56-46.88 36.56l8.54 5.91s10.17-4.39 20.7-11.17c14.78-9.53 24.16-14.65 25.79-23.28Z" style="fill:url(#linear-gradient-25);fill-rule:evenodd;stroke-width:0"/><path d="M216.1 301.75c-2.05.68-9.26-14.95-11.51-18.43-10.34-16-21.79-25.59-34.23-28.25C158.64 252.57 153 257 153 257l5.85-8.72s4.96-8.41 21.35-2.94c14.04 4.68 26.32 22.15 26.32 22.15s4.79 6.33 7.26 13.41l9.07 20.25" style="fill:url(#linear-gradient-26);fill-rule:evenodd;stroke-width:0"/><path d="M180.23 295.39c12.31 7.93 24.19 13.06 24.19 13.06l21.39-2.08s-60.55-27.87-66.19-47.56c-2.22-7.75-.77-10.52-.77-10.52l-5.85 8.72s-3.94 5.7-2.91 11.17c1.9 10.09 12.86 16.07 30.14 27.21Z" style="fill:url(#linear-gradient-27);fill-rule:evenodd;stroke-width:0"/><path d="m205.44 302.53 7.76-17.33c2.11-6.06 6.22-11.47 6.22-11.47s10.51-14.94 22.52-18.95c14.03-4.68 18.27 2.52 18.27 2.52l5 7.46s-4.83-3.79-14.85-1.65c-10.65 2.27-20.45 10.48-29.29 24.17-1.92 2.97-8.09 16.35-9.85 15.77" style="fill-rule:evenodd;fill:url(#linear-gradient-28);stroke-width:0"/></g><path d="M99.66 190.6h6.54l6.93 37.47h-5.75l-1.03-6.71h-6.84l-.99 6.71h-5.77l6.91-37.47Zm6.03 26.49-2.63-18.67h-.24l-2.65 18.67h5.53ZM116.75 190.6h4.61l9.08 25.08h.13c-.04-.58-.1-1.24-.18-1.95s-.14-1.53-.2-2.45-.11-1.95-.15-3.1-.07-2.46-.07-3.91V190.6h5.09v37.47h-4.65l-9.04-24.42h-.18c.04.66.1 1.37.18 2.14.07.77.14 1.67.2 2.71s.11 2.25.15 3.63.07 3.02.07 4.93v11.01h-5.05V190.6ZM141.47 190.6h4.61l9.08 25.08h.13c-.04-.58-.1-1.24-.18-1.95s-.14-1.53-.2-2.45-.11-1.95-.15-3.1-.07-2.46-.07-3.91V190.6h5.09v37.47h-4.65l-9.04-24.42h-.18c.04.66.1 1.37.18 2.14.07.77.14 1.67.2 2.71s.11 2.25.15 3.63.07 3.02.07 4.93v11.01h-5.05V190.6ZM166.2 190.6h5.68v37.47h-5.68V190.6ZM175.5 190.6h5.81l4.12 29.68h.24l4.15-29.68h5.79l-6.82 37.47h-6.49l-6.8-37.47ZM199.24 190.6h13.89v4.48h-8.21v11.21h6.34v4.48h-6.34v12.83h8.42v4.48h-14.11v-37.47ZM217.45 190.6h6.17c.7 0 1.47.03 2.31.09.84.06 1.68.2 2.52.43s1.65.57 2.44 1.02 1.48 1.07 2.08 1.86c.61.79 1.09 1.78 1.46 2.97.37 1.19.55 2.64.55 4.33v.94c0 2.85-.41 5.17-1.23 6.97s-2.03 3.08-3.62 3.87l6.01 14.99h-6.01l-4.98-14.02h-2.13v14.02h-5.57V190.6Zm6.43 19.36c.99 0 1.83-.11 2.52-.33.69-.22 1.24-.59 1.67-1.11.42-.52.73-1.21.92-2.06.19-.86.29-1.91.29-3.17v-2.96c0-.97-.09-1.8-.26-2.5-.18-.7-.47-1.28-.89-1.73s-.97-.79-1.66-1.01-1.55-.33-2.59-.33h-.86v15.21h.86ZM239 220.49c0-.8.05-1.55.14-2.23.1-.68.24-1.42.43-2.21h4.41v1.82c0 1.01.06 1.9.19 2.68s.33 1.43.61 1.96.67.94 1.14 1.21c.47.27 1.06.41 1.74.41 1.08 0 1.91-.3 2.48-.89.57-.59.86-1.46.86-2.6 0-.58-.04-1.12-.12-1.61-.08-.49-.22-.98-.42-1.46-.2-.48-.46-.99-.8-1.52s-.77-1.13-1.29-1.79l-5.92-7.04c-1.05-1.35-1.87-2.7-2.44-4.07a11.29 11.29 0 0 1-.86-4.38c0-1.24.19-2.38.58-3.42.39-1.04.95-1.93 1.68-2.69.73-.75 1.63-1.34 2.71-1.76s2.29-.62 3.65-.62c1.65 0 3.03.23 4.14.7s1.99 1.08 2.64 1.84 1.12 1.61 1.39 2.56c.27.94.41 1.89.41 2.84 0 .8-.06 1.55-.19 2.23-.12.68-.27 1.43-.43 2.25h-4.39v-1.78c0-1.99-.29-3.51-.86-4.57s-1.5-1.59-2.79-1.59c-1.07 0-1.87.3-2.39.89s-.79 1.39-.79 2.38c0 .53.04 1 .12 1.43.08.42.2.82.35 1.17s.34.71.56 1.04c.22.34.47.69.75 1.05l6.6 7.99c1.2 1.57 2.12 3.07 2.76 4.51.64 1.44.97 2.97.97 4.58 0 1.33-.21 2.53-.63 3.6-.42 1.07-1.01 1.97-1.79 2.72s-1.71 1.32-2.81 1.72c-1.1.4-2.33.6-3.71.6-1.7 0-3.1-.23-4.22-.68s-2.01-1.05-2.68-1.8a6.358 6.358 0 0 1-1.4-2.54c-.27-.95-.41-1.92-.41-2.92ZM265.54 190.6h6.54l6.93 37.47h-5.75l-1.03-6.71h-6.84l-.99 6.71h-5.77l6.91-37.47Zm6.04 26.49-2.63-18.67h-.24l-2.65 18.67h5.53ZM282.64 190.6h6.17c.7 0 1.47.03 2.31.09.84.06 1.68.2 2.52.43s1.65.57 2.44 1.02 1.48 1.07 2.08 1.86c.61.79 1.09 1.78 1.46 2.97.37 1.19.55 2.64.55 4.33v.94c0 2.85-.41 5.17-1.23 6.97s-2.03 3.08-3.62 3.87l6.01 14.99h-6.01l-4.98-14.02h-2.13v14.02h-5.57V190.6Zm6.43 19.36c.99 0 1.83-.11 2.52-.33.69-.22 1.24-.59 1.67-1.11.42-.52.73-1.21.92-2.06.19-.86.29-1.91.29-3.17v-2.96c0-.97-.09-1.8-.26-2.5-.18-.7-.47-1.28-.89-1.73s-.97-.79-1.66-1.01-1.55-.33-2.59-.33h-.86v15.21h.86ZM310.08 215.59l-7.55-24.99h5.73l4.59 17.92h.26l4.54-17.92h5.7l-7.59 24.99v12.48h-5.68v-12.48ZM327.66 224.19c0-1.54.31-2.64.92-3.3.61-.67 1.45-1 2.5-1s1.95.35 2.54 1.05.9 1.79.9 3.25c0 1.33-.3 2.36-.91 3.09-.61.73-1.46 1.1-2.56 1.1-1.04 0-1.86-.35-2.48-1.06-.61-.71-.92-1.75-.92-3.13Zm.37-35.89h5.99l-.68 27.6h-4.54l-.77-27.6Z" class="cls-16"/></g></g></svg>