<svg xmlns="http://www.w3.org/2000/svg" viewBox="0 0 440 420"><path d="M216.7 197.6c40.4 0 73.3-33.6 73.3-75.2s-33.1-75.2-73.3-75.2-73.2 34.3-73.2 75.6c-.3 41.3 32.7 74.8 73.2 74.8Zm0-117.3c22.8 0 41.6 19.2 41.6 42.8s-18.8 42.8-41.6 42.8-41.6-19.2-41.6-42.8c-.4-23.9 18.5-42.8 41.6-42.8Zm106 206.2c0-26.1-10.4-45.1-27.9-59.1-17.3-11.6-36.5-19.6-62-19.6h-31.6c-25.3 0-45.1 7.7-62 19.6-17.3 13.9-27.9 32.8-27.9 59.1l-.8 86.3c4.3-2.4 6.3-4.7 10.4-7.6 17.3-14 27.7-32.8 27.7-59.1l.3-16.3c0-42.7 37.5-48.7 52.1-48.7h31.6c15.1 0 52.1 6.1 52.1 48.7l.3 16.3c0 26.1 10.4 45.1 27.9 59.1 3.9 2.8 5.7 5.3 10.4 7.6l-.7-86.3Z" style="fill:#fff"/></svg>