<svg xmlns="http://www.w3.org/2000/svg" xmlns:xlink="http://www.w3.org/1999/xlink" viewBox="0 0 420 407"><defs><linearGradient id="linear-gradient" x1="21.51" x2="392.84" y1="996.26" y2="996.26" gradientTransform="translate(0 -796)" gradientUnits="userSpaceOnUse"><stop offset=".2" stop-color="#263042"/><stop offset=".7" stop-color="#233755"/><stop offset="1" stop-color="#213e67"/></linearGradient><linearGradient id="linear-gradient-2" x1="21.51" x2="392.84" y1="-269.74" y2="-269.74" gradientTransform="matrix(1 0 0 -1 0 26)" gradientUnits="userSpaceOnUse"><stop offset="0" stop-color="#0389d0"/><stop offset=".9" stop-color="#06acee"/></linearGradient><linearGradient id="linear-gradient-3" x1="15.79" x2="261.59" y1="268.69" y2="268.69" gradientUnits="userSpaceOnUse"><stop offset="0" stop-color="#2c2c2c"/><stop offset=".53"/><stop offset=".73" stop-color="#0f0f0f"/><stop offset="1" stop-color="#2c2c2c"/></linearGradient><linearGradient xlink:href="#linear-gradient-3" id="linear-gradient-4" x2="240.67" y1="261.14" y2="261.14"/><linearGradient xlink:href="#linear-gradient-3" id="linear-gradient-5" x2="281.51" y1="277.14" y2="277.14"/><linearGradient xlink:href="#linear-gradient-3" id="linear-gradient-6" x2="218.05" y1="252.59" y2="252.59"/><linearGradient xlink:href="#linear-gradient-3" id="linear-gradient-7" x1="278.72" x2="396.97" y1="296.1" y2="296.1"/><linearGradient xlink:href="#linear-gradient-3" id="linear-gradient-8" x2="362.13" y1="296.1" y2="296.1"/><linearGradient xlink:href="#linear-gradient-3" id="linear-gradient-9" x2="171.51" y1="232.89" y2="232.89"/><linearGradient xlink:href="#linear-gradient-3" id="linear-gradient-10" x2="120.08" y1="369.47" y2="369.47"/><linearGradient xlink:href="#linear-gradient-3" id="linear-gradient-11" x2="148.39" y1="224.8" y2="224.8"/><linearGradient xlink:href="#linear-gradient-3" id="linear-gradient-12" x1="324.24" x2="396.97" y1="308.48" y2="308.48"/><linearGradient xlink:href="#linear-gradient-3" id="linear-gradient-13" x2="196.42" y1="241.96" y2="241.96"/><linearGradient xlink:href="#linear-gradient-3" id="linear-gradient-14" x2="170.91" y1="362" y2="362"/><linearGradient xlink:href="#linear-gradient-3" id="linear-gradient-15" x2="314.89" y1="286.69" y2="286.69"/><linearGradient id="linear-gradient-16" x1="138.6" x2="207.62" y1="206.6" y2="206.6" gradientUnits="userSpaceOnUse"><stop offset=".07" stop-color="#1688c9"/><stop offset=".86" stop-color="#229fd9"/><stop offset=".96" stop-color="#29a4dd"/><stop offset="1" stop-color="#2ea8e0"/></linearGradient><linearGradient xlink:href="#linear-gradient-16" id="linear-gradient-17" x1="294.09" x2="347.38" y1="245.87" y2="245.87"/><linearGradient xlink:href="#linear-gradient-16" id="linear-gradient-18" x1="297.33" x2="332.43" y1="219.9" y2="219.9"/><linearGradient xlink:href="#linear-gradient-16" id="linear-gradient-19" x1="301.55" x2="338.13" y1="179.94" y2="179.94"/><linearGradient xlink:href="#linear-gradient-16" id="linear-gradient-20" x1="299.7" x2="300.59" y1="198.59" y2="198.59"/><linearGradient xlink:href="#linear-gradient-16" id="linear-gradient-21" x1="303.38" x2="304.27" y1="199.71" y2="199.71"/><linearGradient xlink:href="#linear-gradient-16" id="linear-gradient-22" x1="307.06" x2="307.95" y1="200.35" y2="200.35"/><linearGradient xlink:href="#linear-gradient-16" id="linear-gradient-23" x1="310.74" x2="311.63" y1="200.85" y2="200.85"/><linearGradient xlink:href="#linear-gradient-16" id="linear-gradient-24" x1="314.43" x2="315.31" y1="200.99" y2="200.99"/><linearGradient xlink:href="#linear-gradient-16" id="linear-gradient-25" x1="318.11" x2="318.99" y1="201.18" y2="201.18"/><linearGradient xlink:href="#linear-gradient-16" id="linear-gradient-26" x1="321.79" x2="322.68" y1="201.18" y2="201.18"/><linearGradient xlink:href="#linear-gradient-16" id="linear-gradient-27" x1="325.47" x2="326.36" y1="200.99" y2="200.99"/><linearGradient xlink:href="#linear-gradient-16" id="linear-gradient-28" x1="329.15" x2="330.04" y1="200.85" y2="200.85"/><linearGradient xlink:href="#linear-gradient-16" id="linear-gradient-29" x1="332.83" x2="333.72" y1="200.35" y2="200.35"/><linearGradient xlink:href="#linear-gradient-16" id="linear-gradient-30" x1="336.52" x2="337.4" y1="199.71" y2="199.71"/><linearGradient xlink:href="#linear-gradient-16" id="linear-gradient-31" x1="340.2" x2="341.08" y1="198.59" y2="198.59"/><linearGradient xlink:href="#linear-gradient-16" id="linear-gradient-32" x1="309.65" x2="327.1" y1="159.56" y2="159.56"/><linearGradient xlink:href="#linear-gradient-16" id="linear-gradient-33" x1="227.94" x2="274.68" y1="201.4" y2="201.4"/><linearGradient xlink:href="#linear-gradient-16" id="linear-gradient-34" x1="243.52" x2="257.75" y1="65.07" y2="65.07"/><linearGradient xlink:href="#linear-gradient-16" id="linear-gradient-35" x1="60.19" x2="119.17" y1="253.44" y2="253.44"/><linearGradient xlink:href="#linear-gradient-16" id="linear-gradient-36" x1="61.29" x2="118.3" y1="133.21" y2="133.21"/><linearGradient id="linear-gradient-37" x1="61.74" x2="117.85" y1="127.74" y2="127.74" gradientUnits="userSpaceOnUse"><stop offset="0" stop-color="#1d1d1b"/><stop offset=".06" stop-color="#343432"/><stop offset=".2" stop-color="#6c6c6a"/><stop offset=".33" stop-color="#949493"/><stop offset=".43" stop-color="#adadac"/><stop offset=".49" stop-color="#b7b7b6"/><stop offset=".86" stop-color="#474746"/><stop offset="1" stop-color="#1d1d1b"/></linearGradient><linearGradient xlink:href="#linear-gradient-16" id="linear-gradient-38" x1="61.29" x2="118.3" y1="133.21" y2="133.21"/><linearGradient xlink:href="#linear-gradient-16" id="linear-gradient-39" x1="61.29" x2="118.3" y1="133.21" y2="133.21"/><linearGradient xlink:href="#linear-gradient-16" id="linear-gradient-40" x1="64.33" x2="103.2" y1="162.76" y2="162.76"/><linearGradient xlink:href="#linear-gradient-16" id="linear-gradient-41" x1="69" x2="109.5" y1="123.85" y2="123.85"/><linearGradient xlink:href="#linear-gradient-16" id="linear-gradient-42" x1="65.28" x2="66.16" y1="143.26" y2="143.26"/><linearGradient xlink:href="#linear-gradient-16" id="linear-gradient-43" x1="69.61" x2="70.49" y1="144.32" y2="144.32"/><linearGradient xlink:href="#linear-gradient-16" id="linear-gradient-44" x1="73.94" x2="74.82" y1="144.93" y2="144.93"/><linearGradient xlink:href="#linear-gradient-16" id="linear-gradient-45" x1="78.27" x2="79.15" y1="145.41" y2="145.41"/><linearGradient xlink:href="#linear-gradient-16" id="linear-gradient-46" x1="82.6" x2="83.48" y1="145.54" y2="145.54"/><linearGradient xlink:href="#linear-gradient-16" id="linear-gradient-47" x1="86.93" x2="87.81" y1="145.72" y2="145.72"/><linearGradient xlink:href="#linear-gradient-16" id="linear-gradient-48" x1="91.25" x2="92.14" y1="145.72" y2="145.72"/><linearGradient xlink:href="#linear-gradient-16" id="linear-gradient-49" x1="95.58" x2="96.47" y1="145.54" y2="145.54"/><linearGradient xlink:href="#linear-gradient-16" id="linear-gradient-50" x1="99.91" x2="100.8" y1="145.41" y2="145.41"/><linearGradient xlink:href="#linear-gradient-16" id="linear-gradient-51" x1="104.24" x2="105.13" y1="144.93" y2="144.93"/><linearGradient xlink:href="#linear-gradient-16" id="linear-gradient-52" x1="108.57" x2="109.46" y1="144.32" y2="144.32"/><linearGradient xlink:href="#linear-gradient-16" id="linear-gradient-53" x1="112.9" x2="113.79" y1="143.26" y2="143.26"/><linearGradient xlink:href="#linear-gradient-16" id="linear-gradient-54" x1="84.74" x2="93.35" y1="99.27" y2="99.27"/><linearGradient id="linear-gradient-55" x1="-1624.99" x2="-1624.99" y1="117.01" y2="46.37" gradientTransform="matrix(-1 0 0 1 -1280.34 0)" gradientUnits="userSpaceOnUse"><stop offset=".07" stop-color="#0389d0"/><stop offset=".86" stop-color="#05a2e6"/><stop offset=".97" stop-color="#05a9eb"/><stop offset="1" stop-color="#06acee"/></linearGradient><linearGradient xlink:href="#linear-gradient-3" id="linear-gradient-56" x1="295.21" x2="315.34" y1="78.6" y2="78.6"/><linearGradient xlink:href="#linear-gradient-3" id="linear-gradient-57" x1="296.46" x2="325.65" y1="81.45" y2="81.45"/><linearGradient xlink:href="#linear-gradient-3" id="linear-gradient-58" x1="307.8" x2="335.69" y1="81.69" y2="81.69"/><linearGradient xlink:href="#linear-gradient-3" id="linear-gradient-59" x1="295.21" x2="305.28" y1="74.93" y2="74.93"/><linearGradient xlink:href="#linear-gradient-3" id="linear-gradient-60" x1="326.67" x2="394.1" y1="81.69" y2="81.69"/><linearGradient xlink:href="#linear-gradient-3" id="linear-gradient-61" x1="295.21" x2="297.31" y1="80.48" y2="80.48"/><filter id="drop-shadow-1" filterUnits="userSpaceOnUse"><feOffset dx="3" dy="3"/><feGaussianBlur result="blur" stdDeviation="8"/><feFlood flood-color="#000" flood-opacity=".3"/><feComposite in2="blur" operator="in"/><feComposite in="SourceGraphic"/></filter><filter id="drop-shadow-2" filterUnits="userSpaceOnUse"><feOffset dy="2.51"/><feGaussianBlur result="blur-2" stdDeviation="7.54"/><feFlood flood-color="#000" flood-opacity=".2"/><feComposite in2="blur-2" operator="in"/><feComposite in="SourceGraphic"/></filter><filter id="drop-shadow-3" filterUnits="userSpaceOnUse"><feOffset dy="2.51"/><feGaussianBlur result="blur-3" stdDeviation="7.54"/><feFlood flood-color="#000" flood-opacity=".2"/><feComposite in2="blur-3" operator="in"/><feComposite in="SourceGraphic"/></filter><filter id="luminosity-invert" width="57.01" height="85.29" x="61.29" y="85.32" color-interpolation-filters="sRGB" filterUnits="userSpaceOnUse"><feColorMatrix result="cm" values="-1 0 0 0 1 0 -1 0 0 1 0 0 -1 0 1 0 0 0 1 0"/></filter><clipPath id="clippath"><path d="M383.15 379.14H31.2c-5.36 0-9.7-4.34-9.7-9.7V212.12h371.34v157.32c0 5.36-4.34 9.7-9.7 9.7Z" class="cls-11"/></clipPath><clipPath id="clippath-1"><path d="M296.47 53.43c0-3.67 3-6.67 6.67-6.67h89.71v70.25h-89.71c-3.67 0-6.67-2.6-6.67-6.27V53.42Z" class="cls-11"/></clipPath><style>.cls-11{fill:none}.cls-11,.cls-64,.cls-68{stroke-width:0}.cls-64{fill:#273044}.cls-68{fill:#fff}.cls-72{opacity:.5}</style><mask id="mask" width="57.01" height="85.29" x="61.29" y="85.32" maskUnits="userSpaceOnUse"><g style="filter:url(#luminosity-invert)"><path d="M61.74 164.78s7.41 5.39 29.4 5.39 26.71-5.16 26.71-5.16l-.36-49.83s-.12-1.24-1.2-2.52c-.37-.44-19.1-25.54-19.1-25.54s-.44-1.8-7.18-1.8-7.29 2.02-7.29 2.02-18.52 24.53-19.1 25.01c-.76.62-1.31 1.51-1.31 3.5 0 3.59-.59 48.93-.59 48.93Z" style="fill:url(#linear-gradient-37);stroke-width:0"/></g></mask></defs><g style="isolation:isolate"><g id="Layer_1"><rect width="371.34" height="357.76" x="21.51" y="21.38" rx="9.7" ry="9.7" style="fill:url(#linear-gradient);filter:url(#drop-shadow-1);stroke-width:0"/><path d="M21.51 212.35v157.09c0 5.36 4.34 9.7 9.7 9.7h351.94c5.36 0 9.7-4.34 9.7-9.7V212.35H21.51Z" style="fill:url(#linear-gradient-2);stroke-width:0"/><g class="cls-72" style="clip-path:url(#clippath)"><g style="isolation:isolate;mix-blend-mode:overlay;opacity:.7"><path d="M241.12 233c-1.25 5.25-2.17 11.41-3.19 17.91-2.4 15.97-5.02 34.11-14.72 48.49-11.41 16.88-30.12 24.98-57.27 24.87-3.42 0-7.07-.23-10.72-.46-25.21-1.83-51.11-9.81-73.93-16.77-4.11-1.26-8.1-2.51-11.98-3.65l-4.34-1.26c-16-4.74-32.28-9.58-48.68-14.3v3.87c20.07 5.93 39.74 12.1 58.49 18.08 3.88 1.25 7.87 2.51 11.75 3.76 25.1 8.1 50.99 16.54 77.8 18.6 2.05.11 4.11.34 6.16.34 28.75 1.03 48.37-6.39 60.12-22.82 10.27-14.37 12.78-32.97 15.06-49.4.68-5.48 1.48-10.61 2.4-15.29 2.7-13.16 6.39-26.93 12.73-40.17h-10.27c-4.28 9.65-7.18 19.25-9.42 28.19Z" style="stroke:url(#linear-gradient-3);stroke-miterlimit:10;fill:none"/><path d="M220.58 236.99c-1.94 13.35-3.99 28.41-10.15 41.07-7.07 14.72-18.6 24.07-35.02 28.63-8.9 2.51-19.28 3.19-31.71 2.28-20.08-1.6-41.75-7.3-59.09-11.98-1.6-.46-3.08-.91-4.56-1.26-15.63-4.11-31.49-8.56-46.77-12.78-5.59-1.54-11.26-3.1-16.97-4.66v4.42c12.7 3.61 25.33 7.29 37.73 10.85 9.13 2.62 18.37 5.36 27.61 7.99 1.83.57 3.76 1.03 5.59 1.6 19.96 5.82 42.55 12.32 64.11 13.92 9.35.68 17.57.46 25.1-.8 43.35-7.19 48.37-41.75 52.36-69.48 1.03-7.3 2.05-14.26 3.65-20.08 2.14-7.86 4.63-15.14 7.47-21.91h-11.87c-.99 2.57-1.92 5.19-2.79 7.88-2.28 6.84-3.42 15.29-4.68 24.3Z" style="stroke:url(#linear-gradient-4);stroke-miterlimit:10;fill:none"/><path d="M254.58 265.74c-2.05 16.66-4.45 35.48-14.83 50.08-12.21 17.11-33.08 24.87-63.89 23.84-2.28 0-4.56-.11-6.96-.34-28.52-2.17-55.44-11.18-81.57-19.96-3.31-1.14-6.62-2.17-9.93-3.31-17.26-5.7-38.49-12.64-61.12-19.44v6.09c18.08 5.56 37.07 11.85 57.35 18.94 5.48 2.05 11.18 4.11 16.66 6.05 24.64 8.9 49.06 15.74 76.78 19.74 4.79.8 9.47 1.26 13.8 1.6 70.62 5.36 76.21-37.76 80.77-72.44.23-2.05.57-3.99.8-5.93 2.95-21.54 6.19-44.85 18.2-65.83h-9.63c-7.49 14.72-11.51 30.57-14.38 46.33-.8 4.45-1.37 9.35-2.05 14.6Z" style="stroke:url(#linear-gradient-5);stroke-miterlimit:10;fill:none"/><path d="M169.01 281.37c-12.21 5.59-29.78 7.53-52.02 5.82-32.92-2.39-70.84-12.34-100.7-20.47v5.78c21.34 5.74 43.39 11.57 65.34 16.86l3.08.68c15.86 3.76 35.48 8.56 53.62 9.93 13.58 1.03 24.41.11 33.2-2.85 24.64-8.33 28.52-25.1 32.17-41.3.34-1.25.57-2.62.91-3.88.68-2.62 1.25-5.36 1.94-8.1 3.02-12.86 6.05-26.15 10.78-39.02H207.2c-3.79 10.01-6.62 20.06-9.09 29.67-.57 2.4-1.14 5.02-1.71 7.42-3.31 14.83-6.62 30.23-27.38 39.47Z" style="stroke:url(#linear-gradient-6);stroke-miterlimit:10;fill:none"/><path d="M331.92 322.1c5.36-31.37 11.52-66.85 42.9-92.29 6.55-5.32 13.84-9.64 21.65-13.14v-11.86H385.1c-7.34 3.18-14.23 7.01-20.55 11.65-34.57 25.33-40.61 62.29-45.98 94.92l-.68 4.11c-3.19 19.39-6.84 41.41-19.85 57.5-4.77 5.88-10.54 10.67-17.36 14.4h27.3c.46-.49.91-1 1.35-1.51 13.12-15.06 17.68-35.59 21.45-57.04.34-2.28.8-4.45 1.14-6.73Z" style="stroke:url(#linear-gradient-7);stroke-miterlimit:10;fill:none"/><path d="M288.12 367.62c11.64-13.69 14.15-30 16.54-45.86.34-2.17.68-4.45 1.03-6.62.57-2.97 1.03-6.05 1.48-9.13 5.02-32.63 10.38-66.4 40.84-92.29 3.86-3.28 7.99-6.24 12.35-8.91h-28.21c-27.77 25.18-32.47 57.65-36.96 89.11-.23 2.17-.57 4.45-.91 6.62-.34 2.4-.68 4.68-1.03 7.07-2.17 15.4-4.34 31.26-14.26 45.06-13.23 18.37-39.7 26.47-76.66 23.73-6.96-.57-14.26-1.48-21.79-2.74-42.78-7.3-85.45-22.59-130.51-38.9-11.18-4.02-22.43-8.07-33.74-12.01v7.09c15.98 5.44 31.89 11.2 47.65 16.9 44.38 16.09 86.25 31.26 125.72 38.22 5.63 1.05 11.09 1.83 16.39 2.42h41.5c17.97-2.63 31.56-9.21 40.56-19.76Z" style="stroke-miterlimit:10;fill:none;stroke:url(#linear-gradient-8)"/><path d="M60.75 252.74c-15.93-1.24-31.26-3.73-44.46-6.44v3.96c19.16 4.32 41.17 8.44 62.26 10.01 31.71 2.4 55.9-1.26 71.76-11.07 15.29-9.35 17.34-23.39 19.39-36.96.36-2.45.74-4.94 1.21-7.42h-10.97c-1.14 10.2-3.22 20.36-11.91 28.76-16.2 15.63-46.43 22.25-87.27 19.17Z" style="stroke:url(#linear-gradient-9);stroke-miterlimit:10;fill:none"/><path d="M63.6 368.53c-14.03-5.13-28.41-10.27-42.55-15.17-1.6-.55-3.18-1.07-4.76-1.61v35.63h100.72c-18.09-6.05-35.86-12.48-53.41-18.85Z" style="stroke:url(#linear-gradient-10);stroke-miterlimit:10;fill:none"/><path d="M48.66 244.07c43.58 3.31 75.98-4.68 91.15-22.47 4.38-5.1 6.62-10.84 7.95-16.78H16.29v35.04c10.93 2.02 21.88 3.46 32.37 4.22Z" style="stroke:url(#linear-gradient-11);stroke-miterlimit:10;fill:none"/><path d="M384.74 238.36c-29.09 24.87-34.91 57.84-40.61 89.78-.46 2.85-1.03 5.59-1.48 8.33-3.26 17.78-7.39 36.15-17.47 50.91h71.29V229.97c-4.13 2.47-8.06 5.25-11.72 8.39Z" style="stroke:url(#linear-gradient-12);stroke-miterlimit:10;fill:none"/><path d="M153.73 260.38c-16.09 7.19-38.1 9.81-65.48 7.76-23.86-1.76-49.27-6.88-71.95-12.27v5.22c26.85 6.96 61.17 15.15 91.23 17.42 24.76 1.83 43.69-.57 56.36-7.07 17.57-9.13 20.53-23.27 23.39-37.08.57-3.08 1.25-6.27 2.05-9.24 1.98-7.37 4.09-14.09 6.38-20.32h-12.79c-.22.69-.46 1.36-.66 2.06-1.25 4.34-2.05 8.78-2.85 13.46-2.62 15.29-5.36 30.92-25.67 40.04Z" style="stroke:url(#linear-gradient-13);stroke-miterlimit:10;fill:none"/><path d="M65.77 362.6c23.53 8.53 47.41 17.21 71.88 24.78h29.19c-33.35-8.32-67.5-20.83-103.01-33.8-15.76-5.77-31.63-11.47-47.54-16.76v8.22c.79.26 1.57.52 2.36.78 15.63 5.36 31.6 11.18 47.12 16.77Z" style="stroke:url(#linear-gradient-14);stroke-miterlimit:10;fill:none"/><path d="M181.56 366.36c5.02.8 10.04 1.37 14.83 1.71 36.62 2.74 62.29-6.16 74.04-25.67 8.21-13.46 10.04-28.75 11.86-43.58.34-2.62.68-5.25 1.03-7.76l.46-2.97c3.98-29.07 8.05-58.91 29.99-83.29h-21.54c-14.47 22.45-17.59 48.37-20.43 72.11-.23 1.6-.34 3.19-.57 4.79-2.05 17.8-4.34 37.88-15.52 52.93-13.01 17.57-35.71 24.87-69.36 22.36-4.34-.34-8.78-.8-13.46-1.48-29.43-4.11-54.87-10.84-80.66-20.42-4.91-1.94-9.93-3.76-14.94-5.59-21.49-7.89-41.67-14.72-61-20.72v6.14c14.75 4.98 29.53 10.45 44 15.83 39.13 14.49 79.63 29.43 121.27 35.59Z" style="stroke:url(#linear-gradient-15);stroke-miterlimit:10;fill:none"/></g></g><path d="M207.18 150.21c0-.52-.32-.96-.67-1.32.03-.1.05-.2.07-.3 0-.03 0-.06.01-.08.02-.13.04-.27.04-.4 0-3.49-.1-13.21-.19-20.79.45-.99.74-2.23.74-3.81 0-2.91-.04-7.11-.49-9.9-.44-2.72-1.23-4.54-2.23-7.28-.01-.04-.03-.07-.04-.11-.05-.13-.09-.26-.14-.39-.64-1.82-1.22-3.74-1.74-5.65-1.7-6.52-2.58-13.36-2.78-14.79-.25-1.73-1.48-3.96-4.45-6.43-2.97-2.47-5.94-3.46-5.94-3.46s-3.46-1.48-11.38 0c-7.92 1.48-15.34 3.96-22.27 7.42s-8.41 12.37-8.41 12.37l-2.47 8.91s-4.45 1.98-4.95 7.42L139.4 123s.04.93.89 2.31l-.22 22.53V148.53c0 .08.01.17.02.27v.04c.01.08.02.17.04.27v.04c.03.16.07.32.11.5-.4.48-.84 1.19-.84 1.94v1.12h-.08l.08.24c.08 15.92.91 164.53.91 164.53s0 .2.04.51c.12 1.77.8 6.89 4.56 9.54 3.54 2.5 7.34 6.93 16.51 9.24 9.17 2.31 16.51 1.39 16.51 1.39s15.62-3.45 22.72-7.27c2.98-1.6 4.33-4.55 4.89-7.43.22-.58.36-1.22.36-1.93 0-3.75.48-68.57.86-117.38 0-.57.02-1.02.02-1.35v-.6c.22-28.55.41-51.17.44-52.01Z" style="stroke:url(#linear-gradient-16);fill:#fff;stroke-width:.89px;stroke-miterlimit:10"/><path d="M171.95 214.36c0-.49.01-.92.04-1.28s.08-.71.16-1.04c.08-.33.2-.67.36-1 .16-.34.38-.72.65-1.15l2.17-3.43c.47-.76.83-1.55 1.11-2.36.27-.81.41-1.56.41-2.25 0-.5-.07-.96-.2-1.38a3.41 3.41 0 0 0-.57-1.07c-.25-.29-.55-.53-.91-.69-.36-.17-.77-.25-1.21-.25-1 0-1.73.44-2.19 1.33-.47.88-.7 2.16-.7 3.83v1.51h-3.76c-.13-.69-.25-1.32-.35-1.89-.1-.57-.15-1.2-.15-1.87 0-.93.14-1.81.42-2.62.28-.81.72-1.52 1.33-2.12.6-.6 1.36-1.08 2.29-1.42s2.02-.52 3.3-.52 2.38.17 3.33.51 1.75.82 2.39 1.45c.64.63 1.12 1.38 1.43 2.26.31.88.47 1.86.47 2.94 0 .61-.06 1.2-.17 1.76-.11.56-.28 1.12-.52 1.68-.23.56-.52 1.13-.87 1.71s-.75 1.2-1.23 1.83l-1.47 1.99c-.36.48-.63.89-.83 1.23-.2.34-.34.68-.43 1.01-.09.33-.15.68-.17 1.05-.02.37-.04.81-.04 1.33v2.65h-4.07l.02-3.74Zm-.59 10.75c0-1.29.26-2.21.77-2.77.52-.56 1.22-.84 2.1-.84s1.63.29 2.14.88c.5.59.75 1.5.75 2.73 0 1.12-.25 1.99-.76 2.6s-1.23.92-2.15.92c-.87 0-1.57-.3-2.08-.89-.52-.6-.77-1.47-.77-2.63Z" class="cls-64"/><path d="M346.91 321.86s-.27-82.14-.27-88.08c0-3.23-2.14-4.56-4.08-5.09 2.33-.95 3.08-1.77 3.08-1.77v-12.55l-1.42-1.42v-30.98s-.2-2.02-2.43-3.44c-1.71-1.09-8.5-6.68-8.5-17.82-.2-3.64-2.83-4.05-2.83-4.05s-3.85-1.62-9.92-1.62-10.33 1.82-10.33 1.82-2.43.4-2.63 2.63c-.3 3.25-1.01 13.97-7.9 18.63-1.42 1.21-3.04 1.21-3.04 4.45v30.98l-1.82 1.42.2 11.74s1.04.75 3.49 1.66c-3.38 1.7-3.97 4.66-3.97 4.66v89.64c0 6.48 3.24 7.83 4.59 8.91 5.7 3.8 13.82 4.79 18.12 5.05 1.81.11 2.94.08 2.94.08l2.64-.02c9.54-.29 16.61-3.05 20.03-5.11 4.65-2.81 4.05-9.72 4.05-9.72Z" style="filter:url(#drop-shadow-2);stroke:url(#linear-gradient-17);fill:#fff;stroke-width:.89px;stroke-miterlimit:10"/><path d="M297.58 218.06s5.35 3.6 22.36 3.6c5.09 0 9.18-.11 12.43-.55" style="stroke:url(#linear-gradient-18);fill:#fff;stroke-width:.89px;stroke-miterlimit:10"/><path d="M301.71 178.73s6.75 2.53 17.71 2.37c0 0 13.95.16 18.49-2.37" style="stroke:url(#linear-gradient-19);fill:#fff;stroke-width:.89px;stroke-miterlimit:10"/><path d="M300.14 183.25v30.69" style="stroke:url(#linear-gradient-20);fill:#fff;stroke-width:.89px;stroke-miterlimit:10"/><path d="M303.82 184.26v30.89" style="stroke:url(#linear-gradient-21);fill:#fff;stroke-width:.89px;stroke-miterlimit:10"/><path d="M307.51 184.9v30.9" style="stroke:url(#linear-gradient-22);fill:#fff;stroke-width:.89px;stroke-miterlimit:10"/><path d="M311.19 185.41v30.89" style="stroke:url(#linear-gradient-23);fill:#fff;stroke-width:.89px;stroke-miterlimit:10"/><path d="M314.87 185.55v30.89" style="stroke:url(#linear-gradient-24);fill:#fff;stroke-width:.89px;stroke-miterlimit:10"/><path d="M318.55 185.63v31.1" style="stroke:url(#linear-gradient-25);fill:#fff;stroke-width:.89px;stroke-miterlimit:10"/><path d="M322.23 185.63v31.1" style="stroke:url(#linear-gradient-26);fill:#fff;stroke-width:.89px;stroke-miterlimit:10"/><path d="M325.91 185.55v30.89" style="stroke:url(#linear-gradient-27);fill:#fff;stroke-width:.89px;stroke-miterlimit:10"/><path d="M329.6 185.41v30.89" style="stroke:url(#linear-gradient-28);fill:#fff;stroke-width:.89px;stroke-miterlimit:10"/><path d="M333.28 184.9v30.9" style="stroke:url(#linear-gradient-29);fill:#fff;stroke-width:.89px;stroke-miterlimit:10"/><path d="M336.96 184.26v30.89" style="stroke:url(#linear-gradient-30);fill:#fff;stroke-width:.89px;stroke-miterlimit:10"/><path d="M340.64 183.25v30.69" style="stroke:url(#linear-gradient-31);fill:#fff;stroke-width:.89px;stroke-miterlimit:10"/><path d="M315 157.14c-2.21.4-5.49.95-4.82 2.81.8 2.21 11.44 2.01 11.44 2.01l5.46-.2" style="stroke:url(#linear-gradient-32);fill:#fff;stroke-width:.89px;stroke-miterlimit:10"/><path d="M319.46 277.41c0-.49.01-.92.04-1.28s.08-.71.16-1.04c.08-.33.2-.67.36-1 .16-.34.38-.72.65-1.15l2.17-3.43c.47-.76.83-1.55 1.11-2.36.27-.81.41-1.56.41-2.25 0-.5-.07-.96-.2-1.38a3.41 3.41 0 0 0-.57-1.07c-.25-.29-.55-.53-.91-.69-.36-.17-.77-.25-1.21-.25-1 0-1.73.44-2.19 1.33-.47.88-.7 2.16-.7 3.83v1.51h-3.76c-.13-.69-.25-1.32-.35-1.89-.1-.57-.15-1.2-.15-1.87 0-.93.14-1.81.42-2.62.28-.81.72-1.52 1.33-2.12.6-.6 1.36-1.08 2.29-1.42s2.02-.52 3.3-.52 2.38.17 3.33.51 1.75.82 2.39 1.45c.64.63 1.12 1.38 1.43 2.26.31.88.47 1.86.47 2.94 0 .61-.06 1.2-.17 1.76-.11.56-.28 1.12-.52 1.68-.23.56-.52 1.13-.87 1.71s-.75 1.2-1.23 1.83l-1.47 1.99c-.36.48-.63.89-.83 1.23-.2.34-.34.68-.43 1.01-.09.33-.15.68-.17 1.05-.02.37-.04.81-.04 1.33v2.65h-4.07l.02-3.74Zm-.59 10.74c0-1.29.26-2.21.77-2.77.52-.56 1.22-.84 2.1-.84s1.63.29 2.14.88c.5.59.75 1.5.75 2.73 0 1.12-.25 1.99-.76 2.6s-1.23.92-2.15.92c-.87 0-1.57-.3-2.08-.89-.52-.6-.77-1.47-.77-2.63Z" class="cls-64"/><path d="M274.21 85.86s.15-6.39-14.2-8.47l.06-12.61s-.46-3.39-9.66-3.39-9.2 2.99-9.2 2.99l-.05 12.86c-13.51 1.74-12.61 7.44-12.61 7.44l-.15.23 1.62 246.47s-.05 2.23 3.08 4.48c1.97 2.31 6.72 5.7 17.55 5.55 11.76-.17 16.81-2.13 19.6-4.88 2.16-1.68 2.54-3.27 2.54-3.27l1.47-247.2-.03-.21Z" style="fill:#fff;stroke-width:.89px;filter:url(#drop-shadow-3);stroke:url(#linear-gradient-33);stroke-miterlimit:10"/><ellipse cx="250.63" cy="65.07" rx="6.67" ry="1.61" style="stroke:url(#linear-gradient-34);fill:#fff;stroke-width:.89px;stroke-miterlimit:10"/><path d="M249.22 202.58c0-.49.01-.92.04-1.28s.08-.71.16-1.04c.08-.33.2-.67.36-1 .16-.34.38-.72.65-1.15l2.17-3.43c.47-.76.83-1.55 1.11-2.36.27-.81.41-1.56.41-2.25 0-.5-.07-.96-.2-1.38a3.41 3.41 0 0 0-.57-1.07c-.25-.29-.55-.53-.91-.69-.36-.17-.77-.25-1.21-.25-1 0-1.73.44-2.19 1.33-.47.88-.7 2.16-.7 3.83v1.51h-3.76c-.13-.69-.25-1.32-.35-1.89-.1-.57-.15-1.2-.15-1.87 0-.93.14-1.81.42-2.62.28-.81.72-1.52 1.33-2.12.6-.6 1.36-1.08 2.29-1.42s2.02-.52 3.3-.52 2.38.17 3.33.51 1.75.82 2.39 1.45c.64.63 1.12 1.38 1.43 2.26.31.88.47 1.86.47 2.94 0 .61-.06 1.2-.17 1.76-.11.56-.28 1.12-.52 1.68-.23.56-.52 1.13-.87 1.71s-.75 1.2-1.23 1.83l-1.47 1.99c-.36.48-.63.89-.83 1.23-.2.34-.34.68-.43 1.01-.09.33-.15.68-.17 1.05-.02.37-.04.81-.04 1.33v2.65h-4.07l.02-3.74Zm-.59 10.75c0-1.29.26-2.21.77-2.77.52-.56 1.22-.84 2.1-.84s1.63.29 2.14.88c.5.59.75 1.5.75 2.73 0 1.12-.25 1.99-.76 2.6s-1.23.92-2.15.92c-.87 0-1.57-.3-2.08-.89-.52-.6-.77-1.47-.77-2.63Z" class="cls-64"/><path d="M65.14 166.8c-3.84 1.88-4.5 5.22-4.5 5.22v152.5c0 7.18 3.59 8.68 5.09 9.88 6.32 4.22 15.32 5.31 20.09 5.59 2 .12 3.26.09 3.26.09l2.93-.02c10.58-.32 18.42-3.38 22.21-5.67 5.16-3.11 4.49-10.77 4.49-10.77s-.3-144.19-.3-150.78c0-4.94-4.5-5.86-6.75-6.02-.37-.02-4.53 3.2-21.57 2.98-17.04-.21-24.62-3.16-24.94-3.01Z" style="stroke:url(#linear-gradient-35);fill:#fff;stroke-width:.89px;stroke-miterlimit:10"/><path d="M61.74 164.78s7.41 5.39 29.4 5.39 26.71-5.16 26.71-5.16l-.36-38.9s-.12-1.24-1.2-2.52c-.37-.44-19.1-25.54-19.1-25.54s-.44-1.8-7.18-1.8-7.29 2.02-7.29 2.02-18.52 24.53-19.1 25.01c-.76.62-1.31 1.51-1.31 3.5 0 3.59-.59 38-.59 38Z" style="stroke:url(#linear-gradient-36);fill:#fff;stroke-width:.89px;stroke-miterlimit:10"/><g style="mask:url(#mask)"><path d="M61.74 164.78s7.41 5.39 29.4 5.39 26.71-5.16 26.71-5.16l-.36-38.9s-.12-1.24-1.2-2.52c-.37-.44-19.1-25.54-19.1-25.54s-.44-1.8-7.18-1.8-7.29 2.02-7.29 2.02-18.52 24.53-19.1 25.01c-.76.62-1.31 1.51-1.31 3.5 0 3.59-.59 38-.59 38Z" style="stroke:url(#linear-gradient-38);fill:#fff;stroke-width:.89px;stroke-miterlimit:10"/></g><path d="M61.74 164.78s7.41 5.39 29.4 5.39 26.71-5.16 26.71-5.16l-.36-38.9s-.12-1.24-1.2-2.52c-.37-.44-19.1-25.54-19.1-25.54s-.44-1.8-7.18-1.8-7.29 2.02-7.29 2.02-18.52 24.53-19.1 25.01c-.76.62-1.31 1.51-1.31 3.5 0 3.59-.59 38-.59 38Z" style="stroke:url(#linear-gradient-39);fill:#fff;stroke-width:.89px;stroke-miterlimit:10"/><path d="M64.58 160.72s5.93 3.99 24.79 3.99c5.64 0 10.18-.12 13.78-.61" style="stroke:url(#linear-gradient-40);fill:#fff;stroke-width:.89px;stroke-miterlimit:10"/><path d="M69.16 122.52s7.49 2.81 19.64 2.63c0 0 15.46.18 20.49-2.63" style="stroke:url(#linear-gradient-41);fill:#fff;stroke-width:.89px;stroke-miterlimit:10"/><path d="M65.72 129.93v26.67" style="stroke:url(#linear-gradient-42);fill:#fff;stroke-width:.89px;stroke-miterlimit:10"/><path d="M70.05 130.89v26.86" style="stroke:url(#linear-gradient-43);fill:#fff;stroke-width:.89px;stroke-miterlimit:10"/><path d="M74.38 131.51v26.85" style="stroke:url(#linear-gradient-44);fill:#fff;stroke-width:.89px;stroke-miterlimit:10"/><path d="M78.71 131.98v26.86" style="stroke:url(#linear-gradient-45);fill:#fff;stroke-width:.89px;stroke-miterlimit:10"/><path d="M83.04 132.12v26.85" style="stroke:url(#linear-gradient-46);fill:#fff;stroke-width:.89px;stroke-miterlimit:10"/><path d="M87.37 132.2v27.04" style="stroke:url(#linear-gradient-47);fill:#fff;stroke-width:.89px;stroke-miterlimit:10"/><path d="M91.7 132.2v27.04" style="stroke:url(#linear-gradient-48);fill:#fff;stroke-width:.89px;stroke-miterlimit:10"/><path d="M96.03 132.12v26.85" style="stroke:url(#linear-gradient-49);fill:#fff;stroke-width:.89px;stroke-miterlimit:10"/><path d="M100.36 131.98v26.86" style="stroke:url(#linear-gradient-50);fill:#fff;stroke-width:.89px;stroke-miterlimit:10"/><path d="M104.69 131.51v26.85" style="stroke:url(#linear-gradient-51);fill:#fff;stroke-width:.89px;stroke-miterlimit:10"/><path d="M109.02 130.89v26.86" style="stroke:url(#linear-gradient-52);fill:#fff;stroke-width:.89px;stroke-miterlimit:10"/><path d="M113.35 129.93v26.67" style="stroke:url(#linear-gradient-53);fill:#fff;stroke-width:.89px;stroke-miterlimit:10"/><path d="M87.54 98.11c-1.06.19-2.64.45-2.31 1.35.38 1.06 5.49.96 5.49.96l2.62-.1" style="stroke:url(#linear-gradient-54);fill:#fff;stroke-width:.89px;stroke-miterlimit:10"/><path d="M87.46 240.28c0-.49.01-.92.04-1.28s.08-.71.16-1.04c.08-.33.2-.67.36-1 .16-.34.38-.72.65-1.15l2.17-3.43c.47-.76.83-1.55 1.11-2.36.27-.81.41-1.56.41-2.25 0-.5-.07-.96-.2-1.38a3.41 3.41 0 0 0-.57-1.07c-.25-.29-.55-.53-.91-.69-.36-.17-.77-.25-1.21-.25-1 0-1.73.44-2.19 1.33-.47.88-.7 2.16-.7 3.83v1.51h-3.76c-.13-.69-.25-1.32-.35-1.89-.1-.57-.15-1.2-.15-1.87 0-.93.14-1.81.42-2.62.28-.81.72-1.52 1.33-2.12.6-.6 1.36-1.08 2.29-1.42s2.02-.52 3.3-.52 2.38.17 3.33.51 1.75.82 2.39 1.45c.64.63 1.12 1.38 1.43 2.26.31.88.47 1.86.47 2.94 0 .61-.06 1.2-.17 1.76-.11.56-.28 1.12-.52 1.68-.23.56-.52 1.13-.87 1.71s-.75 1.2-1.23 1.83l-1.47 1.99c-.36.48-.63.89-.83 1.23-.2.34-.34.68-.43 1.01-.09.33-.15.68-.17 1.05-.02.37-.04.81-.04 1.33v2.65h-4.07l.02-3.74Zm-.59 10.74c0-1.29.26-2.21.77-2.77.52-.56 1.22-.84 2.1-.84s1.63.29 2.14.88c.5.59.75 1.5.75 2.73 0 1.12-.25 1.99-.76 2.6s-1.23.92-2.15.92c-.87 0-1.57-.3-2.08-.89-.52-.6-.77-1.47-.77-2.63Z" class="cls-64"/><path d="M296.47 53.03c0-3.67 3-6.67 6.67-6.67h89.71v70.65h-89.71c-3.67 0-6.67-3-6.67-6.67V53.02Z" style="fill:url(#linear-gradient-55);stroke-width:0"/><path d="M296.47 53.03c0-3.67 3-6.67 6.67-6.67h89.71v70.65h-89.71c-3.67 0-6.67-3-6.67-6.67V53.02Z" class="cls-11"/><g class="cls-72" style="clip-path:url(#clippath-1)"><g style="opacity:.7;mix-blend-mode:overlay"><path d="M303.18 45.29c-1.26 9.01 1.01 17.7 3.11 25.7.15.57.31 1.16.46 1.74 1.72 6.43 3.67 13.72 1.87 20.43-1.6 5.97-5.96 10.65-13.23 14.18v3.01c0 .51.05 1.02.15 1.5 11.34-4.09 18-10.28 19.31-18.03.97-5.77-.46-11.32-1.85-16.69-.24-.94-.49-1.88-.71-2.82l-.27-1.09c-2.22-9.04-4.48-18.31-2.43-27.94h-6.4Z" style="stroke:url(#linear-gradient-56);stroke-width:.35px;stroke-miterlimit:10;fill:none"/><path d="M314.73 45.29c-2.38 9.83-.15 19.28 2.03 28.5l.57 2.43c.2.85.41 1.71.62 2.57 1.38 5.61 2.8 11.42 1.24 17.54-2.03 7.95-9.79 14.29-22.44 18.38.9 1.32 2.21 2.35 3.74 2.91.36-.11.73-.21 1.09-.32 12.49-3.87 20.15-9.65 22.77-17.17 2.19-6.29.81-12.3-.53-18.1-.19-.82-.37-1.63-.55-2.44-.24-1.11-.49-2.23-.75-3.36-2.24-9.96-4.51-20.21-1.19-30.93h-6.59Z" style="stroke:url(#linear-gradient-57);stroke-width:.35px;stroke-miterlimit:10;fill:none"/><path d="M326.5 45.29c-3.64 10.85-1.32 21.58.78 31.26l.33 1.51c1.54 7.16 3.28 15.27.96 22.61-2.42 7.66-8.92 13.38-19.79 17.42h11.07c7.45-3.66 12.15-8.45 14.27-14.5 2.46-7.02 1.23-14.73-.38-22.67-.17-.82-.34-1.65-.51-2.48-2.11-10.22-4.45-21.64.08-33.15h-6.82Z" style="stroke:url(#linear-gradient-58);stroke-width:.35px;stroke-miterlimit:10;fill:none"/><path d="M297.58 64.21c.33 1.67.79 3.46 1.27 5.35 1.55 6.05 3.31 12.9 1.7 19.35-.85 3.39-2.56 6.38-5.16 8.99v5.68c13.12-8.43 10-20.92 7.39-31.32-.18-.73-.36-1.44-.53-2.15-1.81-7.44-3.76-15.47-2.88-23.85a7.766 7.766 0 0 0-3.33 3.67c-.06 4.84.62 9.62 1.54 14.28Z" style="stroke:url(#linear-gradient-59);stroke-width:.35px;stroke-miterlimit:10;fill:none"/><path d="M338.28 78.89c.21 1.03.42 2.06.62 3.08 1.49 7.63 2.72 15.69.02 22.98-1.96 5.29-5.8 9.64-11.62 13.15h66.62V45.29h-55.25c-4.83 11.53-2.58 22.73-.39 33.6Z" style="stroke:url(#linear-gradient-60);stroke-width:.35px;stroke-miterlimit:10;fill:none"/><path d="M295.39 70.55v20.54c.45-1 .82-2.04 1.1-3.13 1.44-5.75.23-11.86-1.1-17.41Z" style="stroke-width:.35px;stroke:url(#linear-gradient-61);stroke-miterlimit:10;fill:none"/></g></g><path d="M319.22 62.83c0 1.77-.51 3.13-1.51 4.08-1.01.94-2.47 1.42-4.38 1.42h-3.05V57.55h3.38c1.76 0 3.13.46 4.1 1.39.97.93 1.46 2.23 1.46 3.89Zm-2.38.06c0-2.32-1.02-3.47-3.07-3.47h-1.22v7.02h.98c2.2 0 3.3-1.18 3.3-3.54ZM332.74 62.92c0 1.78-.44 3.15-1.33 4.11-.88.96-2.15 1.44-3.8 1.44s-2.92-.48-3.8-1.44c-.88-.96-1.33-2.33-1.33-4.13s.44-3.16 1.33-4.11c.89-.95 2.16-1.42 3.81-1.42s2.92.48 3.8 1.43c.88.95 1.32 2.32 1.32 4.11Zm-7.86 0c0 1.2.23 2.11.69 2.72.46.61 1.14.91 2.05.91 1.82 0 2.74-1.21 2.74-3.63s-.91-3.64-2.72-3.64c-.91 0-1.59.31-2.06.92-.46.61-.69 1.52-.69 2.72ZM345.26 57.55v6.97c0 .8-.18 1.49-.53 2.09-.36.6-.87 1.06-1.54 1.38-.67.32-1.47.48-2.39.48-1.39 0-2.46-.36-3.23-1.07s-1.15-1.68-1.15-2.92v-6.94h2.28v6.6c0 .83.17 1.44.5 1.83.33.39.89.58 1.66.58s1.29-.19 1.62-.59.51-1 .51-1.84v-6.58h2.28ZM349.4 57.55h3.35c1.53 0 2.64.22 3.33.65.69.44 1.04 1.13 1.04 2.07 0 .64-.15 1.17-.45 1.58-.3.41-.7.66-1.21.75v.07c.68.15 1.18.44 1.48.85.3.42.45.97.45 1.67 0 .98-.36 1.75-1.07 2.3-.71.55-1.67.83-2.89.83h-4.03V57.54Zm2.29 4.26h1.33c.62 0 1.07-.1 1.35-.29.28-.19.42-.51.42-.95 0-.41-.15-.71-.45-.89-.3-.18-.78-.27-1.43-.27h-1.2v2.4Zm0 1.82v2.81h1.49c.63 0 1.09-.12 1.39-.36.3-.24.45-.61.45-1.11 0-.89-.64-1.34-1.92-1.34h-1.42ZM361.06 68.32V57.54h2.29v8.89h4.37v1.89h-6.66ZM377.3 68.32h-6.21V57.54h6.21v1.87h-3.92v2.37h3.65v1.87h-3.65v2.78h3.92v1.89ZM312.56 82.3v4.13h-2.29V75.65h3.14c1.46 0 2.55.27 3.25.8s1.05 1.34 1.05 2.43c0 .63-.17 1.2-.52 1.69s-.84.88-1.48 1.16c1.62 2.42 2.68 3.99 3.17 4.7h-2.54l-2.57-4.13h-1.22Zm0-1.85h.74c.72 0 1.26-.12 1.6-.36.34-.24.52-.62.52-1.13s-.18-.87-.53-1.09c-.35-.22-.9-.32-1.63-.32h-.69v2.91ZM327.96 86.44h-6.21V75.66h6.21v1.87h-3.92v2.37h3.65v1.87h-3.65v2.78h3.92v1.89ZM342.21 86.44h-2.6l-1.46-5.66c-.05-.2-.15-.62-.28-1.25s-.2-1.05-.22-1.27c-.03.27-.1.69-.22 1.28s-.21 1.01-.27 1.26l-1.45 5.65h-2.59l-2.75-10.78h2.25l1.38 5.88c.24 1.09.42 2.03.52 2.82.03-.28.1-.71.2-1.3.11-.59.21-1.04.3-1.37l1.57-6.04h2.16l1.57 6.04c.07.27.15.68.26 1.24s.18 1.03.24 1.43c.05-.38.13-.86.24-1.43s.21-1.04.3-1.39l1.37-5.88h2.25l-2.74 10.78ZM354.42 86.44l-.78-2.56h-3.93l-.78 2.56h-2.46l3.8-10.82h2.79l3.82 10.82h-2.46Zm-1.33-4.48c-.72-2.32-1.13-3.64-1.22-3.94-.09-.3-.16-.54-.2-.72-.16.63-.63 2.18-1.39 4.67h2.81ZM362.03 82.3v4.13h-2.29V75.65h3.14c1.46 0 2.55.27 3.25.8s1.05 1.34 1.05 2.43c0 .63-.17 1.2-.52 1.69s-.84.88-1.48 1.16c1.62 2.42 2.68 3.99 3.17 4.7h-2.54l-2.57-4.13h-1.22Zm0-1.85h.74c.72 0 1.26-.12 1.6-.36.34-.24.52-.62.52-1.13s-.18-.87-.53-1.09c-.35-.22-.9-.32-1.63-.32h-.69v2.91ZM380.16 80.95c0 1.77-.51 3.13-1.51 4.08-1.01.94-2.47 1.42-4.38 1.42h-3.05V75.67h3.38c1.76 0 3.13.46 4.1 1.39.97.93 1.46 2.23 1.46 3.89Zm-2.37.06c0-2.32-1.02-3.47-3.07-3.47h-1.22v7.02h.98c2.2 0 3.3-1.18 3.3-3.54ZM317.72 97.14c0 1.16-.36 2.05-1.09 2.66s-1.76.92-3.09.92h-.98v3.83h-2.29V93.77h3.44c1.31 0 2.3.28 2.98.84s1.02 1.4 1.02 2.52Zm-5.16 1.71h.75c.7 0 1.23-.14 1.58-.42.35-.28.52-.68.52-1.21s-.15-.93-.44-1.19c-.29-.26-.75-.38-1.37-.38h-1.04v3.2ZM331.05 99.15c0 1.78-.44 3.15-1.33 4.11-.88.96-2.15 1.44-3.8 1.44s-2.92-.48-3.8-1.44c-.88-.96-1.33-2.33-1.33-4.13s.44-3.16 1.33-4.11c.89-.95 2.16-1.42 3.81-1.42s2.92.48 3.8 1.43c.88.95 1.32 2.32 1.32 4.11Zm-7.87 0c0 1.2.23 2.11.69 2.72.46.61 1.14.91 2.05.91 1.82 0 2.74-1.21 2.74-3.63s-.91-3.64-2.72-3.64c-.91 0-1.59.31-2.06.92-.46.61-.69 1.52-.69 2.72ZM334.79 104.55V93.77h2.29v10.78h-2.29ZM350.86 104.55h-2.9l-4.69-8.15h-.07c.09 1.44.14 2.47.14 3.08v5.07h-2.04V93.77h2.88l4.68 8.07h.05c-.07-1.4-.11-2.39-.11-2.97v-5.1h2.06v10.78ZM359.24 104.55h-2.29v-8.87h-2.93v-1.9h8.14v1.9h-2.93v8.87ZM371.69 101.56c0 .97-.35 1.74-1.05 2.3-.7.56-1.67.84-2.92.84-1.15 0-2.17-.22-3.05-.65v-2.12c.73.32 1.34.55 1.85.68s.96.2 1.38.2c.5 0 .89-.1 1.15-.29.27-.19.4-.48.4-.85 0-.21-.06-.4-.18-.56s-.29-.32-.52-.48c-.23-.15-.69-.4-1.4-.73-.66-.31-1.15-.61-1.48-.89a3.46 3.46 0 0 1-.79-1c-.2-.38-.3-.82-.3-1.33 0-.95.32-1.7.97-2.25.65-.55 1.54-.82 2.68-.82.56 0 1.09.07 1.6.2s1.04.32 1.6.56l-.74 1.78c-.57-.23-1.05-.4-1.43-.49-.38-.09-.75-.14-1.11-.14-.43 0-.76.1-.99.3-.23.2-.35.46-.35.79 0 .2.05.38.14.53.09.15.24.3.45.44s.69.39 1.45.76c1.01.48 1.7.96 2.07 1.45.37.48.56 1.08.56 1.78ZM374.66 103.5c0-.41.11-.72.33-.94.22-.21.54-.32.97-.32s.72.11.95.32c.22.22.34.53.34.93s-.11.69-.34.92c-.23.22-.54.34-.94.34s-.73-.11-.96-.33c-.23-.22-.34-.53-.34-.93Zm2.21-2.52h-1.8l-.38-7.2h2.55l-.38 7.2Z" class="cls-68"/></g></g></svg>