<?xml version="1.0" encoding="UTF-8"?><svg id="Layer_1" xmlns="http://www.w3.org/2000/svg" xmlns:xlink="http://www.w3.org/1999/xlink" viewBox="0 0 649.48 315.64"><defs><style>.cls-1{stroke:url(#linear-gradient-10);}.cls-1,.cls-2,.cls-3,.cls-4,.cls-5,.cls-6,.cls-7,.cls-8,.cls-9,.cls-10{fill:none;stroke-miterlimit:10;stroke-width:.41px;}.cls-2{stroke:url(#linear-gradient-7);}.cls-3{stroke:url(#linear-gradient-6);}.cls-4{stroke:url(#linear-gradient-5);}.cls-5{stroke:url(#linear-gradient-9);}.cls-6{stroke:url(#linear-gradient-8);}.cls-7{stroke:url(#linear-gradient-3);}.cls-8{stroke:url(#linear-gradient-4);}.cls-9{stroke:url(#linear-gradient-2);}.cls-10{stroke:url(#linear-gradient);}</style><linearGradient id="linear-gradient" x1="1455.16" y1="2583.41" x2="1632.9" y2="2583.41" gradientTransform="translate(2779.71 -1586.04) rotate(87.29)" gradientUnits="userSpaceOnUse"><stop offset=".07" stop-color="#1688c9"/><stop offset=".86" stop-color="#229fd9"/><stop offset=".96" stop-color="#29a4dd"/><stop offset="1" stop-color="#2ea8e0"/></linearGradient><linearGradient id="linear-gradient-2" x1="1467.92" y1="2576.31" x2="1650.02" y2="2576.31" xlink:href="#linear-gradient"/><linearGradient id="linear-gradient-3" x1="1481.49" y1="2567.99" x2="1667.58" y2="2567.99" xlink:href="#linear-gradient"/><linearGradient id="linear-gradient-4" x1="1493.93" y1="2551.52" x2="1686.08" y2="2551.52" xlink:href="#linear-gradient"/><linearGradient id="linear-gradient-5" x1="1506.82" y1="2527.79" x2="1700.19" y2="2527.79" xlink:href="#linear-gradient"/><linearGradient id="linear-gradient-6" x1="1518.36" y1="2539.21" x2="1715.05" y2="2539.21" xlink:href="#linear-gradient"/><linearGradient id="linear-gradient-7" x1="1529.75" y1="2541.86" x2="1731.17" y2="2541.86" xlink:href="#linear-gradient"/><linearGradient id="linear-gradient-8" x1="1546.62" y1="2532.29" x2="1749.89" y2="2532.29" xlink:href="#linear-gradient"/><linearGradient id="linear-gradient-9" x1="1564.72" y1="2521.51" x2="1768.03" y2="2521.51" xlink:href="#linear-gradient"/><linearGradient id="linear-gradient-10" x1="1581.54" y1="2512.3" x2="1787.2" y2="2512.3" xlink:href="#linear-gradient"/></defs><path class="cls-10" d="M485.43,115.06c-21.85-4.39-49.87-8.39-72.8-4.18-11.63,2.14-21.41,6.25-29.05,12.22-4.55,3.55-7.56,8.41-10.48,13.11-3.81,6.14-7.75,12.49-15.12,15.75-14.67,6.5-37.08,1.83-63.1-13.13-10.37-5.96-20.95-13.37-30.6-21.41-27.99-23.32-61.65-50.07-99.17-71.65-4.47-2.57-9-5.07-13.46-7.43C116.72,19.88,81.36,6.77,48.92.23c-.99,1.93-1.97,3.86-2.95,5.79,32.74,5.33,68.08,17.43,102.61,35.2,5.59,2.88,11.27,5.97,16.89,9.2,37.99,21.85,71.37,48.91,96.19,70.04,8.7,7.4,22.38,18.13,38.14,27.2,24.41,14.04,45.06,18.9,59.73,14.05,9.19-3.03,13.54-10.27,17.75-17.26,2.53-4.2,5.14-8.55,8.77-11.87,7.25-6.64,16.41-11.48,27.22-14.39,19.83-5.34,46.09-4.53,80.29,2.47.84.17,1.68.35,2.52.53l-10.66-6.13Z"/><path class="cls-9" d="M506.38,127.11c-4.98-1.09-9.93-2.09-14.84-2.94-32.2-5.63-58.84-4.22-79.17,4.19-9.87,4.08-18.63,10-26.02,17.6-2.64,2.71-4.87,6-7.02,9.18-5.29,7.8-10.77,15.87-22.97,17.15-12.75,1.33-28.82-3.52-47.76-14.41-19.2-11.04-38-26.34-50.47-36.88-23.79-20.12-55.64-45.82-91.08-66.21-5.05-2.91-10.16-5.69-15.17-8.28C116.01,27.96,78.15,16.49,42.41,13.31c-.03,0-.06,0-.09,0-1.05,2.11-2.1,4.22-3.15,6.34,35.36,1.39,72.37,11.16,107.07,28.27,6.56,3.24,13.26,6.82,19.91,10.64,33.42,19.22,63.91,43.7,86.74,62.88l1.65,1.39c15.38,12.93,36.45,30.64,57.63,42.82,16.34,9.39,30.76,14.31,42.88,14.62,15.26.39,21.6-8.53,27.74-17.16,1.91-2.68,3.71-5.21,5.76-7.46,7.54-8.25,15.7-14.53,24.96-19.22,19.85-10.04,46.51-12.85,77.11-8.11,9.06,1.4,18.3,3.32,27.62,5.6l-11.86-6.82Z"/><path class="cls-7" d="M529.02,140.13c-14-3.86-28-6.9-41.48-8.53-15.45-1.87-29.91-1.41-42.97,1.34-12.32,2.6-23.48,7.26-33.16,13.85-8.06,5.49-15.66,12.53-23.91,22.16-1.4,1.63-2.74,3.39-4.04,5.09-5.86,7.67-11.92,15.6-25.46,16.03-9.76.31-22.22-3.85-37.02-12.36-21.61-12.43-44.47-31.94-59.59-44.85-1.6-1.37-3.14-2.68-4.59-3.91-27.55-23.4-57.67-47.7-91.16-66.96-5.61-3.23-11.26-6.28-16.8-9.07-35.39-17.83-73.07-26.78-108.95-25.89-1.49.04-2.98.1-4.46.17-1.08,2.19-2.16,4.37-3.23,6.56,2.46-.26,4.93-.48,7.39-.66,35.11-2.47,72.04,5.33,106.8,22.57,5.86,2.91,11.85,6.12,17.8,9.54,32.56,18.72,62.31,42.76,89.61,65.95,2.84,2.41,6.04,5.19,9.42,8.12,16.6,14.41,39.33,34.16,60.91,46.57,13.28,7.63,24.7,11.62,33.96,11.86,15.58.4,22.23-8.1,28.66-16.32,1.06-1.35,2.15-2.75,3.26-4.07,6.67-7.94,14.1-16.26,23.21-23.3,19.75-15.27,44.71-21.43,74.19-18.32,18.13,1.91,36.99,6.55,55.44,12.39l-13.84-7.96Z"/><path class="cls-8" d="M560.04,157.96c-23.54-8.77-50.4-16.78-75.19-18.63-29.68-2.22-53.69,5.95-73.4,24.97-6.89,6.65-12.87,14.12-18.66,21.35-1.2,1.5-2.39,2.99-3.6,4.48-.57.7-1.13,1.41-1.7,2.13-7.1,8.94-14.44,18.18-32.13,16.03-6.33-.77-13.34-3.4-21.42-8.05-10.83-6.23-21.6-15-30.26-22.05l-1.67-1.36c-12.43-10.11-24.72-20.64-36.61-30.83-4.58-3.92-9.31-7.98-13.99-11.96-25.37-21.57-55.23-46.2-88.59-65.38-6.72-3.86-13.47-7.43-20.05-10.61-18.66-9-37.69-14.95-56.56-17.69-16.97-2.46-33.93-2.35-50.42.33-2.55.41-5.11.88-7.67,1.37-1.38,2.77-2.76,5.54-4.16,8.3,4.19-1.02,8.49-2.05,12.69-2.93,34.18-7.18,69.27-2.41,104.3,14.2,6.89,3.27,13.96,6.98,21.02,11.04,31.08,17.87,60.07,41.39,86.77,64.13,8.49,7.24,17.02,14.67,25.27,21.85,8.21,7.16,16.7,14.56,25.16,21.77.8.68,1.62,1.38,2.45,2.09,9.39,8.03,21.07,18.02,33.05,24.91,7.42,4.27,14.05,6.87,20.28,7.97,11.55,2.03,21.42-.38,30.17-7.38,7.56-6.05,13.34-14.76,18.43-22.44,3.43-5.18,6.67-10.06,10.1-13.67,19.26-20.31,42.62-29.4,71.41-27.79,27.17,1.51,59.91,11,102.69,29.8l-27.71-15.93Z"/><path class="cls-4" d="M636.88,202.15c-14.18-6.16-28.13-12.68-41.92-19.13-29.88-13.97-73.91-32.6-111.06-33.13-15.78-.23-29.5,2.88-41.96,9.48-9.93,5.26-19.12,12.88-28.11,23.28-2.73,3.16-5.38,7.13-8.19,11.33-10.7,16-24.02,35.92-53.03,27.5-5.05-1.47-10.22-3.74-15.79-6.94-12.88-7.4-24.94-18.14-35.59-27.62-1-.89-1.99-1.77-2.96-2.63-4.91-4.36-9.89-8.8-14.71-13.1-11.42-10.19-23.22-20.73-35.1-30.92-24.06-20.64-52.82-44.14-83.76-61.93-8.21-4.72-16.42-8.95-24.4-12.57-19.02-8.63-37.84-13.59-55.93-14.72-15.73-.98-31.13.78-47.08,5.4-3.19.92-6.46,1.93-9.63,2.9-3.25.99-6.51,1.99-9.82,2.95-.95,1.83-1.91,3.65-2.88,5.47-.77,1.45-1.57,2.89-2.38,4.33,7.29-2,14.32-4.39,21.26-6.76l2.11-.72c24.66-8.38,55.57-14.64,97.85,2.56,10.09,4.1,20.59,9.28,31.19,15.38,28.72,16.52,55.48,38.22,75.58,55.28,16.14,13.7,31.95,28.03,47.23,41.89l2.32,2.11c2.08,1.88,4.14,3.78,6.32,5.79,12.06,11.09,25.73,23.66,40.81,32.34,2.18,1.25,4.37,2.41,6.51,3.45,16.79,8.14,30.8,8.65,42.83,1.56,10.23-6.03,17.28-16.45,23.49-25.65,2.54-3.75,4.93-7.3,7.29-10.15,13.19-15.89,32.88-34.12,68.33-34.01,36.07.11,78.09,18.03,110.66,33.63,16.47,7.89,32.59,15.61,48.66,22.72,1.24-.86,2.58-1.65,4-2.37l-12.16-6.99Z"/><path class="cls-3" d="M608.93,200.74c-3.13-1.56-6.26-3.13-9.41-4.7-33.92-16.92-77.54-36.24-114.08-35.41-34.56.78-53.46,19.65-67.38,38-1.97,2.6-3.95,5.59-6.04,8.76-6.27,9.49-13.39,20.25-23.98,26.09-12.12,6.67-26.5,5.46-43.97-3.69-1.23-.65-2.49-1.34-3.73-2.05-15.98-9.19-29.54-22.11-42.66-34.61-2.02-1.93-4.11-3.92-6.14-5.83-15.22-14.32-31.64-29.58-48.61-44.18-19.8-17.02-46.26-38.71-75.44-55.48-10.5-6.04-20.9-11.17-30.93-15.25-19.32-7.87-37.07-11.3-54.24-10.48-13.64.65-27.19,4-42.65,10.54l-1.29.54c-10.19,4.32-21.1,8.94-33.09,11.93-1.13,2.04-2.23,4.1-3.27,6.18-.54,1.07-1.16,2.23-1.68,3.46,14.46-2.66,27.17-8.07,38.58-13.39,26.25-12.24,51.28-21.2,91.77-6.74,11.9,4.25,24.39,10.12,37.13,17.44,29.22,16.8,55.84,38.86,75.77,56.19,17.84,15.52,34.83,31.67,47.65,44,1.72,1.65,3.45,3.33,5.19,5.03,13.55,13.16,27.55,26.78,44.59,36.57,1.4.8,2.81,1.58,4.21,2.31,18.78,9.78,34.04,11.15,46.65,4.19,10.76-5.94,17.81-16.92,24.04-26.62,1.95-3.03,3.79-5.9,5.63-8.44,14.35-19.79,32.25-38.24,65.8-39.24,35.92-1.07,79.54,18.65,113.54,35.95,5.05,2.57,10.15,5.18,15.09,7.71,6.93,3.55,13.79,7.06,20.61,10.51.97-1.4,2.05-2.73,3.22-3.98-10.2-4.97-20.46-10.1-30.88-15.31Z"/><path class="cls-2" d="M633.64,224.98c-.55-.3-1.1-.59-1.65-.88-8.9-4.78-18.1-9.71-27.21-14.52-38.52-20.32-87.54-42.94-125.05-37.54-32.54,4.7-47.3,27.06-60.32,46.79-.74,1.12-1.48,2.26-2.23,3.42-13.07,20.11-29.33,45.14-71.48,20.91-2.61-1.5-5.34-3.2-8.09-5.05-15.95-10.69-29.1-22.19-41.69-35.02-2.8-2.85-5.7-5.81-8.57-8.67-16.82-16.78-32.2-31.18-47-44.01-26.57-23.04-48.79-41.29-70.22-53.61-14.45-8.31-28.5-14.65-41.76-18.86-40.27-12.77-65.22.25-89.35,12.84-11.97,6.25-23.59,12.3-36.75,15.41.44.46.91.91,1.41,1.33,2.35,1.99,5.01,3.76,7.72,5.44.25.15.5.3.75.46,11.27-3.73,21.46-9.58,31.34-15.26,23.45-13.48,47.69-27.41,88.03-14.39,12.56,4.06,25.83,10.08,39.45,17.91,21.51,12.37,43.71,31.38,70.24,54.74,14.72,12.97,29.79,27.33,46.06,43.9,2.55,2.6,5.14,5.28,7.64,7.87,13.13,13.6,26.87,25.3,43.89,36.58,2.68,1.78,5.34,3.43,7.9,4.9,20.09,11.55,36.3,13.76,49.56,6.75,11.34-5.99,18.75-17.79,25.29-28.2.6-.95,1.19-1.89,1.78-2.82,12.71-20.04,27.13-42.76,58.99-47.55,36.56-5.49,83.17,16.18,123.94,38.11,8.44,4.54,16.94,9.2,25.29,13.79.62-1.63,1.31-3.22,2.08-4.75Z"/><path class="cls-6" d="M628.92,238.66c-6.27-3.57-12.62-7.17-18.92-10.71-17.82-9.99-41.23-22.52-64.23-30.72-24.08-8.59-44.03-11.23-60.98-8.09-30.2,5.61-43.97,26.55-57.29,46.8l-1.13,1.72c-.98,1.48-1.94,2.99-2.91,4.51-5.51,8.62-11.22,17.54-20.25,23.48-13.1,8.62-31.59,6.52-53.49-6.07-2.84-1.64-5.78-3.47-8.71-5.44-23.99-16.15-44.6-37.41-64.53-57.97-11.08-11.43-22.54-23.26-34.26-33.82-24.73-22.28-46.77-38.88-67.4-50.74-15.83-9.1-31.19-15.6-45.64-19.29-37.97-9.71-60.65,4.79-82.6,18.81-6.28,4.01-12.47,7.97-18.91,11.37,3.42,1.95,6.85,3.88,10.27,5.82,4.31-2.66,8.5-5.48,12.63-8.27,20.38-13.74,41.46-27.96,75.04-21.62,17.87,3.37,35.02,9.88,52.44,19.9,33.61,19.32,62.68,48.82,90.79,77.34,23.1,23.44,44.93,45.58,69.24,62.78,4.28,3.03,8.55,5.77,12.68,8.15,22.05,12.68,40.9,15.46,54.5,8.06,10.25-5.58,16.31-14.8,22.17-23.71.9-1.37,1.8-2.73,2.7-4.07.85-1.27,1.71-2.54,2.57-3.82,12.94-19.32,26.31-39.29,54.37-45.49,36.12-7.99,80.61,13.52,123.31,37.95,1.56.89,3.12,1.79,4.68,2.68,4.19,2.41,8.41,4.85,12.59,7.28.35-2.3.77-4.58,1.27-6.81Z"/><path class="cls-5" d="M626.52,254.98c-4.19-2.51-8.41-5.03-12.6-7.53-3.9-2.32-7.46-4.4-10.87-6.36-36.7-21.1-78.91-41.43-113.74-32.23-26.58,7.02-39.84,26.35-52.67,45.04-1.21,1.76-2.41,3.51-3.61,5.23-.87,1.25-1.74,2.53-2.61,3.81-6.18,9.1-12.57,18.51-23.82,23.46-13.47,5.93-30.91,2.83-51.85-9.21-4.6-2.65-9.4-5.75-14.24-9.22-22.4-16.04-43.84-37.84-66.54-60.93-29.21-29.7-59.41-60.42-93.41-79.97-19.33-11.11-37.97-17.58-56.99-19.78-28.37-3.28-45.98,10.58-61.5,22.8-3.08,2.42-6.04,4.75-9.02,6.92l9.72,5.59c1.75-1.44,3.52-2.93,5.33-4.46,15.14-12.79,32.22-26.11,60.67-22.11,17.86,2.51,35.19,8.71,52.97,18.93,32.78,18.85,61.99,47.5,90.14,76.34,25.7,26.32,49.97,51.19,76.99,68.67,2.46,1.59,4.9,3.08,7.27,4.44,22.11,12.71,40.11,15.46,55.03,8.4,12.84-6.08,21.62-18.64,29.37-29.72l1.64-2.34c12.97-18.6,27.68-39.69,56.56-45.13,31.62-5.95,67.67,11.53,98.77,29.41,4.99,2.87,10.28,6,16.67,9.87,3.92,2.37,7.87,4.78,11.79,7.17.16-2.34.33-4.71.54-7.1Z"/><path class="cls-1" d="M625.4,271.57c-2.43-1.53-4.87-3.06-7.3-4.59-6.83-4.28-15.82-9.86-24.87-15.06-26.98-15.51-61.84-32.39-92.16-25.13-26.93,6.45-41.28,26.62-53.95,44.41-.91,1.28-1.81,2.55-2.71,3.8-8.72,12.15-17.59,23.51-30.19,29-14.6,6.37-31.94,3.58-53.03-8.55-3.13-1.8-6.4-3.84-9.71-6.06-30.79-20.67-56.39-46.77-81.15-72.01-7.91-8.06-16.09-16.4-24.23-24.34-23.67-23.07-44.81-39.82-64.63-51.22s-37.22-17.12-54.11-18.38c-25.5-1.91-40.41,12.45-53.41,25.57l8.11,4.66c11.49-12.61,24.24-24.23,45.93-23.36,16.76.67,34.92,6.57,54,17.54,19.44,11.18,40.15,27.71,63.31,50.52,7.33,7.22,14.7,14.72,21.84,21.97,25.77,26.21,52.42,53.31,84.72,75.41,3.9,2.67,7.75,5.1,11.43,7.22,21.83,12.55,39.85,15.56,55.11,9.22,13.26-5.52,22.61-17.31,31.05-28.92,1.13-1.55,2.26-3.12,3.39-4.71,12.97-18.07,26.38-36.75,51.76-43.59,28.45-7.66,61.1,8.03,86.36,22.56,9.89,5.69,19.84,11.95,28.27,17.34,1.91,1.22,3.83,2.45,5.74,3.67.15-2.33.28-4.67.41-7Z"/></svg>