<svg xmlns="http://www.w3.org/2000/svg" xmlns:xlink="http://www.w3.org/1999/xlink" id="Layer_1" viewBox="0 0 423 418.32"><defs><linearGradient id="linear-gradient" x1="211.69" x2="211.69" y1="380.68" y2="22.93" gradientUnits="userSpaceOnUse"><stop offset=".5" stop-color="#263042"/><stop offset=".63" stop-color="#233755"/><stop offset=".72" stop-color="#213e67"/><stop offset=".95" stop-color="#0e7fc0"/></linearGradient><linearGradient id="linear-gradient-2" x1="719.74" x2="818.24" y1="-426.5" y2="-426.5" gradientTransform="rotate(-24.34 1726.856 1468.712)" gradientUnits="userSpaceOnUse"><stop offset=".07" stop-color="#1688c9"/><stop offset=".86" stop-color="#229fd9"/><stop offset=".96" stop-color="#29a4dd"/><stop offset="1" stop-color="#2ea8e0"/></linearGradient><linearGradient xlink:href="#linear-gradient-2" id="linear-gradient-3" x1="724.13" x2="854.69" y1="-418.31" y2="-418.31"/><linearGradient xlink:href="#linear-gradient-2" id="linear-gradient-4" x1="733.19" x2="884.71" y1="-412.65" y2="-412.65"/><linearGradient xlink:href="#linear-gradient-2" id="linear-gradient-5" x1="739.34" x2="891.18" y1="-412.98" y2="-412.98"/><linearGradient xlink:href="#linear-gradient-2" id="linear-gradient-6" x1="747.26" x2="899.05" y1="-412.15" y2="-412.15"/><linearGradient xlink:href="#linear-gradient-2" id="linear-gradient-7" x1="754.36" x2="904.23" y1="-411.15" y2="-411.15"/><linearGradient xlink:href="#linear-gradient-2" id="linear-gradient-8" x1="760.49" x2="911" y1="-409.34" y2="-409.34"/><linearGradient xlink:href="#linear-gradient-2" id="linear-gradient-9" x1="745.13" x2="956.36" y1="-402.9" y2="-402.9"/><linearGradient xlink:href="#linear-gradient-2" id="linear-gradient-10" x1="387.89" x2="593.6" y1="315.21" y2="315.21" gradientTransform="matrix(1.44524 -.26864 -.22552 1.14042 -388.84 45.07)"/><linearGradient xlink:href="#linear-gradient-2" id="linear-gradient-11" x1="387.27" x2="591.36" y1="308.72" y2="308.72" gradientTransform="matrix(1.44524 -.26864 -.22552 1.14042 -388.84 45.07)"/><linearGradient xlink:href="#linear-gradient-2" id="linear-gradient-12" x1="425.68" x2="631.79" y1="251.34" y2="251.34" gradientTransform="matrix(1.43232 -.33068 -.17617 1.14908 -462.03 142.32)"/><linearGradient xlink:href="#linear-gradient-2" id="linear-gradient-13" x1="424.58" x2="630.15" y1="244.6" y2="244.6" gradientTransform="matrix(1.43232 -.33068 -.17617 1.14908 -462.03 142.32)"/><linearGradient xlink:href="#linear-gradient-2" id="linear-gradient-14" x1="423.55" x2="629.85" y1="238.92" y2="238.92" gradientTransform="matrix(1.43232 -.33068 -.17617 1.14908 -462.03 142.32)"/><linearGradient xlink:href="#linear-gradient-2" id="linear-gradient-15" x1="422.96" x2="628.93" y1="234.38" y2="234.38" gradientTransform="matrix(1.43232 -.33068 -.17617 1.14908 -462.03 142.32)"/><linearGradient xlink:href="#linear-gradient-2" id="linear-gradient-16" x1="424.19" x2="627.64" y1="225.34" y2="225.34" gradientTransform="matrix(1.43232 -.33068 -.17617 1.14908 -462.03 142.32)"/><linearGradient xlink:href="#linear-gradient-2" id="linear-gradient-17" x1="424.52" x2="627.24" y1="221.15" y2="221.15" gradientTransform="matrix(1.43232 -.33068 -.17617 1.14908 -462.03 142.32)"/><linearGradient xlink:href="#linear-gradient-2" id="linear-gradient-18" x1="499.09" x2="601.35" y1="128.02" y2="128.02" gradientTransform="matrix(1.40127 -.44424 -.08365 1.1595 -577.86 337.96)"/><linearGradient xlink:href="#linear-gradient-2" id="linear-gradient-19" x1="499.86" x2="702.92" y1="93.05" y2="93.05" gradientTransform="matrix(1.40127 -.44424 -.08365 1.1595 -577.86 337.96)"/><linearGradient id="linear-gradient-20" x1="52.88" x2="130.11" y1="378.86" y2="301.64" gradientUnits="userSpaceOnUse"><stop offset=".19" stop-color="#0973b9"/><stop offset="1" stop-color="#1f9bd7"/></linearGradient><linearGradient xlink:href="#linear-gradient-20" id="linear-gradient-21" x1="79.78" x2="88.76" y1="345.65" y2="336.67"/><linearGradient xlink:href="#linear-gradient-20" id="linear-gradient-22" x1="71.89" x2="74.65" y1="348.28" y2="345.52"/><linearGradient xlink:href="#linear-gradient-20" id="linear-gradient-23" x1="50.35" x2="111.04" y1="289.22" y2="228.53"/><linearGradient xlink:href="#linear-gradient-20" id="linear-gradient-24" x1="73.82" x2="88.9" y1="276.57" y2="261.49"/><linearGradient xlink:href="#linear-gradient-20" id="linear-gradient-25" x1="75.38" x2="80.64" y1="282.64" y2="277.38"/><linearGradient xlink:href="#linear-gradient-20" id="linear-gradient-26" x1="45.59" x2="50.56" y1="366.87" y2="361.89"/><linearGradient xlink:href="#linear-gradient-20" id="linear-gradient-27" x1="69.09" x2="74.03" y1="303.04" y2="298.11"/><linearGradient id="linear-gradient-28" x1="56.14" x2="71.3" y1="62.94" y2="62.94" gradientTransform="rotate(-40.89 63.72 62.938)" gradientUnits="userSpaceOnUse"><stop offset=".25" stop-color="#263042"/><stop offset=".69" stop-color="#223755"/><stop offset="1" stop-color="#203e67"/></linearGradient><linearGradient id="linear-gradient-29" x1="348.63" x2="381.44" y1="51.61" y2="51.61" gradientTransform="rotate(-40.89 365.006 51.608)" gradientUnits="userSpaceOnUse"><stop offset=".27" stop-color="#1688c9"/><stop offset=".67" stop-color="#28a1db"/><stop offset=".77" stop-color="#2ea8e0"/></linearGradient><linearGradient xlink:href="#linear-gradient-29" id="linear-gradient-30" x1="327.27" x2="342.07" y1="324.86" y2="324.86" gradientTransform="rotate(-58.3 334.675 324.858)"/><clipPath id="clippath"><rect width="371.34" height="357.75" x="26.02" y="22.93" class="cls-2" rx="8.47" ry="8.47"/></clipPath><filter id="drop-shadow-1" filterUnits="userSpaceOnUse"><feOffset dy="2.82"/><feGaussianBlur result="blur" stdDeviation="8.47"/><feFlood flood-color="#000" flood-opacity=".2"/><feComposite in2="blur" operator="in"/><feComposite in="SourceGraphic"/></filter><style>.cls-12,.cls-2,.cls-3{fill:none}.cls-2,.cls-27,.cls-28{stroke-width:0}.cls-3{stroke:#263042;stroke-linejoin:round;stroke-width:6px}.cls-12{stroke-miterlimit:10}.cls-27{fill:#14b8f9}.cls-12{stroke:#f6f7f8;stroke-width:4px}.cls-28{fill:#fff}</style></defs><rect width="371.34" height="357.75" x="26.02" y="22.93" rx="8.47" ry="8.47" style="fill:url(#linear-gradient);filter:url(#drop-shadow-1);stroke-width:0"/><rect width="371.34" height="357.75" x="26.02" y="22.93" class="cls-2" rx="8.47" ry="8.47"/><g style="clip-path:url(#clippath)"><path d="M69.9 20.7c27.07 39.44 54.15 98.84 29.04 178.08-10.41 29.71-23.33 33.78-26.52 55.68" style="stroke:url(#linear-gradient-2);stroke-miterlimit:10;stroke-width:.41px;fill:none"/><path d="M76.2 252.15c3.2-21.98 13.07-46.26 22.38-76.5 27.27-88.58 23.93-134.38 15.23-156.25" style="stroke:url(#linear-gradient-3);stroke-miterlimit:10;stroke-width:.41px;fill:none"/><path d="M147.06 20.09c2.83 8.26 3.38 18.78 1.57 31.25-.42 2.91-.98 5.95-1.66 9.04-5.52 25.29-16.42 49.45-26.95 72.81-5.86 12.99-11.91 26.43-16.84 39.66-10.38 27.92-16.92 51.74-19.98 72.82" style="stroke:url(#linear-gradient-4);stroke-miterlimit:10;stroke-width:.41px;fill:none"/><path d="M87.75 240.78c4.99-34.34 19.94-68.26 34.4-101.06 11.88-26.96 23.1-52.42 29.4-78.32 1.11-4.56 1.98-9.02 2.6-13.24 1.63-11.19 1.48-20.91-.38-28.95" style="stroke:url(#linear-gradient-5);stroke-miterlimit:10;stroke-width:.41px;fill:none"/><path d="M162.42 19.23c.66 6.48.4 13.86-.8 22.1-.68 4.7-1.68 9.71-2.97 14.89-5.96 23.93-17.03 48.96-28.75 75.46-15.08 34.1-30.67 69.36-35.72 104.1" style="stroke:url(#linear-gradient-6);stroke-miterlimit:10;stroke-width:.41px;fill:none"/><path d="M100.36 232.2c4.87-33.5 19.07-67.24 33.78-100.19 13.43-30.07 26.11-58.46 31.74-86.71.51-2.57.95-5.1 1.3-7.51.97-6.64 1.33-12.7 1.09-18.2" style="stroke-miterlimit:10;stroke-width:.41px;stroke:url(#linear-gradient-7);fill:none"/><path d="M175.73 19.62c-.16 3.27-.5 6.72-1.02 10.33-.47 3.2-1.08 6.59-1.84 10.08-7.04 32.44-20.31 62.35-33.14 91.28-4.1 9.24-8.34 18.8-12.26 28.19-11.39 27.3-18.35 50.42-21.3 70.68" style="stroke:url(#linear-gradient-8);stroke-miterlimit:10;stroke-width:.41px;fill:none"/><path d="M89.03 229.62c27.71-84.26 109.21-166.81 136.53-210.07" style="stroke:url(#linear-gradient-9);stroke-miterlimit:10;stroke-width:.41px;fill:none"/><path d="M399.78 234.96c-4.58-.18-8.87-.63-12.85-1.33-10.41-1.84-47.03-39.52-112.27-7.18-24.92 12.35-48.92 31.08-65.38 43.01-31.39 22.75-73.16 52.1-117.91 77.29" style="stroke:url(#linear-gradient-10);stroke-width:.46px;stroke-miterlimit:10;fill:none"/><path d="M91.14 343.47c42.2-23.75 82.16-51.73 112.26-73.46l2.18-1.57c20.28-14.64 49.28-32.71 74.8-49.75 52.9-35.33 83.23-7 85.1-5.35 6.87 6.06 14.87 10.22 24.46 12.73 2.57.67 5.28 1.22 8.14 1.64" style="stroke:url(#linear-gradient-11);stroke-width:.46px;stroke-miterlimit:10;fill:none"/><path d="M400.23 210.89c-4.54-.71-8.64-2.05-12.03-4.44-43.35-30.53-78.9-18.12-97.12-6.81-26.6 16.52-55.82 39.83-75.16 55.25-2.05 1.64-4.01 3.2-5.86 4.67-35.21 27.98-73.47 57.4-114.69 83.01" style="stroke:url(#linear-gradient-12);stroke-width:.46px;stroke-miterlimit:10;fill:none"/><path d="M94.26 339.97c40.08-24.89 77.88-53.98 112.77-81.71 3.63-2.89 7.72-6.19 12.05-9.68 21.26-17.15 50.38-40.64 76.95-57.13 16.34-10.15 29.96-16.52 40.49-18.94 17.71-4.07 23.79 2.13 29.67 8.13.97.99 1.97 2.01 3 2.95 6.2 5.68 13.19 11.53 22.31 15.81a63.77 63.77 0 0 0 7.76 3.03" style="stroke:url(#linear-gradient-13);stroke-width:.46px;stroke-miterlimit:10;fill:none"/><path d="M399.91 195.24a61.332 61.332 0 0 1-8.69-4.83c-6.67-4.45-12.16-9.87-17.48-15.11-1.1-1.09-2.2-2.17-3.31-3.25-.52-.51-1.04-1.03-1.56-1.55-6.51-6.49-13.24-13.21-33.65-7.03-7.3 2.21-15.69 6.29-25.64 12.47-13.33 8.28-27.03 18.88-38.04 27.39l-2.13 1.65c-15.81 12.21-31.53 24.79-46.74 36.95-5.86 4.68-11.91 9.53-17.89 14.28-32.42 25.79-70.45 55.45-111.51 80.95" style="stroke-width:.46px;stroke:url(#linear-gradient-14);stroke-miterlimit:10;fill:none"/><path d="M92.99 333.69c38.26-23.76 75.12-52.19 109.24-79.37 10.85-8.65 21.78-17.48 32.35-26.02 10.52-8.51 21.41-17.3 32.22-25.92 1.02-.81 2.07-1.65 3.13-2.5 12.01-9.59 26.95-21.52 41.7-30.68 9.13-5.67 17.09-9.64 24.33-12.12 13.43-4.61 24.19-4.74 32.9-.42 7.53 3.74 12.58 10.34 17.04 16.17 3 3.92 5.83 7.63 9.1 10.12a58.06 58.06 0 0 0 4.99 3.43" style="stroke:url(#linear-gradient-15);stroke-width:.46px;stroke-miterlimit:10;fill:none"/><path d="M400.37 172.29c-1.4-1.06-2.78-2.19-4.14-3.39-2.55-2.24-4.88-5.25-7.34-8.43-9.38-12.11-21.06-27.18-55.35-12.57-5.97 2.55-12.21 5.85-19.08 10.12-15.85 9.84-31.35 22.55-45.03 33.76-1.29 1.06-2.56 2.1-3.81 3.12-6.31 5.16-12.71 10.41-18.9 15.49-14.67 12.05-29.84 24.5-45.04 36.67-30.77 24.62-67.37 52.99-105.45 76.64" style="stroke:url(#linear-gradient-16);stroke-width:.46px;stroke-miterlimit:10;fill:none"/><path d="M97.3 319.77c35.36-21.96 69.37-48.2 95.05-68.6 20.62-16.39 40.97-33.27 60.65-49.6l2.99-2.48c2.68-2.22 5.34-4.45 8.15-6.81 15.56-13.03 33.19-27.79 51.75-39.32 2.68-1.66 5.36-3.25 7.96-4.71 20.41-11.45 36.36-15.25 48.78-11.62 10.56 3.09 16.75 10.96 22.22 17.9 2.23 2.83 4.34 5.51 6.53 7.56" style="stroke:url(#linear-gradient-17);stroke-width:.46px;stroke-miterlimit:10;fill:none"/><path d="M257.56 171.68c-3.68 3.26-6.89 7.25-10.35 10.84-20.3 21.06-38.77 39.43-56.44 56.18-31.73 30.06-58.17 54.24-83.15 72.69" style="stroke:url(#linear-gradient-18);stroke-width:.46px;stroke-miterlimit:10;fill:none"/><path d="M109.02 306.59c25.08-18.51 94.57-98.44 113.57-139.75 67.23-146.16 170.61-67.1 176.85-59.6.57.69 1.14 1.36 1.7 2.03" style="stroke:url(#linear-gradient-19);stroke-width:.46px;stroke-miterlimit:10;fill:none"/><path d="m68.03 340.22-26.65 18.24s-3.51 13.33 10.52 14.73c-.7-.7 25.95-18.94 25.95-18.94l18.94 8.42 44.89-32.26s-.19-34.25-28.76-35.07c-2.1 0-44.19 27.35-44.19 27.35l-.7 17.53Z" style="fill:url(#linear-gradient-20);stroke:#263042;stroke-linejoin:round;stroke-width:6px"/><path d="M68.73 322.68s28.06 8.42 28.06 39.98" style="fill:url(#linear-gradient-21);stroke:#263042;stroke-linejoin:round;stroke-width:6px"/><path d="M68.03 340.22s9.12 4.21 9.82 14.03" style="fill:url(#linear-gradient-22);stroke:#263042;stroke-linejoin:round;stroke-width:6px"/><path d="m95.38 306.55 14.03 4.91-3.5 9.82 15.43 6.31-2.3 17.65" class="cls-3"/><path d="m61.02 263.77 13.13-41.97s6.07-9.35 22.64-3.62c14.53 5.02 14.73 16.13 14.73 16.13l-9.82 39.98-15.63 8.53-7.16 21.63s-6.89 6.94-12.62.7c-4.4-4.8-2.81-7.72-2.81-7.72l6.46-20.23-8.92-13.44Z" style="fill:url(#linear-gradient-23);stroke:#263042;stroke-linejoin:round;stroke-width:6px"/><path d="M61.02 263.77s19.64-8.42 40.68 10.52" style="fill:url(#linear-gradient-24);stroke:#263042;stroke-linejoin:round;stroke-width:6px"/><path d="m70.14 239.92 11.22-3.51 7.01 9.82 11.92-5.61 5.62 11.93" class="cls-3"/><path d="M69.94 277.21s7.01-3.51 16.13 5.61" style="fill:url(#linear-gradient-25);stroke:#263042;stroke-linejoin:round;stroke-width:6px"/><path d="M51.9 373.18s7.21-12.04-10.52-14.73" style="fill:url(#linear-gradient-26);stroke:#263042;stroke-linejoin:round;stroke-width:6px"/><path d="M78.91 304.45s-4.01-10.63-15.43-7.01" style="fill:url(#linear-gradient-27);stroke:#263042;stroke-linejoin:round;stroke-width:6px"/><path d="M69.95 303.58s-4.98 34.02-48.13 44.81M46.71 364.98s-35.68 39-43.98 52.28" class="cls-12"/></g><path d="M359.5 255.07s-.01 0-.02.01h.02Z" class="cls-28"/><path d="M58.34 57.57h10.75v10.75H58.34z" style="fill:url(#linear-gradient-28);stroke-width:0" transform="rotate(40.89 63.717 62.94)"/><path d="M353.4 39.97h23.26v23.26H353.4z" style="fill:url(#linear-gradient-29);stroke-width:0" transform="rotate(40.89 365.013 51.596)"/><path d="m343.007 117.26 3.88 10.025-10.025 3.88-3.88-10.025zM176.252 353.91l10.722-.77.77 10.723-10.722.77z" class="cls-28"/><path d="M329.3 319.49h10.75v10.75H329.3z" style="fill:url(#linear-gradient-30);stroke-width:0" transform="rotate(58.3 334.671 324.853)"/><path d="M143.54 114.23h-10.33V98.71h-11.95v15.52h-10.34V76.17h10.34v14.11h11.95V76.17h10.33v38.06ZM183.12 114.23l-1.88-7.13h-12.37l-1.93 7.13h-11.3l12.42-38.22h13.72l12.57 38.22H183.1Zm-4.01-15.57-1.64-6.25c-.17-.68-.43-1.64-.75-2.9-.33-1.26-.66-2.56-.98-3.91s-.57-2.45-.74-3.32c-.16.87-.38 1.94-.66 3.21-.29 1.28-.58 2.54-.89 3.79s-.57 2.29-.79 3.12l-1.64 6.25h8.1ZM219.65 76.17c4.83 0 8.44 1.05 10.84 3.15 2.4 2.1 3.61 5.08 3.61 8.96 0 1.74-.25 3.4-.74 5s-1.3 3.02-2.42 4.27c-1.12 1.25-2.6 2.24-4.45 2.97s-4.13 1.09-6.83 1.09h-2.89v12.63h-10.28V76.18h13.17Zm-.24 8.3h-2.66v8.75h2.03c.88 0 1.71-.15 2.47-.46s1.38-.8 1.84-1.48c.46-.68.69-1.6.69-2.75s-.36-2.17-1.07-2.93-1.81-1.13-3.31-1.13ZM261.33 76.17c4.83 0 8.44 1.05 10.84 3.15 2.4 2.1 3.61 5.08 3.61 8.96 0 1.74-.25 3.4-.74 5s-1.3 3.02-2.42 4.27c-1.12 1.25-2.6 2.24-4.45 2.97s-4.13 1.09-6.83 1.09h-2.89v12.63h-10.28V76.18h13.17Zm-.23 8.3h-2.66v8.75h2.03c.88 0 1.71-.15 2.47-.46s1.38-.8 1.84-1.48c.46-.68.69-1.6.69-2.75s-.36-2.17-1.07-2.93-1.81-1.13-3.31-1.13ZM303.43 90.28l6.56-14.11h11.14l-12.52 23.2v14.87h-10.36V99.69l-12.52-23.51h11.19l6.51 14.11ZM141.99 280.83l-13.38-44.29h10.15l8.13 31.77h.47l8.05-31.77h10.11l-13.46 44.29v22.13h-10.07v-22.13Zm29.4-44.29h24.62v7.93h-14.54v19.87h11.24v7.93h-11.24v22.75h14.93v7.93h-25.01v-66.42Zm39.59 0h11.59l12.29 66.42h-10.19l-1.83-11.9h-12.13l-1.75 11.9h-10.23l12.25-66.42Zm10.69 46.94-4.67-33.1h-.43l-4.71 33.1h9.8Zm19.6-46.94h10.93c1.24 0 2.61.05 4.1.16 1.49.1 2.98.36 4.47.76s2.93 1 4.32 1.81c1.39.8 2.62 1.91 3.7 3.31 1.08 1.4 1.94 3.16 2.59 5.27.65 2.11.97 4.67.97 7.68v1.67c0 5.06-.73 9.17-2.18 12.35-1.45 3.18-3.59 5.46-6.42 6.86l10.66 26.56h-10.66l-8.83-24.85h-3.77v24.85h-9.88v-66.42Zm11.4 34.3c1.76 0 3.25-.19 4.47-.58 1.22-.39 2.2-1.04 2.96-1.96.75-.92 1.3-2.14 1.63-3.66.34-1.52.5-3.39.5-5.62v-5.25c0-1.71-.16-3.19-.47-4.43-.31-1.24-.84-2.27-1.57-3.07s-1.72-1.4-2.94-1.79-2.75-.58-4.59-.58h-1.52v26.95h1.52Zm31.11 25.24c0-2.72.54-4.67 1.63-5.85 1.09-1.18 2.57-1.77 4.43-1.77s3.45.62 4.51 1.87c1.06 1.24 1.59 3.16 1.59 5.76 0 2.36-.54 4.19-1.61 5.48-1.08 1.3-2.59 1.94-4.53 1.94-1.84 0-3.31-.63-4.39-1.89-1.09-1.26-1.63-3.1-1.63-5.54Zm.66-63.62h10.62l-1.21 48.92h-8.05l-1.36-48.92Z" class="cls-28"/><path d="M165.45 206.17h-5.1l-41.94-62.76h-.24c.06 1.75.12 3.52.17 5.32s.1 3.64.15 5.53c.05 1.89.07 3.84.07 5.85v46.07h-4.76v-70.97h5.15l41.79 62.57h.24c-.03-1.42-.07-3.07-.12-4.95-.05-1.88-.1-3.8-.15-5.78s-.07-3.83-.07-5.58v-46.26h4.81v70.97ZM224.28 206.17H185.5V135.2h38.78v4.51h-33.79v26.89h31.89v4.51h-31.89v30.53h33.79v4.51ZM316.7 135.2l-19.37 70.97h-4.85l-15.19-53.59c-.36-1.13-.67-2.21-.95-3.23-.27-1.02-.53-1.99-.78-2.91-.24-.92-.47-1.8-.68-2.62-.21-.83-.38-1.58-.51-2.26-.13.68-.27 1.4-.41 2.16-.15.76-.32 1.55-.51 2.35-.19.81-.41 1.65-.63 2.52-.23.87-.47 1.78-.73 2.72l-15.14 54.85h-4.9l-19.12-70.97h5.15l13.35 50.05c.36 1.33.69 2.59 1 3.79s.59 2.35.85 3.47.51 2.2.75 3.25c.24 1.05.46 2.11.66 3.18.23-1.07.45-2.15.68-3.25.23-1.1.48-2.22.75-3.35s.57-2.31.87-3.52.66-2.48 1.04-3.81l13.93-49.8h5l14.46 50.09c.39 1.39.74 2.7 1.07 3.93.32 1.23.61 2.4.87 3.52s.5 2.2.73 3.25c.23 1.05.45 2.11.68 3.18.26-1.46.53-2.89.8-4.3.27-1.41.61-2.89 1-4.44.39-1.55.83-3.25 1.31-5.1l13.64-50.14h5.19Z" class="cls-27"/></svg>