<svg xmlns="http://www.w3.org/2000/svg" xmlns:xlink="http://www.w3.org/1999/xlink" viewBox="0 0 441 349"><defs><linearGradient id="linear-gradient" x1="62.01" x2="412.69" y1="69.4" y2="69.4" gradientUnits="userSpaceOnUse"><stop offset=".25" stop-color="#263042"/><stop offset=".69" stop-color="#223755"/><stop offset="1" stop-color="#203e67"/></linearGradient><linearGradient id="linear-gradient-2" x1="100" x2="271.63" y1="67.68" y2="67.68" gradientUnits="userSpaceOnUse"><stop offset=".27" stop-color="#1688c9"/><stop offset=".67" stop-color="#28a1db"/><stop offset=".77" stop-color="#2ea8e0"/></linearGradient><linearGradient id="linear-gradient-3" x1="99.3" x2="213.61" y1="195.41" y2="195.41" gradientUnits="userSpaceOnUse"><stop offset=".27" stop-color="#1688c9"/><stop offset=".64" stop-color="#229fd9"/><stop offset=".77" stop-color="#2ea8e0"/></linearGradient><linearGradient xlink:href="#linear-gradient-3" id="linear-gradient-4" x1="124.29" x2="147.86" y1="171.09" y2="171.09"/><linearGradient id="linear-gradient-5" x1="130.01" x2="156.9" y1="195.98" y2="195.98" gradientUnits="userSpaceOnUse"><stop offset="0" stop-color="#2c2c2c"/><stop offset=".5"/><stop offset=".7" stop-color="#0f0f0f"/><stop offset="1" stop-color="#2c2c2c"/></linearGradient><linearGradient xlink:href="#linear-gradient-5" id="linear-gradient-6" x1="98.1" x2="134.95"/><linearGradient xlink:href="#linear-gradient-5" id="linear-gradient-7" x1="153.91" x2="178.27"/><linearGradient xlink:href="#linear-gradient-5" id="linear-gradient-8" x1="92.13" x2="113.54" y1="194.06" y2="194.06"/><linearGradient xlink:href="#linear-gradient-5" id="linear-gradient-9" x1="92.13" x2="96.57" y1="204.95" y2="204.95"/><linearGradient xlink:href="#linear-gradient-5" id="linear-gradient-10" x1="177.73" x2="220.61"/><clipPath id="clippath"><path d="m111.74 225.03 16.84-16.84 14.88 14.88c2.41 2.41 6.36 2.41 8.76 0l28.9-28.9 20.1 20.1v23.44c0 1.3-1.1 2.41-2.41 2.41h-84.67c-1.3 0-2.41-1.1-2.41-2.41v-12.68Zm64.98-43.99-28.9 28.9-14.88-14.88c-1.22-1.22-2.77-1.79-4.36-1.79s-3.18.61-4.36 1.79l-12.43 12.43v-54.42c0-1.3 1.1-2.45 2.41-2.45h84.59c1.3 0 2.41 1.1 2.41 2.41v43.7l-15.69-15.69c-2.45-2.41-6.36-2.41-8.76 0Zm22.05-42.76h-84.63c-8.19 0-14.84 6.64-14.84 14.84v84.59c0 8.15 6.64 14.84 14.84 14.84h84.63c8.15 0 14.84-6.64 14.84-14.8v-84.67c0-8.15-6.64-14.8-14.84-14.8Zm-62.7 21.03c-6.48 0-11.78 5.3-11.78 11.78s5.3 11.78 11.78 11.78 11.78-5.3 11.78-11.78c0-6.48-5.26-11.78-11.78-11.78" style="fill:none;stroke-width:0"/></clipPath><filter id="drop-shadow-1" filterUnits="userSpaceOnUse"><feOffset dy="3"/><feGaussianBlur result="blur" stdDeviation="8.99"/><feFlood flood-color="#000" flood-opacity=".15"/><feComposite in2="blur" operator="in"/><feComposite in="SourceGraphic"/></filter><style>.cls-16{stroke-miterlimit:10;fill:#fff;stroke:#c7cbd5;stroke-width:5.32px}</style></defs><g style="isolation:isolate"><g id="Layer_1"><path d="M62.01 275.42V48.07c0-12.79 10.46-23.25 23.25-23.25h304.17c12.79 0 23.25 10.46 23.25 23.25v246.88c0 12.79-10.46 23.25-23.25 23.25H27.69s34.32.15 34.32-42.79Z" style="fill:#fff;stroke-miterlimit:10;filter:url(#drop-shadow-1);stroke:#c7ccd7;stroke-width:1.06px"/><path d="M412.69 113.98V48.07c0-12.79-10.46-23.25-23.25-23.25H85.26c-12.79 0-23.25 10.46-23.25 23.25v65.91h350.68Z" style="fill:url(#linear-gradient);stroke-width:0"/><path d="m106.2 83.13 1.92-11.18-8.12-7.92 11.23-1.63 5.02-10.17 5.02 10.17 11.23 1.63-8.12 7.92 1.92 11.18-10.04-5.28-10.04 5.28Zm44.83-5.28 10.04 5.28-1.92-11.18 8.12-7.92-11.23-1.63-5.02-10.17L146 62.4l-11.23 1.63 8.12 7.92-1.92 11.18 10.04-5.28Zm34.78 0 10.04 5.28-1.92-11.18 8.12-7.92-11.23-1.63-5.02-10.17-5.02 10.17-11.23 1.63 8.12 7.92-1.92 11.18 10.04-5.28Zm34.79 0 10.04 5.28-1.92-11.18 8.12-7.92-11.23-1.63-5.02-10.17-5.02 10.17-11.23 1.63 8.12 7.92-1.92 11.18 10.04-5.28Zm34.78 0 10.04 5.28-1.92-11.18 8.12-7.92-11.23-1.63-5.02-10.17-5.02 10.17-11.23 1.63 8.12 7.92-1.92 11.18 10.04-5.28Z" style="fill:url(#linear-gradient-2);stroke-width:0"/><path d="M99.7 281.71h274.03" class="cls-16"/><path d="m111.74 225.03 16.84-16.84 14.88 14.88c2.41 2.41 6.36 2.41 8.76 0l28.9-28.9 20.1 20.1v23.44c0 1.3-1.1 2.41-2.41 2.41h-84.67c-1.3 0-2.41-1.1-2.41-2.41v-12.68Zm64.98-43.99-28.9 28.9-14.88-14.88c-1.22-1.22-2.77-1.79-4.36-1.79s-3.18.61-4.36 1.79l-12.43 12.43v-54.42c0-1.3 1.1-2.45 2.41-2.45h84.59c1.3 0 2.41 1.1 2.41 2.41v43.7l-15.69-15.69c-2.45-2.41-6.36-2.41-8.76 0Zm22.05-42.76h-84.63c-8.19 0-14.84 6.64-14.84 14.84v84.59c0 8.15 6.64 14.84 14.84 14.84h84.63c8.15 0 14.84-6.64 14.84-14.8v-84.67c0-8.15-6.64-14.8-14.84-14.8Z" style="fill:url(#linear-gradient-3);stroke-width:0"/><path d="M136.07 159.31c-6.48 0-11.78 5.3-11.78 11.78s5.3 11.78 11.78 11.78 11.78-5.3 11.78-11.78c0-6.48-5.26-11.78-11.78-11.78" style="fill:url(#linear-gradient-4);stroke-width:0"/><path d="M235.66 200.16h138.07M235.66 172.98h138.07M235.66 145.8h138.07M235.66 227.34h138.07M235.66 254.52h138.07" class="cls-16"/><g style="opacity:.5"><g style="clip-path:url(#clippath)"><g style="isolation:isolate;mix-blend-mode:overlay;opacity:.7"><path d="M132.34 129.66c-3.1 20.53 1.21 40.37 5.44 59.76.41 1.88.81 3.74 1.21 5.6.42 1.97.87 3.95 1.32 5.94 2.93 12.95 5.96 26.35 2.63 40.47-1.8 7.64-5.74 14.62-11.63 20.87h16.52c2.68-3.79 4.71-7.83 6.09-12.12 4.65-14.52 1.72-28.38-1.12-41.78-.4-1.88-.8-3.76-1.17-5.62-.51-2.57-1.05-5.16-1.59-7.76-4.37-21.12-8.84-42.79-4.06-65.36h-13.63Z" style="stroke:url(#linear-gradient-5);stroke-width:1.11px;stroke-miterlimit:10;fill:none"/><path d="M108.31 129.66c-1.17 18.65 3.16 36.61 7.2 53.28.32 1.32.65 2.67.99 4.02 3.66 14.84 7.81 31.67 3.97 47.15-2.81 11.36-9.6 20.69-20.57 28.18h18.41c8.6-7.59 13.84-16.55 15.41-26.66 2.07-13.32-.99-26.13-3.94-38.52-.52-2.18-1.04-4.34-1.52-6.5l-.57-2.51c-4.29-18.98-8.66-38.38-6.14-58.46h-13.24Z" style="stroke:url(#linear-gradient-6);stroke-width:1.11px;stroke-miterlimit:10;fill:none"/><path d="M156.89 129.66c-5.32 22.98-.83 45.57 3.28 66.12l.7 3.49c3.28 16.52 6.99 35.24 2.05 52.17a50.521 50.521 0 0 1-4.59 10.85h14.87c.56-1.34 1.09-2.71 1.55-4.11 5.24-16.21 2.61-34-.8-52.32-.35-1.89-.72-3.8-1.08-5.72-4.15-21.8-8.74-45.97-1.8-70.49H156.9Z" style="stroke:url(#linear-gradient-7);stroke-width:1.11px;stroke-miterlimit:10;fill:none"/><path d="M96.96 167.32c.7 3.86 1.68 7.98 2.71 12.34 3.3 13.95 7.04 29.77 3.61 44.66-1.76 7.66-5.27 14.41-10.6 20.34v13.28c27.52-19.44 20.89-48.14 15.36-72.03-.39-1.68-.77-3.33-1.14-4.96-3.6-16.05-7.47-33.29-6.41-51.28h-6.66c-.66 12.78.91 25.39 3.14 37.65Z" style="stroke:url(#linear-gradient-8);stroke-width:1.11px;stroke-miterlimit:10;fill:none"/><path d="M92.68 183.71v44.75c.79-2.03 1.45-4.13 1.95-6.32 2.93-12.68.7-26.1-1.95-38.44Z" style="stroke:url(#linear-gradient-9);stroke-width:1.11px;stroke-miterlimit:10;fill:none"/><path d="M183.59 201.18c.44 2.39.89 4.76 1.31 7.11 3.18 17.61 5.79 36.2.05 53.03-.11.33-.25.65-.37.98h35.48V129.66H182.3c-7.47 24.49-3.03 48.34 1.29 71.52Z" style="stroke-width:1.11px;stroke:url(#linear-gradient-10);stroke-miterlimit:10;fill:none"/></g></g></g></g></g></svg>