<svg xmlns="http://www.w3.org/2000/svg" xmlns:xlink="http://www.w3.org/1999/xlink" id="Layer_1" viewBox="0 0 333 318.88"><defs><linearGradient id="linear-gradient" x1="9.63" x2="304.17" y1="159.7" y2="159.7" gradientUnits="userSpaceOnUse"><stop offset="0" stop-color="#0389d0"/><stop offset=".9" stop-color="#06acee"/></linearGradient><linearGradient id="linear-gradient-2" x1="37.79" x2="282.74" y1="203.87" y2="203.87" gradientTransform="matrix(1 0 0 -1 0 348.19)" gradientUnits="userSpaceOnUse"><stop offset="0" stop-color="#263042"/><stop offset="1" stop-color="#107ab7"/></linearGradient><linearGradient xlink:href="#linear-gradient-2" id="linear-gradient-3" x1="9.63" x2="304.17" y1="159.7" y2="159.7"/><linearGradient xlink:href="#linear-gradient-2" id="linear-gradient-4" x1="9.63" x2="304.17" y1="159.7" y2="159.7"/><linearGradient id="linear-gradient-5" x1="16.21" x2="304.33" y1="123.91" y2="123.91" gradientUnits="userSpaceOnUse"><stop offset=".1" stop-color="#06acee"/><stop offset="1" stop-color="#0389d0"/></linearGradient><linearGradient xlink:href="#linear-gradient-5" id="linear-gradient-6" x1="6.57" x2="274.1" y1="203.82" y2="203.82"/><linearGradient xlink:href="#linear-gradient-5" id="linear-gradient-7" x1="7.11" x2="289.87" y1="184.64" y2="184.64"/><linearGradient xlink:href="#linear-gradient-5" id="linear-gradient-8" x1="7.68" x2="295.8" y1="174.57" y2="174.57"/><linearGradient xlink:href="#linear-gradient-5" id="linear-gradient-9" x1="46.99" x2="236.25" y1="74.66" y2="74.66"/><linearGradient xlink:href="#linear-gradient-5" id="linear-gradient-10" x1="68.07" x2="210.17" y1="245.9" y2="245.9"/><linearGradient xlink:href="#linear-gradient-5" id="linear-gradient-11" x1="11.4" x2="267.21" y1="213.08" y2="213.08"/><linearGradient xlink:href="#linear-gradient-5" id="linear-gradient-12" x1="6.46" x2="281.1" y1="194.29" y2="194.29"/><linearGradient xlink:href="#linear-gradient-5" id="linear-gradient-13" x1="102.14" x2="166.85" y1="253.14" y2="253.14"/><linearGradient xlink:href="#linear-gradient-5" id="linear-gradient-14" x1="21.04" x2="253.37" y1="221.23" y2="221.23"/><linearGradient xlink:href="#linear-gradient-5" id="linear-gradient-15" x1="38.2" x2="231.74" y1="233.78" y2="233.78"/><linearGradient xlink:href="#linear-gradient-5" id="linear-gradient-16" x1="27.79" x2="280.89" y1="100.63" y2="100.63"/><linearGradient xlink:href="#linear-gradient-5" id="linear-gradient-17" x1="12.32" x2="307.45" y1="148.7" y2="148.7"/><linearGradient xlink:href="#linear-gradient-5" id="linear-gradient-18" x1="9.23" x2="300.28" y1="162.89" y2="162.89"/><linearGradient id="linear-gradient-19" x1="15.86" x2="304.61" y1="123.9" y2="123.9" gradientUnits="userSpaceOnUse"><stop offset="0" stop-color="#107ab7"/><stop offset="1" stop-color="#263042"/></linearGradient><linearGradient xlink:href="#linear-gradient-19" id="linear-gradient-20" x1="6.27" x2="274.53" y1="203.84" y2="203.84"/><linearGradient xlink:href="#linear-gradient-19" id="linear-gradient-21" x1="6.85" x2="290.32" y1="184.66" y2="184.66"/><linearGradient xlink:href="#linear-gradient-19" id="linear-gradient-22" x1="7.42" x2="296.13" y1="174.61" y2="174.61"/><linearGradient xlink:href="#linear-gradient-19" id="linear-gradient-23" x1="46.36" x2="236.93" y1="74.66" y2="74.66"/><linearGradient xlink:href="#linear-gradient-19" id="linear-gradient-24" x1="67.14" x2="210.99" y1="245.9" y2="245.9"/><linearGradient xlink:href="#linear-gradient-19" id="linear-gradient-25" x1="10.96" x2="267.75" y1="213.09" y2="213.09"/><linearGradient xlink:href="#linear-gradient-19" id="linear-gradient-26" x1="6.19" x2="281.53" y1="194.32" y2="194.32"/><linearGradient xlink:href="#linear-gradient-19" id="linear-gradient-27" x1="101.46" x2="166.94" y1="253.1" y2="253.1"/><linearGradient xlink:href="#linear-gradient-19" id="linear-gradient-28" x1="20.55" x2="254.23" y1="221.23" y2="221.23"/><linearGradient xlink:href="#linear-gradient-19" id="linear-gradient-29" x1="37.64" x2="232.51" y1="233.78" y2="233.78"/><linearGradient xlink:href="#linear-gradient-19" id="linear-gradient-30" x1="27.17" x2="281.35" y1="100.62" y2="100.62"/><linearGradient xlink:href="#linear-gradient-19" id="linear-gradient-31" x1="11.99" x2="307.7" y1="148.7" y2="148.7"/><linearGradient xlink:href="#linear-gradient-19" id="linear-gradient-32" x1="8.84" x2="300.62" y1="162.91" y2="162.91"/><linearGradient xlink:href="#linear-gradient-5" id="linear-gradient-33" x1="85.01" x2="177.25" y1="206.86" y2="206.86" gradientTransform="matrix(1 0 0 -1 0 348.19)"/><linearGradient id="linear-gradient-34" x1="16.96" x2="304.17" y1="145.39" y2="145.39" gradientUnits="userSpaceOnUse"><stop offset="0" stop-color="#0389d0"/><stop offset=".9" stop-color="#06acee"/></linearGradient><clipPath id="clippath"><path d="m304.09 185.48-3.95-28.61c-.11-.96-.43-2.24-.96-3.52-.53-1.28-1.17-2.67-1.92-4.06-.75-1.39-1.71-2.78-2.56-4.06-.85-1.28-1.92-2.56-2.88-3.63l-26.69-28.61c-.96-1.07-2.24-2.14-3.63-3.42-1.39-1.28-2.99-2.46-4.7-3.74a73.286 73.286 0 0 0-5.12-3.52c-1.71-1.07-3.31-2.03-4.91-2.88l.11-.11-41.75-21.89c-1.49-.75-3.31-1.6-5.34-2.46-2.03-.85-4.16-1.71-6.3-2.46s-4.38-1.6-6.41-2.14c-2.03-.53-4.06-1.07-5.77-1.49l-46.98-10.36c-1.71-.32-3.63-.75-5.77-.96s-4.27-.43-6.41-.64c-2.14-.21-4.27-.32-6.19-.32s-3.74.11-5.23.21L69.3 60.65c-1.6.11-3.2.43-4.91.75s-3.31.75-5.02 1.28c-1.71.53-3.2 1.07-4.59 1.71-1.39.64-2.56 1.28-3.52 1.92L25.85 84.03c-.96.64-1.92 1.49-2.78 2.46-.85.96-1.71 1.92-2.35 3.1-.64 1.17-1.17 2.24-1.6 3.42-.43 1.17-.75 2.24-.75 3.31l-.08 1.67-.66 2.39c-.11.43-.21.75-.32 1.07 0 .32-.11.53-.21.85l-.43 1.39v.21l-.75 2.56c0 .32-.21.53-.21.85v.43c-.21.43-.32.96-.53 1.28v.32l-.32 1.17c-.11.43-.21.85-.32 1.17l-.21.85c0 .32-.21.64-.21.85 0 .11 0 .32-.11.43l-.21.75c-.11.53-.32.96-.43 1.39l-.75 2.78c0 .21-.11.43-.21.64-.11.43-.21.85-.32 1.28l-.21.85v.32l-.53 2.03c0 .21-.11.43-.11.64s0 .43-.11.64v1.17l-1.49 28.4c0 1.07 0 2.35.32 3.63.32 1.39.75 2.78 1.28 4.27.53 1.49 1.17 2.88 2.03 4.38.75 1.39 1.6 2.67 2.46 3.84l24.66 31.39c.21.32.43.53.64.85l.32.32c.11.21.32.32.43.53.11.11.21.21.32.43l.43.43.11.11.43.43c.11.11.21.32.43.43l.11.11.21.21c.43.43.85.75 1.28 1.17l.21.21c.43.43.96.85 1.39 1.17l.21.21h.11c.43.43.96.75 1.39 1.17 0 0 .11 0 .21.11l.21.21c.64.53 1.28 1.07 2.03 1.6l.11.11s.21.11.21.21c.32.21.75.53 1.07.75.43.32.96.64 1.39.96 0 0 .11 0 .21.11.43.32.75.53 1.17.75.11 0 .21.21.43.21.32.21.64.43.96.53h.11c.21.11.43.21.53.32.11 0 .21.11.32.21h.11c.21.11.43.21.53.32.21 0 .32.21.53.32l45.06 24.98c.11 0 .21.11.32.21s.21.11.32.21.21.11.32.21c0 0 .11 0 .21.11h.11c.32.11.53.32.85.43.11 0 .32.11.43.21.43.21.96.43 1.39.64h.21c.43.21.85.43 1.39.64.21 0 .32.11.53.21.32.11.64.32.96.43.64.32 1.39.53 2.03.85h.11c.11 0 .21 0 .43.11.53.21 1.07.43 1.6.64.11 0 .21 0 .32.11 0 0 .21 0 .32.11.21 0 .32.11.53.21.11 0 .32 0 .43.11.43.11.75.32 1.17.43.53.21 1.07.32 1.6.53.21 0 .32.11.53.21h.21c.75.21 1.49.53 2.24.75.21 0 .43.11.53.21h.32c.32 0 .64.21.85.21.11 0 .32 0 .43.11h.11c.64.21 1.28.32 1.92.53h.21c.53.11 1.07.32 1.6.43h1.07l51.89 10.68c1.92.43 4.06.75 6.3.96 2.24.21 4.59.43 6.94.53h6.73c2.14 0 4.06-.21 5.66-.53l42.81-6.73c.32 0 .53 0 .85-.11.32-.11.53-.11.85-.21.21 0 .43 0 .64-.11h.21c.32 0 .64-.11.85-.21.32 0 .64-.21.96-.32.11 0 .32 0 .43-.11h.53c.64-.21 1.28-.43 1.92-.64h.11c.53-.21 1.17-.43 1.71-.64.11 0 .21 0 .32-.11h.21c.43-.21.85-.32 1.17-.53h.21c.32-.21.64-.32.96-.53h.11s.21 0 .32-.11c.21-.11.53-.32.75-.43h.21s.11 0 .21-.11c.11 0 .21-.11.32-.21.11 0 .21-.11.32-.21 0 0 .11 0 .21-.11l.11-.11c.21-.11.43-.32.64-.43 0 0 .21-.11.21-.21h.21s.11 0 .21-.11.32-.21.43-.32c0 0 .21-.11.21-.21l.32-.32 21.67-21.25v-.11s.11-.21.21-.32l.21-.21c0-.11.21-.21.32-.32.11-.21.32-.43.43-.64 0 0 0-.11.11-.21 0-.11.11-.21.21-.32.11-.21.21-.43.32-.64 0-.11.11-.21.21-.32v-.21c0-.21.21-.43.32-.75 0-.21.21-.43.32-.75l8.9-23.86-.04-.27c.08-.08.16-.17.24-.26l-.2.52.28-.27c.32-.43.64-.75.96-1.17v-.11c.32-.32.64-.75.85-1.17v-.11c.32-.43.53-.96.75-1.39v-.11h-.05c.34-.66.64-1.36.9-2.14.43-1.28.75-2.46.85-3.74.11-1.28.11-2.46 0-3.52Z" style="fill:url(#linear-gradient-4);stroke-width:0"/></clipPath><clipPath id="clippath-1"><path d="M99.64 70.07c14.09-1.28 29.04-.64 44.09 1.6 15.05 2.24 30.21 6.19 44.63 11.53 14.52 5.23 28.4 11.96 41 19.64 12.6 7.79 23.81 16.66 32.88 26.37 9.08 9.72 15.16 19.64 18.15 29.04 3.1 9.5 3.1 18.47.21 26.48-2.88 8.01-8.86 15.27-17.62 20.93-8.86 5.77-20.71 9.93-35.23 12.06-14.73 2.14-30.75 1.92-47.08-.21-16.44-2.24-33.2-6.41-49.22-12.28-16.01-5.87-31.18-13.35-44.52-22.1-13.24-8.65-24.66-18.58-33.31-29.15-8.65-10.57-13.45-20.82-15.16-30.32-1.71-9.4-.11-18.15 4.27-25.62 4.38-7.47 11.42-13.77 21.14-18.58 9.5-4.7 21.57-7.9 35.77-9.29" style="fill:none;stroke-width:0"/></clipPath><filter id="drop-shadow-1" filterUnits="userSpaceOnUse"><feOffset dx="9.08" dy="9.08"/><feGaussianBlur result="blur" stdDeviation="6.05"/><feFlood flood-color="#000" flood-opacity=".15"/><feComposite in2="blur" operator="in"/><feComposite in="SourceGraphic"/></filter><style>.cls-8{stroke-width:0;fill:#263042}.cls-40{isolation:isolate}</style></defs><path d="m304.09 185.48-3.95-28.61c-.11-.96-.43-2.24-.96-3.52-.53-1.28-1.17-2.67-1.92-4.06-.75-1.39-1.71-2.78-2.56-4.06-.85-1.28-1.92-2.56-2.88-3.63l-26.69-28.61c-.96-1.07-2.24-2.14-3.63-3.42-1.39-1.28-2.99-2.46-4.7-3.74a73.286 73.286 0 0 0-5.12-3.52c-1.71-1.07-3.31-2.03-4.91-2.88l.11-.11-41.75-21.89c-1.49-.75-3.31-1.6-5.34-2.46-2.03-.85-4.16-1.71-6.3-2.46s-4.38-1.6-6.41-2.14c-2.03-.53-4.06-1.07-5.77-1.49l-46.98-10.36c-1.71-.32-3.63-.75-5.77-.96s-4.27-.43-6.41-.64c-2.14-.21-4.27-.32-6.19-.32s-3.74.11-5.23.21L69.3 60.65c-1.6.11-3.2.43-4.91.75s-3.31.75-5.02 1.28c-1.71.53-3.2 1.07-4.59 1.71-1.39.64-2.56 1.28-3.52 1.92L25.85 84.03c-.96.64-1.92 1.49-2.78 2.46-.85.96-1.71 1.92-2.35 3.1-.64 1.17-1.17 2.24-1.6 3.42-.43 1.17-.75 2.24-.75 3.31l-.08 1.67-.66 2.39c-.11.43-.21.75-.32 1.07 0 .32-.11.53-.21.85l-.43 1.39v.21l-.75 2.56c0 .32-.21.53-.21.85v.43c-.21.43-.32.96-.53 1.28v.32l-.32 1.17c-.11.43-.21.85-.32 1.17l-.21.85c0 .32-.21.64-.21.85 0 .11 0 .32-.11.43l-.21.75c-.11.53-.32.96-.43 1.39l-.75 2.78c0 .21-.11.43-.21.64-.11.43-.21.85-.32 1.28l-.21.85v.32l-.53 2.03c0 .21-.11.43-.11.64s0 .43-.11.64v1.17l-1.49 28.4c0 1.07 0 2.35.32 3.63.32 1.39.75 2.78 1.28 4.27.53 1.49 1.17 2.88 2.03 4.38.75 1.39 1.6 2.67 2.46 3.84l24.66 31.39c.21.32.43.53.64.85l.32.32c.11.21.32.32.43.53.11.11.21.21.32.43l.43.43.11.11.43.43c.11.11.21.32.43.43l.11.11.21.21c.43.43.85.75 1.28 1.17l.21.21c.43.43.96.85 1.39 1.17l.21.21h.11c.43.43.96.75 1.39 1.17 0 0 .11 0 .21.11l.21.21c.64.53 1.28 1.07 2.03 1.6l.11.11s.21.11.21.21c.32.21.75.53 1.07.75.43.32.96.64 1.39.96 0 0 .11 0 .21.11.43.32.75.53 1.17.75.11 0 .21.21.43.21.32.21.64.43.96.53h.11c.21.11.43.21.53.32.11 0 .21.11.32.21h.11c.21.11.43.21.53.32.21 0 .32.21.53.32l45.06 24.98c.11 0 .21.11.32.21s.21.11.32.21.21.11.32.21c0 0 .11 0 .21.11h.11c.32.11.53.32.85.43.11 0 .32.11.43.21.43.21.96.43 1.39.64h.21c.43.21.85.43 1.39.64.21 0 .32.11.53.21.32.11.64.32.96.43.64.32 1.39.53 2.03.85h.11c.11 0 .21 0 .43.11.53.21 1.07.43 1.6.64.11 0 .21 0 .32.11 0 0 .21 0 .32.11.21 0 .32.11.53.21.11 0 .32 0 .43.11.43.11.75.32 1.17.43.53.21 1.07.32 1.6.53.21 0 .32.11.53.21h.21c.75.21 1.49.53 2.24.75.21 0 .43.11.53.21h.32c.32 0 .64.21.85.21.11 0 .32 0 .43.11h.11c.64.21 1.28.32 1.92.53h.21c.53.11 1.07.32 1.6.43h1.07l51.89 10.68c1.92.43 4.06.75 6.3.96 2.24.21 4.59.43 6.94.53h6.73c2.14 0 4.06-.21 5.66-.53l42.81-6.73c.32 0 .53 0 .85-.11.32-.11.53-.11.85-.21.21 0 .43 0 .64-.11h.21c.32 0 .64-.11.85-.21.32 0 .64-.21.96-.32.11 0 .32 0 .43-.11h.53c.64-.21 1.28-.43 1.92-.64h.11c.53-.21 1.17-.43 1.71-.64.11 0 .21 0 .32-.11h.21c.43-.21.85-.32 1.17-.53h.21c.32-.21.64-.32.96-.53h.11s.21 0 .32-.11c.21-.11.53-.32.75-.43h.21s.11 0 .21-.11c.11 0 .21-.11.32-.21.11 0 .21-.11.32-.21 0 0 .11 0 .21-.11l.11-.11c.21-.11.43-.32.64-.43 0 0 .21-.11.21-.21h.21s.11 0 .21-.11.32-.21.43-.32c0 0 .21-.11.21-.21l.32-.32 21.67-21.25v-.11s.11-.21.21-.32l.21-.21c0-.11.21-.21.32-.32.11-.21.32-.43.43-.64 0 0 0-.11.11-.21 0-.11.11-.21.21-.32.11-.21.21-.43.32-.64 0-.11.11-.21.21-.32v-.21c0-.21.21-.43.32-.75 0-.21.21-.43.32-.75l8.9-23.86-.04-.27c.08-.08.16-.17.24-.26l-.2.52.28-.27c.32-.43.64-.75.96-1.17v-.11c.32-.32.64-.75.85-1.17v-.11c.32-.43.53-.96.75-1.39v-.11h-.05c.34-.66.64-1.36.9-2.14.43-1.28.75-2.46.85-3.74.11-1.28.11-2.46 0-3.52Z" style="fill:url(#linear-gradient);filter:url(#drop-shadow-1);stroke-width:0"/><path d="M99.64 70.07c14.09-1.28 29.04-.64 44.09 1.6 15.05 2.24 30.21 6.19 44.63 11.53 14.52 5.23 28.4 11.96 41 19.64 12.6 7.79 23.81 16.66 32.88 26.37 9.08 9.72 15.16 19.64 18.15 29.04 3.1 9.5 3.1 18.47.21 26.48s-8.86 15.27-17.62 20.93c-8.86 5.77-20.71 9.93-35.23 12.06-14.73 2.14-30.75 1.92-47.08-.21-16.44-2.24-33.2-6.41-49.22-12.28s-31.18-13.35-44.52-22.1c-13.24-8.65-24.66-18.58-33.31-29.15s-13.45-20.82-15.16-30.32c-1.71-9.4-.11-18.15 4.27-25.62s11.42-13.77 21.14-18.58c9.5-4.7 21.57-7.9 35.77-9.29v-.11Z" style="fill:url(#linear-gradient-2);stroke-width:0"/><path d="m304.09 185.48-3.95-28.61c-.11-.96-.43-2.24-.96-3.52-.53-1.28-1.17-2.67-1.92-4.06-.75-1.39-1.71-2.78-2.56-4.06-.85-1.28-1.92-2.56-2.88-3.63l-26.69-28.61c-.96-1.07-2.24-2.14-3.63-3.42-1.39-1.28-2.99-2.46-4.7-3.74a73.286 73.286 0 0 0-5.12-3.52c-1.71-1.07-3.31-2.03-4.91-2.88l.11-.11-41.75-21.89c-1.49-.75-3.31-1.6-5.34-2.46-2.03-.85-4.16-1.71-6.3-2.46s-4.38-1.6-6.41-2.14c-2.03-.53-4.06-1.07-5.77-1.49l-46.98-10.36c-1.71-.32-3.63-.75-5.77-.96s-4.27-.43-6.41-.64c-2.14-.21-4.27-.32-6.19-.32s-3.74.11-5.23.21L69.3 60.65c-1.6.11-3.2.43-4.91.75s-3.31.75-5.02 1.28c-1.71.53-3.2 1.07-4.59 1.71-1.39.64-2.56 1.28-3.52 1.92L25.85 84.03c-.96.64-1.92 1.49-2.78 2.46-.85.96-1.71 1.92-2.35 3.1-.64 1.17-1.17 2.24-1.6 3.42-.43 1.17-.75 2.24-.75 3.31l-.08 1.67-.66 2.39c-.11.43-.21.75-.32 1.07 0 .32-.11.53-.21.85l-.43 1.39v.21l-.75 2.56c0 .32-.21.53-.21.85v.43c-.21.43-.32.96-.53 1.28v.32l-.32 1.17c-.11.43-.21.85-.32 1.17l-.21.85c0 .32-.21.64-.21.85 0 .11 0 .32-.11.43l-.21.75c-.11.53-.32.96-.43 1.39l-.75 2.78c0 .21-.11.43-.21.64-.11.43-.21.85-.32 1.28l-.21.85v.32l-.53 2.03c0 .21-.11.43-.11.64s0 .43-.11.64v1.17l-1.49 28.4c0 1.07 0 2.35.32 3.63.32 1.39.75 2.78 1.28 4.27.53 1.49 1.17 2.88 2.03 4.38.75 1.39 1.6 2.67 2.46 3.84l24.66 31.39c.21.32.43.53.64.85l.32.32c.11.21.32.32.43.53.11.11.21.21.32.43l.43.43.11.11.43.43c.11.11.21.32.43.43l.11.11.21.21c.43.43.85.75 1.28 1.17l.21.21c.43.43.96.85 1.39 1.17l.21.21h.11c.43.43.96.75 1.39 1.17 0 0 .11 0 .21.11l.21.21c.64.53 1.28 1.07 2.03 1.6l.11.11s.21.11.21.21c.32.21.75.53 1.07.75.43.32.96.64 1.39.96 0 0 .11 0 .21.11.43.32.75.53 1.17.75.11 0 .21.21.43.21.32.21.64.43.96.53h.11c.21.11.43.21.53.32.11 0 .21.11.32.21h.11c.21.11.43.21.53.32.21 0 .32.21.53.32l45.06 24.98c.11 0 .21.11.32.21s.21.11.32.21.21.11.32.21c0 0 .11 0 .21.11h.11c.32.11.53.32.85.43.11 0 .32.11.43.21.43.21.96.43 1.39.64h.21c.43.21.85.43 1.39.64.21 0 .32.11.53.21.32.11.64.32.96.43.64.32 1.39.53 2.03.85h.11c.11 0 .21 0 .43.11.53.21 1.07.43 1.6.64.11 0 .21 0 .32.11 0 0 .21 0 .32.11.21 0 .32.11.53.21.11 0 .32 0 .43.11.43.11.75.32 1.17.43.53.21 1.07.32 1.6.53.21 0 .32.11.53.21h.21c.75.21 1.49.53 2.24.75.21 0 .43.11.53.21h.32c.32 0 .64.21.85.21.11 0 .32 0 .43.11h.11c.64.21 1.28.32 1.92.53h.21c.53.11 1.07.32 1.6.43h1.07l51.89 10.68c1.92.43 4.06.75 6.3.96 2.24.21 4.59.43 6.94.53h6.73c2.14 0 4.06-.21 5.66-.53l42.81-6.73c.32 0 .53 0 .85-.11.32-.11.53-.11.85-.21.21 0 .43 0 .64-.11h.21c.32 0 .64-.11.85-.21.32 0 .64-.21.96-.32.11 0 .32 0 .43-.11h.53c.64-.21 1.28-.43 1.92-.64h.11c.53-.21 1.17-.43 1.71-.64.11 0 .21 0 .32-.11h.21c.43-.21.85-.32 1.17-.53h.21c.32-.21.64-.32.96-.53h.11s.21 0 .32-.11c.21-.11.53-.32.75-.43h.21s.11 0 .21-.11c.11 0 .21-.11.32-.21.11 0 .21-.11.32-.21 0 0 .11 0 .21-.11l.11-.11c.21-.11.43-.32.64-.43 0 0 .21-.11.21-.21h.21s.11 0 .21-.11.32-.21.43-.32c0 0 .21-.11.21-.21l.32-.32 21.67-21.25v-.11s.11-.21.21-.32l.21-.21c0-.11.21-.21.32-.32.11-.21.32-.43.43-.64 0 0 0-.11.11-.21 0-.11.11-.21.21-.32.11-.21.21-.43.32-.64 0-.11.11-.21.21-.32v-.21c0-.21.21-.43.32-.75 0-.21.21-.43.32-.75l8.9-23.86-.04-.27c.08-.08.16-.17.24-.26l-.2.52.28-.27c.32-.43.64-.75.96-1.17v-.11c.32-.32.64-.75.85-1.17v-.11c.32-.43.53-.96.75-1.39v-.11h-.05c.34-.66.64-1.36.9-2.14.43-1.28.75-2.46.85-3.74.11-1.28.11-2.46 0-3.52Z" style="fill:url(#linear-gradient-3)"/><g style="clip-path:url(#clippath)"><path d="M65.26 101.88c48.15 11.96 95.24 28.29 134.95 42.6 13.77 4.91 27.01 9.08 39.18 12.06 24.88 6.22 46.47 8.38 64.66 6.5l-.9-6.51c-.15-1.35-.57-2.89-1.18-4.35a48.32 48.32 0 0 0-2.05-4.33c-.71-1.32-1.58-2.61-2.34-3.75l-.37-.55c-.81-1.21-1.87-2.55-3.19-4.02l-.35-.37c-6.82 1.52-14.11 2.44-21.83 2.76-18.9.75-40.46-1.92-66.09-8.33-6.41-1.6-13.24-3.42-20.18-5.55-4.7-1.39-9.4-2.78-13.99-4.16-34.06-10.14-69.18-20.61-104.1-29.36-16.44-4.09-31.61-7.49-46.34-10.38-.11.12-.23.24-.34.36-.91 1.02-1.94 2.18-2.74 3.65-.52.95-1.05 1.99-1.52 3.16 2.63.48 5.27.98 7.92 1.49 13.24 2.56 26.91 5.66 40.78 9.08Z" style="stroke:url(#linear-gradient-5);stroke-miterlimit:10;stroke-width:.5px;fill:none"/><path d="M40.7 165.73c15.05 1.71 31.07 4.59 47.62 8.75 45.91 11.53 90 30.64 123.31 46.02 20.06 9.28 39.83 19.08 58.85 28.75l3.19-3.13c-21.93-10.8-44.33-21.78-66.95-32.03-33.74-15.27-78.26-34.27-123.42-45.59-16.66-4.16-32.78-7.05-48.04-8.75-10.05-1.11-19.49-1.54-28.39-1.39.04.23.08.45.13.68.33 1.44.77 2.9 1.38 4.61.1.27.2.54.31.81 10.16-.38 20.79.04 32.01 1.27Z" style="stroke:url(#linear-gradient-6);stroke-miterlimit:10;stroke-width:.5px;fill:none"/><path d="M221.88 200.21c-45.8-20.82-95.24-41.85-146.48-54.66-9.4-2.35-18.68-4.38-27.76-6.09-13.4-2.48-26.76-4.12-39.98-4.91L7.37 140c12 .56 24.2 1.9 36.53 4.05 10.14 1.71 20.61 3.95 31.18 6.62 52.42 13.03 102.28 34.81 144.88 54.24 7.79 3.63 15.8 7.26 23.49 10.78 13.75 6.29 27.76 12.72 41.88 19l4.1-4.02c-18.71-7.61-36.72-16.04-51.74-23.1-5.66-2.67-11-5.23-15.8-7.37Z" style="stroke-miterlimit:10;stroke-width:.5px;stroke:url(#linear-gradient-7);fill:none"/><path d="M49.99 134.77c8.54 1.6 17.3 3.52 26.16 5.77 52.64 13.13 102.71 34.38 148.94 55.41 2.46 1.07 5.02 2.24 7.69 3.52 16.27 7.45 37.89 17.36 60.25 25.73.06-.14.11-.28.16-.43v-.03c.1-.16.2-.38.3-.65l1.98-5.32c-27.46-8.68-54.84-21-75.83-30.4l-2.78-1.28c-38.22-17.08-88.94-38.44-141.47-51.57-10.46-2.56-20.82-4.91-30.96-6.73a417.441 417.441 0 0 0-36.17-4.94c-.02.1-.03.22-.04.35l-.12.25v1.81l-.16 2.99c13.93 1 27.98 2.83 42.05 5.53Z" style="stroke:url(#linear-gradient-8);stroke-miterlimit:10;stroke-width:.5px;fill:none"/><path d="M134.12 61.2c-3.2-.43-6.41-.85-9.61-1.28-10.51-1.38-21.1-2.89-31.69-4.47l-23.71 2.2c-1.64.11-3.19.4-4.83.71l-.44.08c-1.68.31-3.39.75-5.36 1.37-2.03.64-3.56 1.21-4.96 1.85-1.53.71-2.85 1.43-3.98 2.19l-1.92 1.34c13.28 2.54 26.5 5.12 39.52 7.66 21.14 4.16 43.03 8.43 64.49 12.38 3.95.75 8.01 1.6 11.96 2.35 20.61 4.06 41.96 8.33 59.26 5.23 4.2-.73 8.47-1.69 12.72-2.83l-29.09-15.25a94.76 94.76 0 0 0-5.52-2.54c-2.43-1.02-4.55-1.85-6.47-2.52l-1.4-.5c-1.74-.62-3.53-1.26-5.24-1.71-2.04-.54-4.08-1.07-5.88-1.52l-3.15-.7c-14.15.2-29.58-1.97-44.69-4.04Z" style="stroke:url(#linear-gradient-9);stroke-miterlimit:10;stroke-width:.5px;fill:none"/><path d="M193.37 265.75c.28.02.55.04.83.05h6.86c2.16 0 4.24-.19 6.19-.58l2.1-.33c-27.46-13.47-55.3-24.85-83.45-31.91-19.88-5.01-38.67-7.3-56.89-6.96l17.43 9.66c13.18.72 27.15 2.92 41.81 6.58 19.95 4.99 41.49 12.75 65.12 23.47Z" style="stroke:url(#linear-gradient-10);stroke-miterlimit:10;stroke-width:.5px;fill:none"/><path d="M31.73 176.19c19.54.53 41 3.74 63.74 9.4 33.74 8.43 70.79 24.56 115.52 45.48 15.85 7.38 32.26 15.54 49.59 24.67.07-.03.14-.06.2-.08.07-.03.15-.06.23-.09h.42l.76-.5c.06-.03.11-.06.17-.09l.12-.06c.32-.08.69-.22 1.05-.45.03-.02.07-.04.11-.06.27-.07.54-.17.79-.3.25-.11.46-.25.64-.38.11-.07.22-.14.31-.2.19-.11.38-.24.55-.39.1-.07.29-.2.29-.21.16-.06.31-.13.46-.21-16.15-8.34-33.97-17.27-52.16-25.79-33.63-15.69-78.15-35.34-124.06-46.76-20.07-5.02-39.18-8.11-56.91-9.29-7.7-.51-14.91-.59-21.7-.3.43.67.9 1.36 1.42 2.08l2.98 3.79c4.92-.3 10.07-.39 15.48-.23Z" style="stroke:url(#linear-gradient-11);stroke-miterlimit:10;stroke-width:.5px;fill:none"/><path d="M81.27 162.95c48.58 12.17 96.52 32.78 136.98 51.46 19.86 9.13 39.82 18.79 59.06 28.14l3.36-3.3c-6.95-3.25-13.86-6.49-20.67-9.69-13.99-6.62-28.29-13.35-42.6-19.86-44.84-20.5-93.1-41.1-142-53.28-11.1-2.78-22.1-5.02-32.67-6.83-12.12-2.02-24.02-3.22-35.67-3.62l-.34 6.46c11.89.05 24.16 1.02 36.76 2.92 12.17 1.82 24.88 4.38 37.8 7.58Z" style="stroke:url(#linear-gradient-12);stroke-miterlimit:10;stroke-width:.5px;fill:none"/><path d="M131.24 250.18c-9.82-2.45-19.29-4.18-28.41-5.23l.47.47h.19l.12.11h.51c.11.06.24.12.38.18l.29.14c.25.13.54.26.83.38.2.09.39.17.57.26l.64.32h.22c.29.14.61.28.97.42l.36.15.06.03.21.07.15.07c.21.11.43.21.64.29.36.17.74.32 1.12.47.25.1.51.19.75.31l.64.32h.4l1.1.44.41.41h.22l.11.11h.62l.12.04.35.17h.34c.06.02.12.05.17.07.2.09.48.21.83.31.29.11.59.2.88.29.18.06.36.11.54.18l.41.17.53.26h.47c.19.06.37.13.56.2.33.12.67.24 1 .34l.42.42h1.21l.09.03.29.29h.92c.22.06.45.12.67.17.25.06.49.12.74.2l.47.16h.35l.29.09c.36.11.72.21 1.08.28l.29.06h1.06l37.86 7.79c-12.43-4.7-24.24-8.44-35.53-11.24Z" style="stroke:url(#linear-gradient-13);stroke-miterlimit:10;stroke-width:.5px;fill:none"/><path d="M38.46 195.62c20.93-.53 44.2 2.35 69.08 8.54 32.46 8.01 68.65 21.99 110.61 42.6 8.22 4.05 16.46 8.39 24.67 12.88l6.97-1.09c.41 0 .93-.05 1.63-.27.09-.02.19-.04.29-.06.2-.01.43-.04.68-.1.04 0 .08-.01.12-.02-13.07-6.88-25.71-13.22-38.09-19.12-44.84-21.35-82.1-38.54-115.95-46.98-21.46-5.34-41.64-8.43-60.22-9.08-5.88-.21-11.43-.12-16.71.23l10.07 12.82c2.24-.16 4.51-.29 6.85-.35Z" style="stroke:url(#linear-gradient-14);stroke-miterlimit:10;stroke-width:.5px;fill:none"/><path d="m220.8 263.1 10.18-1.6c-37.7-20.59-76.41-39.42-116.4-49.43-26.45-6.59-51.31-8.89-75.82-6.95l.24.24c.09.12.19.23.27.31l.06.11.17.17.11.23 1.2 1.2c.14.18.38.47.74.74l.11.11c.26.26.53.5.79.73.16.14.33.28.5.46l.21.21c.42.42.93.86 1.54 1.32l.95.95h.27c.12.09.24.18.34.29l.89.89h.2c.26.21.52.43.8.65v.19l1.35.9c.14.09.3.21.46.32.19.13.38.27.54.38.24.17.5.35.76.53.06.04.11.07.16.11 22.07-1.78 45.06.42 69.9 6.61 33.57 8.38 66.8 23.27 99.49 40.36Z" style="stroke:url(#linear-gradient-15);stroke-miterlimit:10;stroke-width:.5px;fill:none"/><path d="M171.28 100.49c-3.63-.75-7.05-1.49-10.46-2.24-18.36-3.84-36.94-8.01-54.98-11.96-22.23-4.93-44.89-9.95-67.59-14.56l-9.83 6.86c15.5 3.23 32.08 7.06 50.2 11.55 22.31 5.55 44.84 11.64 66.62 17.51 10.57 2.78 21.57 5.77 32.35 8.65l.85.21c5.87 1.49 11.96 3.1 18.15 4.7 16.34 4.06 37.37 8.65 54.98 8.33 10.2-.21 20-1.98 28.87-4.58l-13.06-14c-.79-.88-1.71-1.7-2.68-2.58-.37-.33-.75-.67-1.14-1.04-1.38-1.28-2.89-2.41-4.49-3.6l-.44-.33c-.25-.19-.5-.35-.74-.53-7.71 2.4-15.57 4.17-23.07 5.09-18.9 2.24-42.6-2.88-63.53-7.47Z" style="stroke:url(#linear-gradient-16);stroke-miterlimit:10;stroke-width:.5px;fill:none"/><path d="M48.07 113.73c6.94 1.49 13.99 3.2 21.03 4.91 59.04 14.73 114.88 38.01 161.64 58.72 16.23 7.15 33.31 13.13 49.65 17.19 8.06 2.02 15.77 3.54 23.1 4.59.33-.42.63-.86.85-1.31l.08-.2c.23-.38.4-.74.54-1.03l.45-.9v-.22c.27-.59.5-1.18.7-1.78.41-1.24.86-2.74 1-4.44.12-1.46.12-2.83 0-4.08l-.96-6.95c-15.04.18-32.11-2.1-51.16-6.84-15.16-3.84-31.71-9.18-49.33-16.12-55.3-21.67-98.44-35.87-139.86-46.23-12.71-3.2-25.2-5.98-37.37-8.33-4.46-.86-8.91-1.66-13.34-2.42l-.38 1.37c-.08.34-.17.59-.25.84l-.16.47v.22l-.08.23-.56 1.82v.23l-.75 2.56v.03c-.09.26-.19.63-.21 1.08 0 .02-.02.06-.04.11 11.7 1.81 23.51 3.95 35.41 6.48Z" style="stroke:url(#linear-gradient-17);stroke-miterlimit:10;stroke-width:.5px;fill:none"/><path d="M51.48 124.73c7.79 1.6 15.8 3.31 23.7 5.34 55.84 13.88 108.69 36.41 148.62 54.45 18.97 8.61 46.46 20.39 73.94 28.16l2.2-5.9c-3.11-.65-6.28-1.38-9.52-2.19-24.77-6.19-47.4-15.48-62.03-22.1-41.64-19-97.16-42.71-156.95-57.65-8.86-2.24-17.72-4.27-26.37-5.98a569.58 569.58 0 0 0-34-5.78l-.23.79-.02.12c-.03.15-.09.29-.13.42-.1.29-.19.56-.25.78l-.79 2.95-.04.08c13.89 1.52 27.88 3.69 41.87 6.51Z" style="stroke:url(#linear-gradient-18);stroke-miterlimit:10;stroke-width:.5px;fill:none"/></g><g style="clip-path:url(#clippath-1)"><path d="M65.26 101.88c48.15 11.96 95.24 28.29 134.95 42.6 13.77 4.91 27.01 9.08 39.18 12.06 24.88 6.22 46.47 8.38 64.66 6.5l-.9-6.51c-.15-1.35-.57-2.89-1.18-4.35a48.32 48.32 0 0 0-2.05-4.33c-.71-1.32-1.58-2.61-2.34-3.75l-.37-.55c-.81-1.21-1.87-2.55-3.19-4.02l-.35-.37c-6.82 1.52-14.11 2.44-21.83 2.76-18.9.75-40.46-1.92-66.09-8.33-6.41-1.6-13.24-3.42-20.18-5.55-4.7-1.39-9.4-2.78-13.99-4.16-34.06-10.14-69.18-20.61-104.1-29.36-16.44-4.09-31.61-7.49-46.34-10.38-.11.12-.23.24-.34.36-.91 1.02-1.94 2.18-2.74 3.65-.52.95-1.05 1.99-1.52 3.16 2.63.48 5.27.98 7.92 1.49 13.24 2.56 26.91 5.66 40.78 9.08Z" style="stroke:url(#linear-gradient-19);stroke-miterlimit:10;fill:none"/><path d="M40.7 165.73c15.05 1.71 31.07 4.59 47.62 8.75 45.91 11.53 90 30.64 123.31 46.02 20.06 9.28 39.83 19.08 58.85 28.75l3.19-3.13c-21.93-10.8-44.33-21.78-66.95-32.03-33.74-15.27-78.26-34.27-123.42-45.59-16.66-4.16-32.78-7.05-48.04-8.75-10.05-1.11-19.49-1.54-28.39-1.39.04.23.08.45.13.68.33 1.44.77 2.9 1.38 4.61.1.27.2.54.31.81 10.16-.38 20.79.04 32.01 1.27Z" style="stroke:url(#linear-gradient-20);stroke-miterlimit:10;fill:none"/><path d="M221.88 200.21c-45.8-20.82-95.24-41.85-146.48-54.66-9.4-2.35-18.68-4.38-27.76-6.09-13.4-2.48-26.76-4.12-39.98-4.91L7.37 140c12 .56 24.2 1.9 36.53 4.05 10.14 1.71 20.61 3.95 31.18 6.62 52.42 13.03 102.28 34.81 144.88 54.24 7.79 3.63 15.8 7.26 23.49 10.78 13.75 6.29 27.76 12.72 41.88 19l4.1-4.02c-18.71-7.61-36.72-16.04-51.74-23.1-5.66-2.67-11-5.23-15.8-7.37Z" style="stroke:url(#linear-gradient-21);stroke-miterlimit:10;fill:none"/><path d="M49.99 134.77c8.54 1.6 17.3 3.52 26.16 5.77 52.64 13.13 102.71 34.38 148.94 55.41 2.46 1.07 5.02 2.24 7.69 3.52 16.27 7.45 37.89 17.36 60.25 25.73.06-.14.11-.28.16-.43v-.03c.1-.16.2-.38.3-.65l1.98-5.32c-27.46-8.68-54.84-21-75.83-30.4l-2.78-1.28c-38.22-17.08-88.94-38.44-141.47-51.57-10.46-2.56-20.82-4.91-30.96-6.73a417.441 417.441 0 0 0-36.17-4.94c-.02.1-.03.22-.04.35l-.12.25v1.81l-.16 2.99c13.93 1 27.98 2.83 42.05 5.53Z" style="stroke:url(#linear-gradient-22);stroke-miterlimit:10;fill:none"/><path d="M134.12 61.2c-3.2-.43-6.41-.85-9.61-1.28-10.51-1.38-21.1-2.89-31.69-4.47l-23.71 2.2c-1.64.11-3.19.4-4.83.71l-.44.08c-1.68.31-3.39.75-5.36 1.37-2.03.64-3.56 1.21-4.96 1.85-1.53.71-2.85 1.43-3.98 2.19l-1.92 1.34c13.28 2.54 26.5 5.12 39.52 7.66 21.14 4.16 43.03 8.43 64.49 12.38 3.95.75 8.01 1.6 11.96 2.35 20.61 4.06 41.96 8.33 59.26 5.23 4.2-.73 8.47-1.69 12.72-2.83l-29.09-15.25a94.76 94.76 0 0 0-5.52-2.54c-2.43-1.02-4.55-1.85-6.47-2.52l-1.4-.5c-1.74-.62-3.53-1.26-5.24-1.71-2.04-.54-4.08-1.07-5.88-1.52l-3.15-.7c-14.15.2-29.58-1.97-44.69-4.04Z" style="stroke:url(#linear-gradient-23);stroke-miterlimit:10;fill:none"/><path d="M193.37 265.75c.28.02.55.04.83.05h6.86c2.16 0 4.24-.19 6.19-.58l2.1-.33c-27.46-13.47-55.3-24.85-83.45-31.91-19.88-5.01-38.67-7.3-56.89-6.96l17.43 9.66c13.18.72 27.15 2.92 41.81 6.58 19.95 4.99 41.49 12.75 65.12 23.47Z" style="stroke:url(#linear-gradient-24);stroke-miterlimit:10;fill:none"/><path d="M31.73 176.19c19.54.53 41 3.74 63.74 9.4 33.74 8.43 70.79 24.56 115.52 45.48 15.85 7.38 32.26 15.54 49.59 24.67.07-.03.14-.06.2-.08.07-.03.15-.06.23-.09h.42l.76-.5c.06-.03.11-.06.17-.09l.12-.06c.32-.08.69-.22 1.05-.45.03-.02.07-.04.11-.06.27-.07.54-.17.79-.3.25-.11.46-.25.64-.38.11-.07.22-.14.31-.2.19-.11.38-.24.55-.39.1-.07.29-.2.29-.21.16-.06.31-.13.46-.21-16.15-8.34-33.97-17.27-52.16-25.79-33.63-15.69-78.15-35.34-124.06-46.76-20.07-5.02-39.18-8.11-56.91-9.29-7.7-.51-14.91-.59-21.7-.3.43.67.9 1.36 1.42 2.08l2.98 3.79c4.92-.3 10.07-.39 15.48-.23Z" style="stroke:url(#linear-gradient-25);stroke-miterlimit:10;fill:none"/><path d="M81.27 162.95c48.58 12.17 96.52 32.78 136.98 51.46 19.86 9.13 39.82 18.79 59.06 28.14l3.36-3.3c-6.95-3.25-13.86-6.49-20.67-9.69-13.99-6.62-28.29-13.35-42.6-19.86-44.84-20.5-93.1-41.1-142-53.28-11.1-2.78-22.1-5.02-32.67-6.83-12.12-2.02-24.02-3.22-35.67-3.62l-.34 6.46c11.89.05 24.16 1.02 36.76 2.92 12.17 1.82 24.88 4.38 37.8 7.58Z" style="stroke:url(#linear-gradient-26);stroke-miterlimit:10;fill:none"/><path d="M131.24 250.18c-9.82-2.45-19.29-4.18-28.41-5.23l.47.47h.19l.12.11h.51c.11.06.24.12.38.18l.29.14c.25.13.54.26.83.38.2.09.39.17.57.26l.64.32h.22c.29.14.61.28.97.42l.36.15.06.03.21.07.15.07c.21.11.43.21.64.29.36.17.74.32 1.12.47.25.1.51.19.75.31l.64.32h.4l1.1.44.41.41h.22l.11.11h.62l.12.04.35.17h.34c.06.02.12.05.17.07.2.09.48.21.83.31.29.11.59.2.88.29.18.06.36.11.54.18l.41.17.53.26h.47c.19.06.37.13.56.2.33.12.67.24 1 .34l.42.42h1.21l.09.03.29.29h.92c.22.06.45.12.67.17.25.06.49.12.74.2l.47.16h.35l.29.09c.36.11.72.21 1.08.28l.29.06h1.06l37.86 7.79c-12.43-4.7-24.24-8.44-35.53-11.24Z" style="stroke:url(#linear-gradient-27);stroke-miterlimit:10;fill:none"/><path d="M38.46 195.62c20.93-.53 44.2 2.35 69.08 8.54 32.46 8.01 68.65 21.99 110.61 42.6 8.22 4.05 16.46 8.39 24.67 12.88l6.97-1.09c.41 0 .93-.05 1.63-.27.09-.02.19-.04.29-.06.2-.01.43-.04.68-.1.04 0 .08-.01.12-.02-13.07-6.88-25.71-13.22-38.09-19.12-44.84-21.35-82.1-38.54-115.95-46.98-21.46-5.34-41.64-8.43-60.22-9.08-5.88-.21-11.43-.12-16.71.23l10.07 12.82c2.24-.16 4.51-.29 6.85-.35Z" style="stroke:url(#linear-gradient-28);stroke-miterlimit:10;fill:none"/><path d="m220.8 263.1 10.18-1.6c-37.7-20.59-76.41-39.42-116.4-49.43-26.45-6.59-51.31-8.89-75.82-6.95l.24.24c.09.12.19.23.27.31l.06.11.17.17.11.23 1.2 1.2c.14.18.38.47.74.74l.11.11c.26.26.53.5.79.73.16.14.33.28.5.46l.21.21c.42.42.93.86 1.54 1.32l.95.95h.27c.12.09.24.18.34.29l.89.89h.2c.26.21.52.43.8.65v.19l1.35.9c.14.09.3.21.46.32.19.13.38.27.54.38.24.17.5.35.76.53.06.04.11.07.16.11 22.07-1.78 45.06.42 69.9 6.61 33.57 8.38 66.8 23.27 99.49 40.36Z" style="stroke:url(#linear-gradient-29);stroke-miterlimit:10;fill:none"/><path d="M171.28 100.49c-3.63-.75-7.05-1.49-10.46-2.24-18.36-3.84-36.94-8.01-54.98-11.96-22.23-4.93-44.89-9.95-67.59-14.56l-9.83 6.86c15.5 3.23 32.08 7.06 50.2 11.55 22.31 5.55 44.84 11.64 66.62 17.51 10.57 2.78 21.57 5.77 32.35 8.65l.85.21c5.87 1.49 11.96 3.1 18.15 4.7 16.34 4.06 37.37 8.65 54.98 8.33 10.2-.21 20-1.98 28.87-4.58l-13.06-14c-.79-.88-1.71-1.7-2.68-2.58-.37-.33-.75-.67-1.14-1.04-1.38-1.28-2.89-2.41-4.49-3.6l-.44-.33c-.25-.19-.5-.35-.74-.53-7.71 2.4-15.57 4.17-23.07 5.09-18.9 2.24-42.6-2.88-63.53-7.47Z" style="stroke:url(#linear-gradient-30);stroke-miterlimit:10;fill:none"/><path d="M48.07 113.73c6.94 1.49 13.99 3.2 21.03 4.91 59.04 14.73 114.88 38.01 161.64 58.72 16.23 7.15 33.31 13.13 49.65 17.19 8.06 2.02 15.77 3.54 23.1 4.59.33-.42.63-.86.85-1.31l.08-.2c.23-.38.4-.74.54-1.03l.45-.9v-.22c.27-.59.5-1.18.7-1.78.41-1.24.86-2.74 1-4.44.12-1.46.12-2.83 0-4.08l-.96-6.95c-15.04.18-32.11-2.1-51.16-6.84-15.16-3.84-31.71-9.18-49.33-16.12-55.3-21.67-98.44-35.87-139.86-46.23-12.71-3.2-25.2-5.98-37.37-8.33-4.46-.86-8.91-1.66-13.34-2.42l-.38 1.37c-.08.34-.17.59-.25.84l-.16.47v.22l-.08.23-.56 1.82v.23l-.75 2.56v.03c-.09.26-.19.63-.21 1.08 0 .02-.02.06-.04.11 11.7 1.81 23.51 3.95 35.41 6.48Z" style="stroke:url(#linear-gradient-31);stroke-miterlimit:10;fill:none"/><path d="M51.48 124.73c7.79 1.6 15.8 3.31 23.7 5.34 55.84 13.88 108.69 36.41 148.62 54.45 18.97 8.61 46.46 20.39 73.94 28.16l2.2-5.9c-3.11-.65-6.28-1.38-9.52-2.19-24.77-6.19-47.4-15.48-62.03-22.1-41.64-19-97.16-42.71-156.95-57.65-8.86-2.24-17.72-4.27-26.37-5.98a569.58 569.58 0 0 0-34-5.78l-.23.79-.02.12c-.03.15-.09.29-.13.42-.1.29-.19.56-.25.78l-.79 2.95-.04.08c13.89 1.52 27.88 3.69 41.87 6.51Z" style="stroke:url(#linear-gradient-32);stroke-miterlimit:10;fill:none"/></g><g class="cls-40"><g class="cls-40"><path d="M1.52 0h15.55v5.01H7.89v12.56h7.1v5.01h-7.1v14.37h9.44v5.01H1.52V0ZM18.72 8.13h6.19l3.27 17.99.81 7.2h.2l.93-7.2 3.24-17.99h6l-7.72 33.83h-5.31L18.71 8.13ZM51.16 42.34c-1.46 0-2.75-.27-3.87-.81s-2.07-1.38-2.84-2.53-1.35-2.62-1.74-4.41c-.39-1.79-.59-3.95-.59-6.47v-6.39c0-2.15.16-3.98.48-5.52.32-1.53.74-2.82 1.25-3.86.52-1.04 1.11-1.86 1.79-2.47.68-.6 1.38-1.07 2.1-1.39.72-.32 1.44-.52 2.15-.61.71-.09 1.37-.14 1.98-.14 1.11 0 2.19.17 3.22.5 1.03.34 1.94.91 2.73 1.72s1.41 1.9 1.88 3.26c.47 1.36.7 3.06.7 5.09 0 .69-.02 1.38-.06 2.09s-.1 1.4-.16 2.08c-.07.68-.15 1.34-.26 1.98-.11.64-.22 1.23-.33 1.77H48.36v3.44c0 1.47.06 2.72.17 3.72s.31 1.82.58 2.43.64 1.06 1.11 1.33c.47.27 1.05.41 1.76.41.38 0 .75-.08 1.11-.23s.68-.41.95-.77c.27-.36.49-.84.65-1.44.16-.6.25-1.34.25-2.22v-1.06h5.19v1.3c0 3.21-.77 5.55-2.3 7.01-1.53 1.47-3.75 2.2-6.65 2.2Zm3.44-20.3c.02-.18.03-.42.05-.72.02-.3.03-.62.04-.95 0-.33.01-.65.01-.97v-.82c0-2.23-.26-3.83-.79-4.82-.52-.98-1.3-1.47-2.34-1.47-.54 0-1.02.13-1.42.38s-.75.68-1.01 1.28-.46 1.39-.59 2.37-.2 2.2-.2 3.66v2.06h6.24ZM65.65 8.13h4.55l.54 3.44c.69-1.28 1.48-2.24 2.37-2.88.89-.64 1.81-.96 2.74-.96 1.78 0 3.1.55 3.96 1.65s1.28 2.74 1.28 4.94c0 .28-.02.61-.06 1-.04.38-.1.79-.17 1.2-.07.42-.16.84-.27 1.25-.11.42-.22.8-.33 1.14h-4.32v-3.15c0-.69-.05-1.25-.14-1.69-.09-.44-.21-.8-.36-1.07s-.32-.46-.52-.56-.41-.16-.64-.16c-.49 0-.95.16-1.36.48-.42.32-.77.77-1.04 1.34v27.86h-6.22V8.13ZM86.32 48.39c.79-.19 1.46-.54 2.03-1.07.56-.52 1.02-1.22 1.35-2.08s.53-1.89.58-3.08L82.27 8.13h6.31l3.56 18.72 1.03 6.46h.2l.71-6.46 2.88-18.72h6.12l-7.13 35.09c-.31 1.62-.71 3.04-1.19 4.25s-1.08 2.22-1.79 3.02-1.56 1.41-2.54 1.81c-.98.4-2.13.6-3.44.6-1.06 0-2.15-.21-3.27-.61l.02-3.81c.93.13 1.79.1 2.58-.09Z" class="cls-8"/></g></g><path d="M104.01 107.54c1.82-.21 3.63-.32 5.34-.32h4.8c1.49 0 2.88.21 4.16.32s2.35.32 3.31.53l5.77 11c-.85-.21-1.82-.32-2.78-.43s-1.92-.21-2.99-.21h-3.31c-1.17 0-2.35.11-3.63.32-2.35.21-4.16.75-5.34 1.39s-1.92 1.49-2.24 2.35-.11 1.92.32 2.99 1.17 2.24 2.14 3.31 1.07 1.17 1.6 1.82 1.17 1.17 1.71 1.71 1.17 1.17 1.82 1.71 1.28 1.17 2.03 1.71l18.47-2.14 8.33 9.72-16.76 2.03c.53.64 1.07 1.17 1.49 1.71s.85 1.17 1.28 1.71.75 1.17 1.07 1.71.53 1.17.75 1.71c.21.64.32 1.28.43 1.92s0 1.28 0 1.92-.21 1.28-.43 1.92-.53 1.28-.96 1.92l.21.21 36.19-4.48 10.36 11.96-62.46 7.9-6.62-8.01c1.39-.75 2.67-1.71 3.74-2.88s1.82-2.46 2.24-3.84.53-2.99.21-4.59-1.17-3.2-2.56-4.91-.53-.64-.85-.96-.53-.64-.85-.96l-.96-.96-.96-.96-13.56 1.6-8.22-9.93 11-1.28c-.64-.53-1.39-1.17-2.03-1.82l-1.92-1.92c-.64-.64-1.28-1.28-1.82-1.92s-1.17-1.28-1.71-1.92c-2.46-2.99-3.95-5.77-4.48-8.33s-.11-4.8 1.17-6.83 3.42-3.63 6.41-4.91c2.99-1.28 6.73-2.24 11.21-2.67l-.11.11Z" style="fill:url(#linear-gradient-33);stroke-width:0"/><path d="m169.67 100.81 53.6 59.9-19.22 2.46-42.49-48.05h-.32l-11.42 7.26-12.39-10.14 16.02-9.61 16.22-1.82z" style="fill:#f6f7f8;stroke-width:0"/><g class="cls-40"><g class="cls-40"><path d="M197.88 300.87c0-.74.07-1.45.21-2.14s.27-1.24.41-1.65h4.37c0 1.23.06 2.26.18 3.08.12.83.32 1.49.6 1.98s.65.84 1.12 1.06c.47.21 1.04.32 1.71.32.93 0 1.61-.26 2.04-.79.43-.52.64-1.13.64-1.82 0-.36-.05-.7-.15-1.03-.1-.33-.24-.66-.42-.99-.18-.34-.4-.68-.66-1.02-.26-.34-.56-.72-.88-1.13l-4.55-5.36c-.59-.74-1.16-1.49-1.71-2.25a18.7 18.7 0 0 1-1.45-2.36c-.42-.81-.75-1.66-1.01-2.54-.25-.88-.38-1.82-.38-2.8 0-1.31.22-2.45.68-3.42.45-.97 1.06-1.77 1.82-2.41s1.64-1.11 2.64-1.42c1-.31 2.06-.47 3.17-.47 1.23 0 2.33.15 3.32.44s1.83.74 2.53 1.33 1.24 1.32 1.62 2.2c.38.88.56 1.9.56 3.06 0 .79-.07 1.55-.21 2.29-.14.74-.27 1.37-.41 1.89h-4.3c-.02-1.11-.07-2.09-.15-2.92s-.23-1.53-.45-2.08-.52-.96-.91-1.24-.89-.42-1.51-.42c-.54 0-.99.09-1.35.26s-.65.4-.87.68c-.22.28-.38.59-.47.93a4.364 4.364 0 0 0 .43 3.25c.38.67.88 1.4 1.5 2.19l4.96 5.82c.36.44.78.98 1.25 1.61s.93 1.33 1.35 2.09c.43.76.79 1.59 1.08 2.49s.44 1.84.44 2.83c0 1.2-.19 2.28-.56 3.26-.38.98-.93 1.81-1.67 2.49-.74.69-1.64 1.22-2.72 1.6-1.07.38-2.3.56-3.67.56-1.13 0-2.2-.13-3.19-.38s-1.87-.67-2.6-1.25c-.74-.58-1.32-1.35-1.75-2.3-.43-.95-.64-2.12-.64-3.51ZM225.79 309.86v9.02h-6.22v-44.77h4.87l.56 3.56c.28-.46.61-.93.99-1.4.39-.47.84-.9 1.35-1.26.52-.37 1.1-.67 1.74-.91s1.37-.36 2.17-.36c.34 0 .76.03 1.24.1s.98.23 1.5.49 1.03.65 1.55 1.17c.52.52.97 1.22 1.38 2.12.4.9.73 2.02.98 3.37.25 1.34.38 2.97.38 4.89v10.25c0 1.92-.13 3.55-.38 4.89-.25 1.34-.59 2.47-.99 3.37-.41.9-.88 1.61-1.4 2.14s-1.06.92-1.6 1.18c-.54.26-1.06.43-1.57.5s-.95.11-1.33.11c-1.31 0-2.4-.25-3.28-.76-.88-.51-1.59-1.12-2.15-1.84l.2 4.15Zm0-8.82c.13.33.29.64.48.93.19.29.41.56.66.79s.54.41.86.55.69.21 1.12.21c.46 0 .88-.09 1.25-.26.38-.17.7-.48.98-.93.28-.45.49-1.08.65-1.88.16-.8.23-1.83.23-3.1V284.4c0-1.26-.08-2.29-.23-3.08-.16-.79-.37-1.42-.64-1.88-.27-.46-.59-.77-.97-.93-.38-.16-.79-.25-1.25-.25-.79 0-1.43.23-1.93.7s-.91 1.01-1.22 1.63v20.44ZM252.06 308.32c-1.46 0-2.75-.27-3.87-.81s-2.07-1.38-2.84-2.53-1.35-2.62-1.75-4.41c-.39-1.79-.59-3.95-.59-6.47v-6.39c0-2.15.16-3.98.48-5.52s.74-2.82 1.25-3.86 1.11-1.86 1.79-2.47c.68-.6 1.38-1.07 2.1-1.39.72-.32 1.44-.52 2.15-.61.71-.09 1.37-.14 1.98-.14 1.11 0 2.19.17 3.22.5 1.03.34 1.94.91 2.73 1.72s1.41 1.9 1.88 3.26c.47 1.36.7 3.06.7 5.09 0 .69-.02 1.38-.06 2.09s-.09 1.4-.16 2.08c-.07.68-.15 1.34-.26 1.98-.11.64-.22 1.23-.33 1.77h-11.23v3.44c0 1.47.06 2.72.17 3.72s.31 1.82.58 2.43c.27.61.64 1.06 1.1 1.33.47.27 1.05.41 1.76.41.38 0 .75-.08 1.11-.23.36-.16.68-.41.95-.77.27-.36.49-.84.65-1.44.16-.6.25-1.34.25-2.22v-1.06H261v1.3c0 3.21-.77 5.55-2.3 7.01-1.53 1.47-3.75 2.2-6.65 2.2Zm3.44-20.3c.02-.18.03-.42.05-.72.02-.3.03-.62.04-.95 0-.33.01-.65.01-.97v-.82c0-2.23-.26-3.83-.79-4.82s-1.3-1.47-2.33-1.47c-.54 0-1.02.13-1.42.38-.41.25-.75.68-1.01 1.28s-.46 1.39-.59 2.37c-.13.98-.2 2.2-.2 3.66v2.06h6.24ZM266.55 274.11h4.79l.56 3.61v.02c.49-.77 1.02-1.41 1.58-1.93s1.15-.93 1.76-1.24c.61-.31 1.22-.53 1.85-.66.63-.13 1.26-.2 1.88-.2 1.98 0 3.51.69 4.58 2.08 1.07 1.38 1.61 3.46 1.61 6.23v25.92h-6.22v-25.7c0-1.49-.23-2.53-.69-3.11-.46-.58-1.13-.87-2.01-.87-.62 0-1.24.21-1.86.61s-1.16.97-1.63 1.69v27.37h-6.22V274.1ZM292.33 278.54h-2.63v-4.42h3.17l1.25-8.77h4.42v8.77h5.41v4.42h-5.41v21.52c0 .74.07 1.33.21 1.78s.33.8.58 1.06c.25.25.53.42.86.5.33.08.67.12 1.03.12.6 0 1.14-.07 1.61-.22.47-.15.91-.35 1.34-.61v3.44c-.36.44-.75.8-1.17 1.08-.42.28-.85.5-1.29.68-.44.17-.89.29-1.35.36-.46.06-.91.1-1.35.1-.87 0-1.7-.11-2.51-.34-.8-.23-1.52-.67-2.14-1.32-.62-.65-1.12-1.54-1.49-2.69-.37-1.15-.55-2.64-.55-4.47v-20.98Z" class="cls-8"/></g></g><path d="m304.09 185.48-3.95-28.61c-.11-.96-.43-2.24-.96-3.52-.53-1.28-1.17-2.67-1.92-4.06-.75-1.39-1.71-2.78-2.56-4.06-.85-1.28-1.92-2.56-2.88-3.63l-26.69-28.61c-.96-1.07-2.24-2.14-3.63-3.42-1.39-1.28-2.99-2.46-4.7-3.74a73.286 73.286 0 0 0-5.12-3.52c-1.71-1.07-3.31-2.03-4.91-2.88l.11-.11-41.75-21.89c-1.49-.75-3.31-1.6-5.34-2.46-2.03-.85-4.16-1.71-6.3-2.46s-4.38-1.6-6.41-2.14c-2.03-.53-4.06-1.07-5.77-1.49l-46.98-10.36c-1.71-.32-3.63-.75-5.77-.96s-4.27-.43-6.41-.64c-2.14-.21-4.27-.32-6.19-.32s-3.74.11-5.23.21L69.3 60.65c-1.6.11-3.2.43-4.91.75s-3.31.75-5.02 1.28c-1.71.53-3.2 1.07-4.59 1.71-1.39.64-2.56 1.28-3.52 1.92L25.85 84.03c-.96.64-1.92 1.49-2.78 2.46-.85.96-1.71 1.92-2.35 3.1-.64 1.17-1.17 2.24-1.6 3.42-.43 1.17-.75 2.24-.75 3.31l-1.39 28.08c-.11 1.07 0 2.24.32 3.63s.75 2.88 1.28 4.27 1.28 2.88 2.03 4.27c.75 1.39 1.6 2.67 2.56 3.84l25.09 31.28c.96 1.17 2.14 2.46 3.63 3.84 1.49 1.39 3.1 2.78 4.8 4.16 1.71 1.39 3.52 2.67 5.34 3.95 1.81 1.28 3.52 2.35 5.23 3.31l45.48 25.09c1.71.96 3.74 1.92 5.87 2.88 2.14.96 4.59 1.92 6.94 2.78 2.35.85 4.8 1.6 7.15 2.35s4.59 1.28 6.51 1.71l52.32 10.89c1.92.32 4.06.75 6.41.96s4.7.53 7.05.53h6.73c2.14 0 4.06-.21 5.66-.43l43.03-6.41c1.6-.21 3.2-.53 4.91-1.07 1.71-.53 3.31-1.07 4.91-1.82s3.1-1.49 4.38-2.24 2.35-1.6 3.2-2.35l21.67-20.93c.75-.75 1.49-1.71 2.14-2.78.64-1.07 1.17-2.14 1.6-3.42.43-1.28.75-2.46.85-3.74.11-1.28.11-2.46 0-3.52Zm-23.49-.75c-2.88 8.01-8.86 15.27-17.62 20.93-8.86 5.77-20.71 9.93-35.23 12.06-14.73 2.14-30.75 1.92-47.08-.21-16.44-2.24-33.2-6.41-49.22-12.28-16.01-5.87-31.18-13.35-44.52-22.1-13.24-8.65-24.66-18.58-33.31-29.15-8.65-10.57-13.45-20.82-15.16-30.32-1.71-9.4-.11-18.15 4.27-25.62 4.38-7.47 11.42-13.77 21.14-18.58 9.5-4.7 21.57-7.9 35.77-9.29v-.11c14.09-1.28 29.04-.64 44.09 1.6 15.05 2.24 30.21 6.19 44.63 11.53 14.52 5.23 28.4 11.96 41 19.64 12.6 7.79 23.81 16.66 32.88 26.37 9.08 9.72 15.16 19.64 18.15 29.04 3.1 9.5 3.1 18.47.21 26.48Z" style="fill:url(#linear-gradient-34);stroke-width:0"/></svg>