<svg xmlns="http://www.w3.org/2000/svg" xmlns:xlink="http://www.w3.org/1999/xlink" viewBox="0 0 391.3 330.62"><defs><linearGradient id="linear-gradient" x1="222.24" x2="391.3" y1="-506.8" y2="-506.8" gradientTransform="matrix(1 0 0 -1 0 -448.48)" gradientUnits="userSpaceOnUse"><stop offset=".2" stop-color="#263042"/><stop offset=".7" stop-color="#223755"/><stop offset="1" stop-color="#203e67"/></linearGradient><linearGradient id="linear-gradient-2" x1="53.38" x2="252.81" y1="1506.92" y2="1307.63" gradientTransform="translate(0 -1194)" gradientUnits="userSpaceOnUse"><stop offset="0" stop-color="#0389d0"/><stop offset=".9" stop-color="#06acee"/></linearGradient><linearGradient id="linear-gradient-3" x1="0" x2="312.21" y1="257" y2="257" gradientUnits="userSpaceOnUse"><stop offset="0" stop-color="#2c2c2c"/><stop offset=".5"/><stop offset=".7" stop-color="#0f0f0f"/><stop offset="1" stop-color="#2c2c2c"/></linearGradient><linearGradient xlink:href="#linear-gradient-3" id="linear-gradient-4" y1="274.86" y2="274.86"/><linearGradient xlink:href="#linear-gradient-3" id="linear-gradient-5" x1=".37" x2="303.78" y1="286.24" y2="286.24"/><linearGradient xlink:href="#linear-gradient-3" id="linear-gradient-6" y1="212.51" y2="212.51"/><linearGradient xlink:href="#linear-gradient-3" id="linear-gradient-7" y1="236.83" y2="236.83"/><linearGradient xlink:href="#linear-gradient-3" id="linear-gradient-8" y1="159.41" y2="159.41"/><linearGradient xlink:href="#linear-gradient-3" id="linear-gradient-9" x1=".38" x2="312.11" y1="140.02" y2="140.02"/><linearGradient xlink:href="#linear-gradient-3" id="linear-gradient-10" y1="185.33" y2="185.33"/><linearGradient xlink:href="#linear-gradient-3" id="linear-gradient-11" x1="-1289.31" x2="-1678.21" y1="3431.19" y2="3179.57" gradientTransform="rotate(-141.4 -1104.21 1592.53)"/><linearGradient xlink:href="#linear-gradient-3" id="linear-gradient-12" x1="-1257.87" x2="-1668.92" y1="3443.24" y2="3177.68" gradientTransform="rotate(-141.4 -1104.21 1592.53)"/><linearGradient xlink:href="#linear-gradient-3" id="linear-gradient-13" x1="-1200.86" x2="-1630.07" y1="3421.44" y2="3143.6" gradientTransform="rotate(-141.4 -1104.21 1592.53)"/><clipPath id="clippath"><path d="M153.07 140.8c14.61-5.82 29.63-9.88 43.7-12.45 6.22-8.93 9.88-19.89 9.88-31.66 0-30.31-24.08-54.93-53.58-54.93S99.76 66.79 99.76 96.83c0 0 2.44 13.53 4.74 20.03 2.3 6.49 4.87 11.5 4.87 11.5 14.07 2.84 29.09 6.63 43.7 12.45Zm0-75.1c16.78 0 30.31 13.94 30.31 31.12s-13.8 31.12-30.31 31.12-30.31-13.94-30.31-31.12c-.41-17.45 13.53-31.12 30.31-31.12Zm123.67 109.87v-33.15c0-6.36-5.14-11.64-11.5-11.77-2.71 0-61.84-1.76-112.17 19.21-50.6-21.11-109.73-19.35-112.17-19.21-6.36.14-11.5 5.41-11.5 11.77v32.74c-10.01 5.28-17.05 18.81-17.05 34.91s6.9 29.36 17.05 34.91v38.97c0 6.49 5.28 12.04 12.04 12.04 62.92 0 104.46 26.93 105 27.33 1.89 1.35 4.19 1.89 6.49 1.89h.68c2.3 0 4.6-.68 6.49-1.89.41-.14 39.24-25.57 98.64-27.06 2.16 0 12.45-1.35 14.61-3.52 2.16-2.16 3.52-5.14 3.52-8.39v-39.24c9.74-5.41 16.51-18.81 16.51-34.5s-6.63-29.09-16.51-34.5h-.14v-.54ZM39.14 229.7c-3.52 0-8.93-7.71-8.93-19.48s5.41-19.48 8.93-19.48 8.93 7.71 8.93 19.48-5.41 19.48-8.93 19.48Zm101.61 63.59c-18.13-8.25-48.58-19.21-87.68-21.11v-29.9c7.71-6.49 12.99-18.27 12.99-32.2s-5.14-25.71-12.99-32.2v-23.54c18.27.54 55.07 3.38 87.68 16.24V293.3ZM252.92 177.6c-8.12 6.36-13.53 18.54-13.53 32.61s5.41 26.25 13.53 32.61v29.63c-39.1 1.89-69.55 12.72-87.68 21.11V170.84c32.47-12.85 69.41-15.56 87.68-16.24v23.14-.14Zm13.4 52.1c-3.52 0-8.93-7.71-8.93-19.48s5.41-19.48 8.93-19.48 8.93 7.71 8.93 19.48-5.41 19.48-8.93 19.48Z" class="cls-8"/></clipPath><filter id="drop-shadow-1" filterUnits="userSpaceOnUse"><feOffset dx="3.84" dy="3.84"/><feGaussianBlur result="blur" stdDeviation="10.25"/><feFlood flood-color="#000" flood-opacity=".15"/><feComposite in2="blur" operator="in"/><feComposite in="SourceGraphic"/></filter><style>.cls-8{fill:none}.cls-13{isolation:isolate}.cls-16,.cls-18,.cls-8{stroke-width:0}.cls-16{fill:#14b8f9}.cls-18{fill:#fff}</style></defs><g class="cls-13"><g id="Layer_1"><g style="filter:url(#drop-shadow-1)"><path id="Layer_1-2" d="M225.29 116.63h148.58c9.59 0 17.43-7.84 17.43-17.43V17.43C391.3 7.84 383.46 0 373.87 0h-119.1c-9.59 0-17.43 7.84-17.43 17.43v68.84s1.6 31.08-15.11 30.36h3.05Z" style="fill:url(#linear-gradient);stroke-width:0"/></g><path d="M153.07 140.8c14.61-5.82 29.63-9.88 43.7-12.45 6.22-8.93 9.88-19.89 9.88-31.66 0-30.31-24.08-54.93-53.58-54.93S99.76 66.79 99.76 96.83v2.98c.41 4.74 1.22 9.47 2.71 13.94 1.49 4.47 4.19 10.15 6.9 14.61 14.07 2.84 29.09 6.63 43.7 12.45h.14-.14Zm0-75.1c16.78 0 30.31 13.94 30.31 31.12s-13.8 31.12-30.31 31.12-30.31-13.94-30.31-31.12c-.41-17.45 13.53-31.12 30.31-31.12Zm-113.93 164c-3.52 0-8.93-7.71-8.93-19.48s5.41-19.48 8.93-19.48 8.93 7.71 8.93 19.48-5.41 19.48-8.93 19.48Zm101.61 63.59c-18.13-8.25-48.58-19.21-87.68-21.11v-29.9c7.71-6.49 12.99-18.27 12.99-32.2s-5.14-25.71-12.99-32.2v-23.54c18.27.54 55.07 3.38 87.68 16.24V293.3ZM252.92 177.6c-8.12 6.36-13.53 18.54-13.53 32.61s5.41 26.25 13.53 32.61v29.63c-39.1 1.89-69.55 12.72-87.68 21.11V170.84c32.47-12.85 69.41-15.56 87.68-16.24v23.14-.14Zm13.4 52.1c-3.52 0-8.93-7.71-8.93-19.48s5.41-19.48 8.93-19.48 8.93 7.71 8.93 19.48-5.41 19.48-8.93 19.48Zm10.42-54.13v-33.15c0-6.36-5.14-11.64-11.5-11.77-2.71 0-61.84-1.76-112.17 19.21-50.6-21.11-109.73-19.35-112.17-19.21-6.36 0-11.5 5.41-11.5 11.77v32.74c-10.01 5.28-17.05 18.81-17.05 34.91s6.9 29.36 17.05 34.91v38.97c0 6.49 5.28 12.04 12.04 12.04 62.92 0 104.46 26.93 105 27.33 1.89 1.35 4.19 1.89 6.49 1.89h.68c2.3 0 4.6-.68 6.49-1.89.41-.41 41-26.66 102.7-27.33.68 0 8.39-1.35 10.55-3.52 2.16-2.16 3.52-5.14 3.52-8.39v-39.24c9.74-5.41 16.51-18.81 16.51-34.5s-6.63-29.09-16.51-34.5h-.14v-.27Z" style="fill:url(#linear-gradient-2);stroke-width:0"/><g class="cls-13"><g class="cls-13"><path d="M264.57 49.84c-.35 0-.76-.04-1.23-.11-.47-.08-.95-.24-1.45-.48-.5-.25-.99-.6-1.47-1.05s-.91-1.05-1.29-1.79-.69-1.66-.92-2.74c-.24-1.09-.35-2.38-.35-3.88V29.15c0-1.51.12-2.81.37-3.88.25-1.07.57-1.97.99-2.71.41-.73.88-1.32 1.42-1.75s1.09-.76 1.66-.99c.57-.23 1.14-.38 1.7-.45s1.09-.1 1.57-.1c1.22 0 2.25.17 3.09.5.84.33 1.52.79 2.04 1.37.52.58.9 1.26 1.12 2.03.23.77.34 1.59.34 2.46 0 .64-.04 1.24-.11 1.78-.08.55-.18 1.15-.31 1.8h-3.64v-1.42c0-3.29-.89-4.94-2.66-4.94-.48 0-.9.08-1.25.25s-.65.44-.88.84c-.24.39-.41.91-.52 1.56-.11.65-.17 1.45-.17 2.41v13.61c0 .94.06 1.72.17 2.34s.28 1.12.51 1.49c.23.38.51.64.86.8.35.16.76.24 1.24.24.5 0 .94-.13 1.3-.4s.66-.63.9-1.08c.24-.46.41-1 .52-1.62.11-.62.17-1.29.17-2.02v-3.92h-2.34v-2.99h6.77v15.21h-3.03l-.49-2.85c-.57 1.11-1.23 1.91-1.98 2.4s-1.63.73-2.65.73ZM276.64 25.35h3.25l.39 2.46c.49-.91 1.06-1.6 1.7-2.06.64-.46 1.29-.69 1.96-.69 1.28 0 2.22.39 2.83 1.18.61.79.91 1.96.91 3.53 0 .2-.01.44-.04.71-.03.28-.07.56-.12.86-.05.3-.12.6-.19.9s-.15.57-.24.82h-3.1v-2.25c0-.49-.03-.9-.1-1.21a2.4 2.4 0 0 0-.26-.76.997.997 0 0 0-.37-.41.895.895 0 0 0-.46-.11c-.35 0-.68.11-.98.34-.3.23-.55.55-.75.96v19.95h-4.45V25.35ZM296.33 49.83c-1.04 0-1.97-.19-2.77-.58s-1.48-.99-2.03-1.81c-.55-.82-.97-1.87-1.25-3.16-.28-1.28-.42-2.83-.42-4.64v-4.57c0-1.53.11-2.85.34-3.95.23-1.1.53-2.02.9-2.76s.8-1.33 1.28-1.77.99-.77 1.5-.99c.52-.23 1.03-.37 1.54-.44.51-.06.98-.1 1.42-.1.8 0 1.56.12 2.3.36.74.24 1.39.65 1.95 1.23s1.01 1.36 1.35 2.33.5 2.19.5 3.64c0 .49-.01.99-.04 1.49s-.07 1-.11 1.49-.11.96-.18 1.42c-.08.46-.16.88-.24 1.27h-8.04v2.46c0 1.06.04 1.94.12 2.66.08.72.22 1.3.41 1.74.19.44.46.76.79.95.33.19.75.29 1.26.29.27 0 .53-.06.79-.17.26-.11.48-.3.68-.55.19-.26.35-.6.47-1.03.12-.43.18-.96.18-1.59v-.76h3.71v.93c0 2.3-.55 3.97-1.65 5.02s-2.68 1.57-4.76 1.57Zm2.47-14.53c.01-.13.02-.3.04-.52s.02-.44.03-.68V32.82c0-1.59-.19-2.74-.56-3.45-.38-.7-.93-1.06-1.67-1.06-.39 0-.73.09-1.02.27-.29.18-.53.49-.72.91s-.33.99-.42 1.7c-.1.7-.14 1.58-.14 2.62v1.48h4.47ZM310.05 49.83c-.75 0-1.42-.15-2-.45s-1.07-.71-1.47-1.22-.7-1.13-.9-1.84c-.21-.71-.31-1.48-.31-2.31 0-1 .12-1.88.37-2.66.25-.77.61-1.47 1.08-2.09s1.06-1.19 1.77-1.7 1.52-.99 2.45-1.45c.45-.22.95-.45 1.5-.68.56-.23 1.05-.43 1.49-.59v-3.2c0-.47-.02-.9-.05-1.31-.03-.41-.12-.76-.25-1.06-.13-.3-.34-.53-.61-.7s-.64-.26-1.11-.26c-.32 0-.63.06-.92.18-.3.12-.56.32-.79.6-.23.28-.41.66-.55 1.13s-.2 1.05-.2 1.74v1.06h-3.4c-.1-.46-.18-.88-.24-1.26s-.08-.76-.08-1.13c0-.9.16-1.7.47-2.39s.74-1.27 1.3-1.74 1.22-.82 2-1.06c.77-.24 1.62-.36 2.55-.36 1.21 0 2.21.13 3.01.4s1.43.66 1.91 1.19c.47.53.81 1.19 1 1.99.19.8.29 1.73.29 2.8v18.13h-3.31l-.32-2.08c-.48.69-1.12 1.25-1.93 1.69s-1.72.65-2.75.65Zm1.97-3.43c.38 0 .74-.1 1.1-.29.36-.19.66-.43.91-.71v-7.58c-.24.09-.5.21-.79.33-.29.13-.61.3-.95.51-.32.2-.63.44-.93.72-.3.28-.58.62-.82 1-.24.39-.43.82-.58 1.31s-.22 1.03-.22 1.63c0 .93.18 1.67.54 2.23.36.56.94.84 1.74.84ZM323.47 28.51h-1.88v-3.17h2.27l.9-6.28h3.17v6.28h3.87v3.17h-3.87v15.41c0 .53.05.95.15 1.28.1.32.24.57.41.76s.38.3.62.36a3 3 0 0 0 .74.09c.43 0 .82-.05 1.15-.16.33-.1.65-.25.96-.44v2.46c-.26.32-.54.58-.84.77a4.632 4.632 0 0 1-1.89.74c-.33.05-.65.07-.97.07-.62 0-1.22-.08-1.79-.25-.57-.16-1.08-.48-1.53-.94-.45-.46-.8-1.1-1.07-1.92-.26-.82-.4-1.89-.4-3.2V28.52Z" class="cls-16"/></g></g><g class="cls-13"><g class="cls-13"><path d="M263.87 92.53c-2.04 0-3.6-.84-4.67-2.51-1.07-1.68-1.61-4.23-1.61-7.67v-4.57c0-1.53.11-2.85.33-3.95s.52-2.02.89-2.76c.37-.74.79-1.33 1.27-1.77.48-.43.96-.77 1.47-.99.5-.23 1-.37 1.49-.44.49-.06.94-.1 1.35-.1.82 0 1.57.11 2.25.32.68.22 1.27.55 1.76.99s.87.99 1.14 1.66c.27.67.4 1.46.4 2.36 0 .56-.03 1.05-.08 1.45s-.13.79-.22 1.17h-3.55v-.81c0-1.22-.14-2.17-.43-2.86s-.76-1.03-1.42-1.03c-.36 0-.68.09-.95.26s-.5.46-.68.87c-.18.41-.32.96-.4 1.65s-.13 1.56-.13 2.6v6.88c0 1.06.04 1.95.11 2.69s.19 1.34.37 1.8c.18.46.41.8.7 1.01s.66.32 1.09.32c.22 0 .44-.06.65-.17.21-.11.4-.3.55-.55.16-.26.29-.6.39-1.03.1-.43.15-.96.15-1.59V85h3.84v.93c0 2.3-.51 3.97-1.52 5.02s-2.53 1.57-4.55 1.57ZM279.64 92.53c-.52 0-1.04-.04-1.57-.12-.53-.08-1.05-.25-1.55-.51s-.97-.63-1.41-1.11c-.44-.48-.82-1.11-1.15-1.9-.33-.79-.59-1.75-.77-2.9-.19-1.15-.28-2.52-.28-4.11v-3.8c0-1.57.1-2.92.29-4.04.19-1.12.46-2.06.79-2.82.33-.76.72-1.37 1.17-1.82.45-.45.92-.8 1.42-1.04.5-.24 1.01-.4 1.54-.48.53-.08 1.04-.11 1.55-.11s.98.04 1.49.1c.52.07 1.02.22 1.51.45s.96.57 1.4 1.02c.44.45.83 1.06 1.16 1.82.33.76.6 1.71.79 2.84.19 1.13.29 2.49.29 4.07v3.8c0 1.57-.1 2.92-.3 4.06-.2 1.14-.47 2.1-.81 2.88s-.73 1.42-1.18 1.91-.91.87-1.41 1.13-.99.45-1.5.54-1 .13-1.47.13Zm.04-3.43c.4 0 .74-.1 1.01-.31s.5-.54.67-1.01c.17-.47.29-1.09.37-1.86.08-.77.11-1.72.11-2.86V77.1c0-1.14-.04-2.09-.11-2.87s-.2-1.4-.37-1.87c-.17-.47-.39-.82-.67-1.03s-.61-.32-1.01-.32c-.42 0-.78.1-1.06.32s-.52.55-.71 1.03c-.19.48-.32 1.1-.4 1.87-.08.77-.12 1.73-.12 2.87v5.96c0 1.14.04 2.09.12 2.86.08.77.22 1.39.4 1.86.19.47.42.81.71 1.01s.64.31 1.06.31ZM290.25 68.05h3.43l.4 2.59v.02c.35-.55.73-1.01 1.13-1.38s.82-.67 1.26-.89.88-.38 1.33-.48c.45-.09.9-.14 1.34-.14 1.42 0 2.51.5 3.28 1.49s1.15 2.48 1.15 4.46v18.56h-4.45v-18.4c0-1.07-.16-1.81-.49-2.23-.33-.42-.81-.62-1.44-.62-.45 0-.89.15-1.33.44s-.83.7-1.17 1.21v19.59h-4.45V68.05ZM308.7 71.21h-1.88v-3.17h2.27l.9-6.28h3.17v6.28h3.87v3.17h-3.87v15.41c0 .53.05.95.15 1.28.1.32.24.57.41.76s.38.3.62.36a3 3 0 0 0 .74.09c.43 0 .82-.05 1.15-.16.33-.1.65-.25.96-.44v2.46c-.26.32-.54.58-.84.77a4.632 4.632 0 0 1-1.89.74c-.33.05-.65.07-.97.07-.62 0-1.22-.08-1.79-.25-.57-.16-1.08-.48-1.53-.94-.45-.46-.8-1.1-1.07-1.92-.26-.82-.4-1.89-.4-3.2V71.22ZM325.9 92.53c-1.04 0-1.97-.19-2.77-.58-.8-.39-1.48-.99-2.03-1.81-.55-.82-.97-1.87-1.25-3.16s-.42-2.83-.42-4.64v-4.57c0-1.53.11-2.85.34-3.95s.53-2.02.9-2.76c.37-.74.8-1.33 1.28-1.77s.99-.77 1.5-.99 1.03-.37 1.54-.44c.51-.06.98-.1 1.42-.1.8 0 1.57.12 2.3.36.74.24 1.39.65 1.95 1.23s1.01 1.36 1.35 2.33c.33.97.5 2.19.5 3.64 0 .49-.02.99-.04 1.49-.03.5-.07 1-.11 1.49s-.11.96-.18 1.42c-.08.46-.16.88-.24 1.27h-8.04v2.46c0 1.06.04 1.94.12 2.66.08.72.22 1.3.41 1.74.19.44.46.76.79.95.33.19.75.29 1.26.29.27 0 .53-.06.79-.17.26-.11.48-.3.68-.55.19-.26.35-.6.47-1.03.12-.43.18-.96.18-1.59v-.76h3.71v.93c0 2.3-.55 3.97-1.64 5.02s-2.68 1.57-4.76 1.57ZM328.36 78c.01-.13.02-.3.03-.52l.03-.68V75.52c0-1.59-.19-2.74-.56-3.45-.37-.7-.93-1.06-1.67-1.06-.39 0-.73.09-1.02.27s-.53.49-.72.91c-.19.43-.33.99-.42 1.7s-.14 1.58-.14 2.62v1.48h4.47ZM336.28 68.05h3.43l.4 2.59v.02c.35-.55.73-1.01 1.13-1.38s.82-.67 1.26-.89.88-.38 1.33-.48.9-.14 1.35-.14c1.42 0 2.51.5 3.28 1.49s1.15 2.48 1.15 4.46v18.56h-4.45v-18.4c0-1.07-.16-1.81-.49-2.23-.33-.42-.81-.62-1.44-.62-.45 0-.89.15-1.33.44s-.83.7-1.17 1.21v19.59h-4.45V68.05ZM354.73 71.21h-1.88v-3.17h2.27l.9-6.28h3.17v6.28h3.87v3.17h-3.87v15.41c0 .53.05.95.15 1.28.1.32.24.57.41.76s.38.3.62.36c.23.06.48.09.74.09.43 0 .82-.05 1.15-.16.33-.1.65-.25.96-.44v2.46c-.26.32-.54.58-.84.77-.3.2-.61.36-.92.48-.32.12-.64.21-.97.26-.33.05-.65.07-.97.07-.62 0-1.22-.08-1.79-.25a3.38 3.38 0 0 1-1.53-.94c-.45-.46-.8-1.1-1.06-1.92-.26-.82-.4-1.89-.4-3.2V71.22ZM367.16 89.15c0-1.23.25-2.11.74-2.65.49-.53 1.16-.8 2.01-.8s1.56.28 2.04.84.72 1.43.72 2.6c0 1.07-.24 1.89-.73 2.48-.49.59-1.17.88-2.05.88-.83 0-1.49-.29-1.99-.85-.49-.57-.74-1.4-.74-2.51Zm.3-28.77h4.8l-.55 22.13h-3.64l-.62-22.13Z" class="cls-18"/></g></g><g style="opacity:.62"><g style="clip-path:url(#clippath)"><path d="M289.32 280.57c-16.64-21.38-33.96-43.57-55.61-60.89a62.579 62.579 0 0 0-5.14-3.92c-23.95-17.59-44.92-22.46-64.41-15.29-17.05 6.36-29.9 20.7-41.4 33.42-3.92 4.19-7.44 8.25-10.96 11.64-24.63 24.22-57.1 48.03-108.52 41.54-.93-.12-1.87-.27-2.81-.41v8.08l1.05.18c52.63 7.85 85.92-14.88 109.06-35.45 4.06-3.65 8.39-8.52 12.99-13.4 11.23-12.31 23.95-26.25 40.46-32.88 19.35-7.98 40.05-4.06 63.19 11.77 2.98 1.89 5.95 4.19 8.93 6.49 20.43 16.24 37.75 37.89 53.31 57.1 2.84 3.52 5.41 6.63 8.12 10.01l2.98 3.65c3.7 4.52 7.43 9.08 11.18 13.65v-6.71c-5-6.27-9.9-12.47-14.7-18.58-2.44-3.38-5.01-6.63-7.71-10.01Z" style="stroke:url(#linear-gradient-3);isolation:isolate;mix-blend-mode:overlay;opacity:.7;stroke-miterlimit:10;stroke-width:.95px;fill:none"/><path d="M286.07 293.42c-1.22-1.62-2.71-2.98-3.92-4.6-13.53-16.51-29.23-35.04-46.68-48.98-7.58-6.09-14.61-10.42-21.78-13.8-41.13-18.94-65.49 7.71-84.84 29.09-5.14 5.68-9.88 10.96-14.61 15.02-15.43 13.4-30.99 22.73-46.82 28.41-20.03 7.04-41 8.66-64.41 4.74-.84-.14-1.69-.31-2.54-.46v8.45c42.2 8.92 78.99.53 112.13-25.31 5.82-4.74 11.77-11.23 18-18.13 9.34-10.15 20.03-22.06 32.47-29.23 14.61-8.39 29.77-9.88 46.55-4.19 9.07 2.98 18.4 8.39 28.41 16.37 16.24 12.85 31.39 30.31 43.57 44.38.95 1.22 2.03 2.44 3.11 3.65a4150.13 4150.13 0 0 1 27.01 31.31v-6.07c-2.2-2.64-4.41-5.3-6.58-7.92-6.36-7.44-12.72-15.15-19.08-22.73Z" style="isolation:isolate;mix-blend-mode:overlay;opacity:.7;stroke-miterlimit:10;stroke-width:.95px;fill:none;stroke:url(#linear-gradient-4)"/><path d="M197.72 298.03c-18.4-.68-28.41 10.01-37.89 20.43-3.62 4.27-7.5 8.27-11.85 11.69h15.76c6.84-7.9 14.5-15.31 26.54-17.37 17.29-2.85 38.25 3.1 61.67 17.37h13.63s-.04-.04-.06-.05c-25.71-20.43-48.58-31.12-67.79-32.07Z" class="cls-8"/><path d="M251.43 297.89c-20.16-15.97-37.75-24.9-52.36-26.66-20.3-2.44-30.99 8.12-41.4 18.13-2.3 2.16-4.6 4.47-7.04 6.63-14.34 12.45-27.2 21.24-40.46 27.6-5.31 2.52-10.81 4.7-16.47 6.55h30.75c7.47-4.03 14.69-8.83 21.71-14.53 3.52-2.98 6.77-6.36 10.15-9.88 11.1-11.37 22.46-23.41 45.06-19.35 17.86 2.98 38.16 13.53 60.35 31.12 5.01 3.99 9.97 8.24 14.87 12.64h10.14c-11.35-11.53-23.34-22.78-35.29-32.26Z" class="cls-8"/><path d="M303.42 330.15c-7.89-9-15.88-18.01-23.98-26.84l-2.16-2.44c-11.23-12.45-25.3-27.87-39.92-39.51-11.1-8.79-20.97-14.34-30.17-16.78-25.71-7.04-38.83 5.14-51.28 16.78-1.08 1.08-1.89 1.89-2.98 2.84-2.16 1.89-4.19 3.92-6.36 5.82-10.28 9.47-20.84 19.35-32.47 27.6-33.3 23.77-70.34 30.6-113.62 21.05" style="stroke:url(#linear-gradient-5);isolation:isolate;mix-blend-mode:overlay;opacity:.7;stroke-miterlimit:10;stroke-width:.95px;fill:none"/><path d="M109.63 204.39c1.22-1.49 2.3-2.71 3.38-3.92 11.91-14.07 25.71-29.9 43.84-36.26 21.38-7.58 44.92-.68 72.25 20.97 3.38 2.57 7.04 5.82 10.55 8.93 22.73 20.57 40.59 41 57.1 64.14 2.98 4.47 6.36 8.93 9.47 13.4 1.85 2.54 3.68 5.04 5.5 7.53v-12.41c-22.01-30.5-45.16-61.2-73.02-86.58-4.06-3.52-7.85-7.04-11.77-10.01-29.77-23.68-56.83-30.85-78.21-20.97-14.61 6.9-25.17 18.81-35.18 30.44-1.76 1.89-3.52 4.06-5.28 5.95l-2.16 2.3c-24.36 27.06-49.39 55.07-95.53 56.69-3.32.1-6.69.05-10.11-.14v17.06c3.68.35 7.32.53 10.92.53 48.44-.27 74.83-30.71 98.23-57.64Z" style="stroke:url(#linear-gradient-6);isolation:isolate;mix-blend-mode:overlay;opacity:.7;stroke-miterlimit:10;stroke-width:.95px;fill:none"/><path d="M190.55 328.06c-2 .54-3.87 1.25-5.63 2.08h41.38c-13.34-4.15-25.42-4.9-35.75-2.08Z" class="cls-8"/><path d="M160.24 189.51c20.02-8.28 42.62-2.16 68.33 16.51 1.89 1.49 3.92 2.84 5.82 4.47 23.14 18.27 40.86 41.67 58.18 64.27 2.03 2.98 4.33 5.82 6.49 8.66 3.91 5.13 8.16 10.67 12.67 16.49v-10.36c-2.22-2.95-4.46-5.93-6.72-8.97-3.52-4.87-7.17-9.88-10.69-14.75-15.97-21.78-32.74-41.95-54.12-61.29-3.79-3.38-7.44-6.49-10.96-9.34-57.23-45.46-86.87-11.77-110.82 15.15-1.35 1.62-2.71 3.25-4.06 4.6-23.68 26.38-50.74 56.29-99.99 56.15-4.57-.01-9.21-.34-13.9-.89v8.27c.48.06.97.14 1.45.2 50.2 5.95 80.91-17.45 106.62-43.7 0 0 33.73-38.03 51.69-45.46Z" style="stroke:url(#linear-gradient-7);isolation:isolate;mix-blend-mode:overlay;opacity:.7;stroke-miterlimit:10;stroke-width:.95px;fill:none"/><path d="m89.74 147.29 2.98-3.11c13.94-14.88 29.77-31.53 50.2-37.75 23.81-7.31 50.06.81 79.97 24.63 3.38 2.57 6.49 5.28 9.88 8.25 28.67 25.24 53.7 57.01 78.97 91.33v-13.41c-24.07-32.32-49.86-64.37-80.73-92.41-4.33-4.06-8.79-7.71-12.99-11.1-28.55-22.73-53.72-30.71-76.85-24.49-19.89 5.41-35.59 20.43-51.28 36.4-1.76 1.76-3.25 3.38-4.87 5.14-21.72 22.75-46.28 48.2-84.53 53.5v17.12c41.15-3.27 66.72-30.13 89.27-54.11Z" style="stroke:url(#linear-gradient-8);isolation:isolate;mix-blend-mode:overlay;opacity:.7;stroke-miterlimit:10;stroke-width:.95px;fill:none"/><path d="M.47 170.27c34.12-6.81 56.29-29.7 77.77-51.8 2.16-2.16 4.33-4.06 6.22-6.22 15.02-15.56 31.53-30.85 52.5-36.13 23.95-6.22 50.2 2.44 79.83 25.84 4.87 3.92 10.01 8.52 15.29 13.26 30.26 28.08 55.84 59.23 79.65 90.83" style="stroke:url(#linear-gradient-9);isolation:isolate;mix-blend-mode:overlay;opacity:.7;stroke-miterlimit:10;stroke-width:.95px;fill:none"/><path d="M8.96 231.59c43.03-2.98 67.52-29.63 90.93-55.48 1.49-1.76 2.98-3.38 4.6-5.14 1.49-1.76 3.25-3.65 4.87-5.41 10.69-12.04 21.78-24.36 38.16-30.31 22.06-7.98 49.39.27 79.29 24.08 5.55 4.6 11.37 9.61 17.05 15.02 24.48 23.45 46.16 50.79 67.88 80v-12.06c-22.75-31-44.99-59.75-69.09-83.09-6.49-6.36-12.99-12.04-19.21-16.91-28.55-22.46-53.72-30.99-75.1-25.17-18 5.01-29.5 17.45-40.73 29.63-1.62 1.76-3.11 3.52-4.74 5.14-2.03 2.3-4.33 4.74-6.49 7.04C73.11 183.69 49.16 209.4 8.16 214c-2.55.28-5.11.43-7.68.51v17.3c2.84.03 5.68-.02 8.49-.22Z" style="stroke:url(#linear-gradient-10);isolation:isolate;mix-blend-mode:overlay;opacity:.7;stroke-miterlimit:10;stroke-width:.95px;fill:none"/><path d="M190.27 312.77c-12.04 2.06-19.71 9.48-26.54 17.37h21.18c1.76-.83 3.63-1.55 5.63-2.08 10.32-2.82 22.41-2.07 35.75 2.08h25.65" style="stroke:url(#linear-gradient-11);mix-blend-mode:overlay;opacity:.7;stroke-miterlimit:10;stroke-width:.95px;fill:none"/><path d="M201.37 286.39c-22.6-4.06-33.96 7.98-45.06 19.35-3.38 3.52-6.63 6.9-10.15 9.88-7.01 5.7-14.24 10.5-21.71 14.53h23.52c4.35-3.42 8.23-7.42 11.85-11.69 9.47-10.42 19.48-21.11 37.89-20.43 19.21.95 42.08 11.64 67.79 32.07.02.02.04.04.06.05h11.01c-4.9-4.4-9.86-8.65-14.87-12.64-22.19-17.59-42.49-28.14-60.35-31.12Z" style="stroke:url(#linear-gradient-12);mix-blend-mode:overlay;opacity:.7;stroke-miterlimit:10;stroke-width:.95px;fill:none"/><path d="M248.46 285.31c-18-14.21-34.23-22.73-47.76-25.17-23.14-4.06-34.91 7.04-46.14 18-1.89 1.76-3.92 3.65-5.82 5.28-11.64 10.42-24.49 20.97-39.65 29.36C77.8 330.24 41.32 334.21.47 324.85v5.3H93.7c5.66-1.84 11.15-4.03 16.47-6.55 13.26-6.36 26.11-15.15 40.46-27.6 2.44-2.16 4.74-4.47 7.04-6.63 10.42-10.01 21.11-20.57 41.4-18.13 14.61 1.76 32.2 10.69 52.36 26.66 11.95 9.47 23.94 20.73 35.29 32.26h8.51c-14.76-16.05-30.79-32.11-46.78-44.84Z" style="stroke:url(#linear-gradient-13);isolation:isolate;mix-blend-mode:overlay;opacity:.7;stroke-miterlimit:10;stroke-width:.95px;fill:none"/></g></g></g></g></svg>