<svg xmlns="http://www.w3.org/2000/svg" id="Layer_1" viewBox="0 0 438 348"><defs><linearGradient id="linear-gradient" x1="61.34" x2="410.05" y1="69.38" y2="69.38" gradientUnits="userSpaceOnUse"><stop offset=".25" stop-color="#263042"/><stop offset=".69" stop-color="#223755"/><stop offset="1" stop-color="#203e67"/></linearGradient><linearGradient id="linear-gradient-2" x1="99.12" x2="269.78" y1="72.11" y2="72.11" gradientUnits="userSpaceOnUse"><stop offset=".27" stop-color="#1688c9"/><stop offset=".67" stop-color="#28a1db"/><stop offset=".77" stop-color="#2ea8e0"/></linearGradient><filter id="drop-shadow-1" filterUnits="userSpaceOnUse"><feOffset dy="2.98"/><feGaussianBlur result="blur" stdDeviation="8.94"/><feFlood flood-color="#000" flood-opacity=".15"/><feComposite in2="blur" operator="in"/><feComposite in="SourceGraphic"/></filter><style>.cls-4{fill:#fff;stroke-miterlimit:10;stroke:#c7cbd5;stroke-width:5.29px}</style></defs><path d="M61.34 274.25V48.17c0-12.72 10.41-23.12 23.12-23.12h302.46c12.72 0 23.12 10.41 23.12 23.12v245.49c0 12.72-10.41 23.12-23.12 23.12H27.21s34.13.14 34.13-42.55Z" style="fill:#fff;stroke-miterlimit:10;filter:url(#drop-shadow-1);stroke:#c7ccd7;stroke-width:1.05px"/><path d="M99.98 146.55h272.49M99.98 173.36h272.49M99.98 200.17h272.49M99.98 226.99h272.49M99.98 253.8h272.49M99.98 280.61h272.49" class="cls-4"/><path d="M410.05 113.71V48.17c0-12.72-10.41-23.12-23.12-23.12H84.46c-12.72 0-23.12 10.41-23.12 23.12v65.54h348.71Z" style="stroke-width:0;fill:url(#linear-gradient)"/><path d="m105.29 87.47 1.91-11.12-8.08-7.87 11.16-1.62 4.99-10.12 4.99 10.12 11.16 1.62-8.08 7.87 1.91 11.12-9.98-5.25-9.98 5.25Zm44.57-5.25 9.98 5.25-1.91-11.12 8.08-7.87-11.16-1.62-4.99-10.12-4.99 10.12-11.16 1.62 8.08 7.87-1.91 11.12 9.98-5.25Zm34.59 0 9.98 5.25-1.91-11.12 8.08-7.87-11.16-1.62-4.99-10.12-4.99 10.12-11.16 1.62 8.08 7.87-1.91 11.12 9.98-5.25Zm34.59 0 9.98 5.25-1.91-11.12 8.08-7.87-11.16-1.62-4.99-10.12-4.99 10.12-11.16 1.62 8.08 7.87-1.91 11.12 9.98-5.25Zm34.59 0 9.98 5.25-1.91-11.12 8.08-7.87-11.16-1.62-4.99-10.12-4.99 10.12-11.16 1.62 8.08 7.87-1.91 11.12 9.98-5.25Z" style="fill:url(#linear-gradient-2);stroke-width:0"/></svg>