<svg xmlns="http://www.w3.org/2000/svg" xmlns:xlink="http://www.w3.org/1999/xlink" viewBox="0 0 441.13 370.68"><defs><linearGradient id="linear-gradient" x1="252.66" x2="408.09" y1="-474.81" y2="-474.81" gradientTransform="matrix(1 0 0 -1 0 -394.48)" gradientUnits="userSpaceOnUse"><stop offset=".2" stop-color="#263042"/><stop offset=".7" stop-color="#223755"/><stop offset="1" stop-color="#203e67"/></linearGradient><linearGradient id="linear-gradient-2" x1="290.38" x2="290.38" y1="-683.28" y2="-658.01" gradientTransform="matrix(1 0 0 -1 0 -394.48)" gradientUnits="userSpaceOnUse"><stop offset="0" stop-color="#1688c9"/><stop offset=".5" stop-color="#229fd9"/><stop offset=".9" stop-color="#29a4dd"/><stop offset="1" stop-color="#2ea8e0"/></linearGradient><linearGradient xlink:href="#linear-gradient-2" id="linear-gradient-3" x1="251.44" x2="251.44" y1="-739.53" y2="-635.6"/><linearGradient xlink:href="#linear-gradient-2" id="linear-gradient-4" x1="194.52" x2="194.52" y1="-703.39" y2="-572.42"/><linearGradient xlink:href="#linear-gradient-2" id="linear-gradient-5" x1="243.36" x2="243.36" y1="-633.15" y2="-600.81"/><linearGradient xlink:href="#linear-gradient-2" id="linear-gradient-6" x1="119.79" x2="119.79" y1="-655.97" y2="-487.1"/><linearGradient xlink:href="#linear-gradient-2" id="linear-gradient-7" x1="119.99" x2="119.99" y1="-604.62" y2="-523.65"/><clipPath id="clippath"><path d="m291.25 283.1-7.61 5.71v-15.49l12.91-9.65.27 5.57s0 1.36-.14 4.35c-.27 3.67-2.58 7.47-5.57 9.51h.14Zm5.57-41.98h-13.04v11.82h13.04c3.26 0 5.98 2.72 5.98 5.98v68.07c0 3.26-2.85 5.98-6.11 5.98H205.8c-3.26 0-5.98-2.72-5.98-5.98v-7.34H188v7.34c0 9.78 8.02 17.93 17.93 17.93h91.03c4.76 0 9.37-1.9 12.64-5.3 3.4-3.4 5.3-7.88 5.3-12.77v-67.93c0-9.78-8.15-17.93-17.93-17.93l-.14.14Zm-28.94 61.14c4.21-4.21 6.66-9.92 6.66-16.03V200.5c0-12.36-10.19-22.55-22.69-22.55H234.6v14.94h17.25a7.6 7.6 0 0 1 7.61 7.61v85.73c0 4.21-3.53 7.61-7.74 7.61H137.05a7.6 7.6 0 0 1-7.61-7.61v-10.87H114.5v11c0 12.36 10.19 22.55 22.69 22.55h114.8c5.98 0 11.68-2.45 15.9-6.79v.14Zm-16.03-83.42c.27-3.8.27-5.43.27-5.43l-.41-7.06-17.12 12.77v19.56l10.33-7.88c3.8-2.58 6.66-7.47 6.93-12.09v.14Zm-58.42-89.67-73.5 55.16-73.5-55.16-.41 8.97c0 .14-.14 2.17.27 7.06.41 5.98 4.08 12.23 8.97 15.62l64.67 49.45 64.81-49.32c4.76-3.26 8.56-9.65 8.97-15.62.41-4.76.27-7.06.27-7.06l-.54-9.1Zm.41 132.33H45.88c-16.17 0-29.21-13.04-29.21-29.07V121.7c0-16.17 13.04-29.07 29.07-29.07h147.95c16.03 0 29.07 13.04 29.21 29.07v110.46c0 7.88-2.99 15.22-8.56 20.65-5.43 5.57-12.77 8.7-20.52 8.7Zm-.28-19.43c5.43 0 9.78-4.35 9.78-9.78V121.7c.14-5.43-4.21-9.78-9.65-9.78H45.75c-5.43 0-9.78 4.35-9.78 9.78v110.59c0 5.43 4.35 9.78 9.78 9.78h147.82Z" style="fill:none;stroke-width:0"/></clipPath><filter id="drop-shadow-1" filterUnits="userSpaceOnUse"><feOffset dx="3.6" dy="3.6"/><feGaussianBlur result="blur" stdDeviation="9.59"/><feFlood flood-color="#000" flood-opacity=".15"/><feComposite in2="blur" operator="in"/><feComposite in="SourceGraphic"/></filter><style>.cls-12,.cls-5{stroke-width:0}.cls-13{fill:none}.cls-5{fill:#14b8f9}.cls-13{stroke:#263042;stroke-miterlimit:10;stroke-width:1.01px}.cls-14{isolation:isolate}.cls-12{fill:#fff}</style></defs><g class="cls-14"><g id="Layer_1"><path d="M252.8 134.87h138.99c8.97 0 16.3-7.34 16.3-16.3V42.08c0-8.97-7.34-16.3-16.3-16.3H283.1c-8.97 0-16.3 7.34-16.3 16.3v64.4s1.49 29.07-14.13 28.4h.14Z" style="fill:url(#linear-gradient);filter:url(#drop-shadow-1);stroke-width:0"/><path d="M296.82 273.45c.27-2.99.14-4.35.14-4.35l-.27-5.57-12.91 9.65v15.49l7.61-5.71c2.99-2.04 5.3-5.98 5.57-9.51h-.14Z" style="fill:url(#linear-gradient-2);stroke-width:0"/><path d="M296.82 241.12h-13.04v11.82h13.04c3.26 0 5.98 2.72 5.98 5.98v68.07c0 3.26-2.85 5.98-6.11 5.98H205.8c-3.26 0-5.98-2.72-5.98-5.98v-7.34H188v7.34c0 9.78 8.02 17.93 17.93 17.93h91.03c4.76 0 9.37-1.9 12.64-5.3 3.4-3.4 5.3-7.88 5.3-12.77v-67.93c0-9.78-8.15-17.93-17.93-17.93l-.14.14Z" style="fill:url(#linear-gradient-3);stroke-width:0"/><path d="M267.88 302.26c4.21-4.21 6.66-9.92 6.66-16.03V200.5c0-12.36-10.19-22.55-22.69-22.55H234.6v14.94h17.25a7.6 7.6 0 0 1 7.61 7.61v85.73c0 4.21-3.53 7.61-7.74 7.61H137.05a7.6 7.6 0 0 1-7.61-7.61v-10.87H114.5v11c0 12.36 10.19 22.55 22.69 22.55h114.8c5.98 0 11.68-2.45 15.9-6.79v.14Z" style="fill:url(#linear-gradient-4);stroke-width:0"/><path d="M251.85 218.84c.27-3.8.27-5.43.27-5.43l-.41-7.06-17.12 12.77v19.56l10.33-7.88c3.8-2.58 6.66-7.47 6.93-12.09v.14Z" style="fill:url(#linear-gradient-5);stroke-width:0"/><path d="M214.35 252.8c5.57-5.57 8.56-12.77 8.56-20.65V121.69c-.14-16.03-13.18-29.07-29.21-29.07H45.75c-16.03 0-29.07 12.91-29.07 29.07v110.73c0 16.03 13.04 29.07 29.21 29.07h147.95c7.74 0 15.22-3.12 20.52-8.7Zm-168.6-10.73c-5.43 0-9.78-4.35-9.78-9.78V121.7c0-5.43 4.35-9.78 9.78-9.78H193.7c5.43 0 9.78 4.35 9.78 9.78v110.59c-.14 5.43-4.48 9.78-9.92 9.78H45.75Z" style="fill:url(#linear-gradient-6);stroke-width:0"/><path d="m193.43 129.17-73.5 55.16-73.5-55.16-.41 8.97c0 .14-.14 2.17.27 7.06.41 5.98 4.08 12.23 8.97 15.62l64.67 49.45 64.81-49.32c4.76-3.26 8.56-9.65 8.97-15.62.41-4.76.27-7.06.27-7.06l-.54-9.1Z" style="fill:url(#linear-gradient-7);stroke-width:0"/><g class="cls-14"><g class="cls-14"><path d="M289.89 44.53h4.08l1.9 16.98.27 3.94h.41l.41-4.48 2.99-16.44h3.4l2.85 16.44.27 4.48h.41v-3.94c.14 0 1.9-16.98 1.9-16.98h4.08l-3.94 28.12h-4.35l-2.31-13.45-.68-5.84h-.27l-.68 5.84-2.45 13.45h-4.21l-4.08-28.12ZM315.84 42.76h4.21v5.3l-.27 3.94c.27-.41.68-.82.95-1.09.41-.27.68-.54 1.09-.68s.82-.27 1.09-.41h1.22c1.36 0 2.31.41 3.12 1.36.68.95 1.09 2.31 1.09 4.21v17.39h-4.21V55.53c0-.95-.14-1.63-.41-2.04-.27-.41-.82-.54-1.36-.54s-.82 0-1.22.41c-.41.27-.82.68-1.09 1.22v18.34h-4.21V42.76ZM335.81 72.92c-.68 0-1.36 0-1.9-.41s-.95-.68-1.36-1.09-.68-1.09-.82-1.77-.27-1.36-.27-2.17 0-1.77.41-2.45c.27-.68.54-1.36.95-1.9s.95-1.09 1.63-1.63 1.36-.95 2.31-1.36c.41-.27.95-.41 1.36-.68.54-.27.95-.41 1.36-.54v-4.21c0-.41 0-.68-.27-.95 0-.27-.27-.54-.54-.68s-.54-.27-1.09-.27h-.82c-.27 0-.54.27-.68.54-.27.27-.41.68-.54 1.09s-.14.95-.14 1.63v.95h-3.12c0-.41-.14-.82-.27-1.22s0-.68 0-1.09c0-.82.14-1.63.41-2.17s.68-1.22 1.22-1.63c.54-.41 1.09-.82 1.9-.95.68-.27 1.49-.27 2.45-.27s2.04 0 2.85.41 1.36.68 1.77 1.09c.41.54.82 1.09.95 1.9.14.68.27 1.63.27 2.58v16.98h-3.12l-.27-1.9c-.41.68-1.09 1.22-1.77 1.63s-1.63.54-2.58.54h-.27Zm1.77-3.26c.41 0 .68 0 1.09-.27.27 0 .68-.41.82-.68v-7.06c-.27 0-.41 0-.68.27-.27 0-.54.27-.95.54-.27 0-.54.41-.82.68s-.54.54-.82.95c-.27.41-.41.82-.54 1.22s-.27.95-.27 1.49c0 .82.14 1.63.54 2.04.41.54.95.82 1.63.82ZM348.31 52.95h-1.77v-2.99h2.17l.82-5.84h2.99v5.84h3.67v2.99h-3.67v14.4c0 .54 0 .95.14 1.22 0 .27.27.54.41.68s.41.27.54.27h1.77c.27 0 .68-.27.95-.41v2.31c-.27.27-.54.54-.82.68l-.82.41c-.28.14-.54 0-.95.27s-.54 0-.95 0-1.09 0-1.63-.27c-.54 0-.95-.41-1.49-.82-.41-.41-.82-1.09-.95-1.77-.27-.82-.41-1.77-.41-2.99V52.94ZM364.21 45.48l-2.45 7.74h-3.26l1.36-6.52v-4.89h4.35v3.67ZM368.28 67.89c0-.54 0-.95.14-1.49 0-.41.14-.82.27-1.09h2.99v2.04c0 .54.27.95.41 1.36s.41.54.82.68c.27 0 .68.27 1.09.27s1.09 0 1.36-.54.41-.82.41-1.22v-.68c0-.27-.14-.41-.27-.68 0-.27-.27-.41-.41-.68-.14-.27-.41-.54-.54-.82l-2.99-3.53c-.41-.54-.82-.95-1.09-1.49-.41-.54-.68-1.09-.95-1.63-.27-.54-.54-1.09-.68-1.77-.14-.54-.27-1.22-.27-1.9s.14-1.63.41-2.31c.27-.68.68-1.22 1.22-1.63.54-.41 1.09-.68 1.77-.95s1.36-.27 2.17-.27 1.63 0 2.17.27 1.22.54 1.63.95c.41.41.82.95 1.09 1.49.27.54.41 1.22.41 2.04s0 1.09-.14 1.49-.14.95-.27 1.22h-2.85v-1.9c0-.54-.14-1.09-.27-1.36-.14-.41-.41-.68-.54-.82-.27 0-.54-.27-.95-.27h-.95c-.27 0-.41.27-.54.41-.14 0-.27.41-.27.68v.68c0 .54 0 .95.41 1.49s.54.95.95 1.49l3.26 3.94c.27.27.54.68.82 1.09s.68.95.95 1.36c.27.54.54 1.09.68 1.63.14.54.27 1.22.27 1.9s0 1.49-.41 2.17c-.27.68-.68 1.22-1.09 1.63s-1.09.82-1.77 1.09-1.49.41-2.45.41-1.49 0-2.17-.27c-.68-.27-1.22-.41-1.77-.82-.54-.41-.95-.95-1.22-1.49-.27-.68-.41-1.36-.41-2.31h-.41v.14Z" class="cls-5"/></g></g><g class="cls-14"><g class="cls-14"><path d="M291.52 89.9h3.26l.41 2.45c.27-.54.68-.95 1.09-1.22s.82-.68 1.22-.82.82-.41 1.22-.41h1.22c1.36 0 2.31.41 3.12 1.36.68.95 1.09 2.31 1.09 4.21v17.39h-4.21V95.61c0-.95-.14-1.63-.41-2.04-.27-.41-.82-.54-1.36-.54s-.82 0-1.22.41-.82.68-1.09 1.09v18.34h-4.21V89.91h-.14ZM313.67 112.86c-.95 0-1.9-.14-2.58-.54-.82-.41-1.36-.95-1.9-1.63-.54-.82-.95-1.77-1.22-2.99s-.41-2.58-.41-4.35v-4.21c0-1.49 0-2.72.27-3.67s.54-1.9.82-2.58c.41-.68.68-1.22 1.22-1.63s.95-.68 1.36-.95.95-.41 1.49-.41h1.36c.68 0 1.49 0 2.17.27s1.36.54 1.77 1.09.95 1.22 1.22 2.17.41 2.04.41 3.4v2.72c0 .41 0 .95-.14 1.36 0 .41-.14.82-.27 1.22h-7.47v4.76c0 .68.27 1.22.41 1.63.14.41.41.68.68.95.27.14.68.27 1.22.27s.54 0 .68-.14c.27 0 .41-.27.68-.54.14-.27.27-.54.41-.95 0-.41.14-.95.14-1.49v-.68h3.53v.82c0 2.17-.54 3.67-1.49 4.76s-2.45 1.49-4.48 1.49h.14v-.14Zm2.31-13.58v-2.45c0-1.49-.14-2.58-.54-3.26s-.82-.95-1.63-.95-.68 0-.95.27-.54.41-.68.82-.27.95-.41 1.63 0 1.49 0 2.45v1.36h4.21v.14ZM321.82 89.9h3.94l1.63 12.23.41 4.62.54-4.62 2.17-12.23h3.53l2.17 12.23.54 4.62.27-4.62 1.49-12.23h3.94l-3.67 22.69h-3.8l-2.31-12.64-.54-3.53-.54 3.53-2.17 12.64h-3.94l-3.67-22.69ZM349.81 100.09V99c0-.27 0-.68.14-.95 0-.27.14-.54.27-.95.14-.27.27-.68.54-1.09l1.9-3.12c.41-.68.68-1.36.95-2.04s.41-1.36.41-2.04 0-.82-.14-1.22c0-.41-.27-.68-.54-.95-.27-.27-.54-.41-.82-.68-.27 0-.68-.27-1.09-.27-.95 0-1.49.41-1.9 1.22s-.68 1.9-.68 3.4v1.36h-3.4c0-.68-.27-1.22-.27-1.63v-1.63c0-.54 0-1.63.41-2.31.27-.68.68-1.36 1.22-1.9s1.22-.95 2.04-1.22c.82-.27 1.77-.41 2.99-.41s2.17 0 2.99.41c.82.27 1.49.68 2.17 1.36.54.54.95 1.22 1.22 2.04s.41 1.63.41 2.58 0 1.09-.14 1.63c0 .54-.27.95-.41 1.49s-.41.95-.82 1.49c-.27.54-.68 1.09-1.09 1.63l-1.36 1.77c-.27.41-.54.82-.68 1.09-.14.27-.27.54-.41.95s0 .54-.14.95v3.53h-3.67v-3.4h-.14Zm-.55 9.65c0-1.09.27-2.04.68-2.45.41-.54 1.09-.82 1.9-.82s1.49.27 1.9.82.68 1.36.68 2.45-.27 1.77-.68 2.31-1.09.82-1.9.82-1.36-.27-1.9-.82c-.41-.54-.68-1.36-.68-2.31Z" class="cls-12"/></g></g><g style="mix-blend-mode:overlay;opacity:.6"><g style="clip-path:url(#clippath)"><path d="M198.46 125.09c5.16 34.51 32.2 68.88 80.7 102.44 13.31 9.24 28.4 18.48 45.11 27.58 3.66 2.01 7.39 4.07 11.14 6.15v-16.93c-1.79-1.21-3.56-2.41-5.3-3.62-27.99-19.29-48.91-37.91-64.26-56.79-17.25-21.19-27.17-43.2-29.62-65.35-1.22-11.14.41-20.79 1.77-30.16.42-2.71.84-5.39 1.21-8.08h-32.78c-.83 2.83-1.74 5.61-2.66 8.35-3.67 11.14-7.34 22.69-5.3 36.41ZM113.13 280.25c-6.25-2.17-12.64-4.35-18.75-6.39-32.47-10.87-62.22-24.18-93.88-43.2v13.63c40.45 21.27 84.62 36.16 127.44 50.63 27.31 9.24 55.57 18.75 81.92 29.62 36.3 15.09 67.75 30.17 95.11 45.64h21.2c-30.13-16.24-65.44-31.71-105.58-48.9-32.61-13.99-67.8-27.44-107.47-41.03ZM50.37 105.94c-.68 1.49-1.49 2.99-2.17 4.48-9.1 18.48-18.48 37.77-1.22 64.94 6.11 9.78 15.9 19.16 29.75 28.67 18.61 12.91 41.3 23.64 59.51 32.2l3.53 1.63c26.22 12.5 52.99 24.32 78.8 35.87 9.92 4.48 20.24 8.97 30.43 13.59 27.32 12.21 56.73 25.67 86.41 40.97v-7.28c-27.91-14.33-56.08-27.43-83.55-39.81-6.11-2.72-13.18-5.84-20.65-9.1-36.41-15.9-86.41-37.63-123.5-63.31-22.82-15.76-38.18-31.25-45.79-46.19-12.77-25.13-4.08-42.66 4.35-59.51 1.36-2.72 2.85-5.71 4.08-8.42 2.11-4.66 4.23-9.44 6.28-14.33H62.64c-2.56 5.48-5.18 10.89-7.78 16.23-1.49 3.12-2.99 6.25-4.48 9.37Z" class="cls-13"/><path d="M136.77 127.13c.82 29.07 25.81 61.95 70.51 92.79 17.8 12.36 38.18 23.78 58.83 33.29 22.01 10.13 45.36 21.15 69.29 33.24v-13.72c-8.45-4.48-17.18-9.03-26.22-13.67-21.6-11.14-41.03-22.55-57.47-33.97-45.92-31.66-72.01-64.4-77.71-97.28-2.72-16.03 2.45-28.4 7.61-40.49.99-2.3 1.98-4.62 2.91-6.99h-27.66c-1.93 3.37-4.02 6.63-6.1 9.84-7.06 11-14.4 22.42-13.99 36.95Z" class="cls-13"/><path d="M31.21 82.02c-17.8 29.89-39.94 67.12-3.67 108.01 6.39 7.06 13.99 13.72 23.64 20.38 22.15 15.22 49.05 26.63 72.82 36.68 2.17.95 4.48 1.9 6.66 2.85 11 4.62 22.01 9.37 32.88 13.86 25.54 10.73 51.9 21.74 77.85 33.29 29.65 13.13 61.94 28.01 94.02 45.08v-5.95c-29.49-15.33-59.57-29.26-88.85-42.39-18.48-8.29-37.23-16.44-55.3-24.32-18.07-7.88-36.82-15.9-55.16-24.18-1.77-.82-3.53-1.63-5.3-2.31-20.38-9.1-45.79-20.38-66.44-34.64-12.77-8.83-22.15-17.66-28.8-26.9-12.36-17.25-16.03-35.32-11.41-55.02 3.81-16.55 13.08-32.21 21.42-46.12H32.22c-.34.56-.67 1.13-1.01 1.69Z" class="cls-13"/><path d="M104.98 145.74c7.74 21.87 28.12 44.29 60.73 66.84 33.01 22.82 72.55 41.57 99.45 53.8 21.26 9.62 45.19 20.74 70.24 33.44v-5.65c-25.9-13.05-50.52-24.39-72.41-34.18-18.88-8.42-47.01-22.42-74.04-41.17-41.98-28.94-65.89-58.96-69.43-86.68-2.17-17.39 6.25-30.16 14.4-42.39 2.04-3.07 4.1-6.21 6.01-9.44h-16.89c-2.22 4.99-5.08 9.88-7.87 14.6-8.56 14.67-17.53 29.89-10.19 50.81Z" class="cls-13"/><path d="M86.1 92.21c-1.63 3.53-3.4 7.06-5.16 10.6-8.02 15.49-16.17 31.66-6.39 54.07 7.06 16.17 23.64 33.29 49.05 50.81 37.09 25.68 86.82 47.82 119.56 62.5 3.53 1.49 6.79 2.99 9.92 4.48 27.01 12.12 54.74 24.98 82.33 39.09v-6.3c-23.82-12.15-46.65-22.84-66.98-32.11l-3.53-1.63c-33.15-15.08-78.39-35.73-114.8-60.87-27.99-19.43-47.28-39.13-57.2-58.69-12.5-24.59-2.85-41.98 6.52-58.69 2.84-5.14 5.54-10.01 7.71-15.14H91.14c-1.54 3.86-3.22 7.81-5.04 11.88ZM251.71 307.96c-34.92-15.76-70.65-30.43-105.16-44.56l-5.3-2.17c-4.76-1.9-9.37-3.8-14.4-5.84-27.44-11-58.69-23.64-84.51-41.44-25.81-17.8-7.34-5.3-10.73-8.02C16.4 193.78 6.09 181.13.5 167.78v24.67c5.57 6.14 12.31 12.17 20.24 18.1 2.04 1.49 4.08 2.99 6.25 4.48 27.44 18.88 59.1 31.11 89.67 42.8 4.76 1.77 9.65 3.67 14.27 5.43 35.19 13.72 72.96 28.67 109.91 44.97 27.87 12.36 61.06 27.73 94.56 46.34v-5.8c-29.62-15.98-58.76-29.58-83.69-40.8Z" class="cls-13"/><path d="M232.28 310.95c-39.26-17.12-78.8-32.2-108.96-43.61-4.08-1.49-8.15-2.99-12.23-4.62-32.06-11.82-65.21-24.18-94.42-44.43-2.45-1.63-4.76-3.4-7.06-5.03-3.22-2.43-6.25-4.87-9.1-7.32v14.16c3.68 2.47 7.59 4.93 11.68 7.29 29.89 17.8 58.83 30.3 89.67 40.89 6.79 2.31 13.86 4.76 20.79 7.2 40.49 14.4 75.95 28.4 108.42 42.52 39.92 17.4 74.61 33.27 104.34 49.71v-6.38c-36.27-20.53-72.82-37.23-103.12-50.4ZM269.53 370.18h20.74c-48.56-25.96-102.8-44.81-155.67-63.17C87.06 290.48 41.77 274.79.5 254.43v10.94c34.33 15.12 72.23 28.25 111.68 41.91 53.55 18.5 108.56 37.46 157.34 62.89Z" class="cls-13"/></g></g></g></g></svg>